<ttFont>
    <TTGlyph name="A" xMin="26" yMin="0" xMax="619" yMax="633">
      <contour>
        <pt x="619" y="0" on="1"/>
        <pt x="474" y="0" on="1"/>
        <pt x="416" y="162" on="0"/>
        <pt x="416" y="162" on="1"/>
        <pt x="220" y="162" on="1"/>
        <pt x="207" y="130" on="0"/>
        <pt x="178" y="49" on="0"/>
        <pt x="161" y="0" on="1"/>
        <pt x="26" y="0" on="1"/>
        <pt x="48" y="49" on="0"/>
        <pt x="166" y="364" on="0"/>
        <pt x="265" y="633" on="1"/>
        <pt x="378" y="633" on="1"/>
        <pt x="409" y="548" on="0"/>
        <pt x="464" y="401" on="0"/>
        <pt x="487" y="338" on="1"/>
        <pt x="600" y="35" on="0"/>
      </contour>
      <contour>
        <pt x="383" y="282" on="1"/>
        <pt x="368" y="325" on="0"/>
        <pt x="338" y="409" on="0"/>
        <pt x="323" y="451" on="1"/>
        <pt x="261" y="278" on="0"/>
        <pt x="260" y="282" on="1"/>
      </contour>
    </TTGlyph>
    <TTGlyph name="AE" xMin="-31" yMin="-4" xMax="902" yMax="631">
      <contour>
        <pt x="902" y="-3" on="1"/>
        <pt x="828" y="0" on="0"/>
        <pt x="716" y="3" on="0"/>
        <pt x="676" y="2" on="1"/>
        <pt x="584" y="2" on="0"/>
        <pt x="415" y="-4" on="1"/>
        <pt x="420" y="13" on="0"/>
        <pt x="425" y="96" on="0"/>
        <pt x="426" y="162" on="1"/>
        <pt x="221" y="162" on="1"/>
        <pt x="171" y="97" on="0"/>
        <pt x="104" y="0" on="1"/>
        <pt x="-31" y="0" on="1"/>
        <pt x="8" y="49" on="0"/>
        <pt x="241" y="362" on="0"/>
        <pt x="436" y="630" on="1"/>
        <pt x="444" y="629" on="0"/>
        <pt x="551" y="628" on="0"/>
        <pt x="651" y="626" on="1"/>
        <pt x="691" y="625" on="0"/>
        <pt x="803" y="628" on="0"/>
        <pt x="878" y="631" on="1"/>
        <pt x="872" y="580" on="0"/>
        <pt x="878" y="494" on="1"/>
        <pt x="798" y="494" on="1"/>
        <pt x="796" y="510" on="0"/>
        <pt x="796" y="510" on="1"/>
        <pt x="796" y="513" on="0"/>
        <pt x="790" y="519" on="1"/>
        <pt x="786" y="526" on="0"/>
        <pt x="726" y="526" on="1"/>
        <pt x="551" y="526" on="1"/>
        <pt x="549" y="488" on="0"/>
        <pt x="551" y="378" on="1"/>
        <pt x="768" y="378" on="0"/>
        <pt x="801" y="392" on="1"/>
        <pt x="801" y="266" on="1"/>
        <pt x="754" y="281" on="0"/>
        <pt x="551" y="278" on="1"/>
        <pt x="550" y="104" on="1"/>
        <pt x="751" y="104" on="1"/>
        <pt x="805" y="104" on="0"/>
        <pt x="814" y="116" on="1"/>
        <pt x="822" y="125" on="0"/>
        <pt x="823" y="147" on="1"/>
        <pt x="902" y="147" on="1"/>
        <pt x="897" y="45" on="0"/>
      </contour>
      <contour>
        <pt x="426" y="282" on="1"/>
        <pt x="426" y="451" on="1"/>
        <pt x="395" y="408" on="0"/>
        <pt x="334" y="324" on="0"/>
        <pt x="303" y="282" on="1"/>
      </contour>
    </TTGlyph>
    <TTGlyph name="AEacute" xMin="33" yMin="-4" xMax="966" yMax="857">
      <contour>
        <pt x="966" y="-3" on="1"/>
        <pt x="892" y="0" on="0"/>
        <pt x="780" y="3" on="0"/>
        <pt x="740" y="2" on="1"/>
        <pt x="648" y="2" on="0"/>
        <pt x="479" y="-4" on="1"/>
        <pt x="484" y="13" on="0"/>
        <pt x="489" y="96" on="0"/>
        <pt x="490" y="162" on="1"/>
        <pt x="285" y="162" on="1"/>
        <pt x="235" y="97" on="0"/>
        <pt x="168" y="0" on="1"/>
        <pt x="33" y="0" on="1"/>
        <pt x="72" y="49" on="0"/>
        <pt x="305" y="362" on="0"/>
        <pt x="500" y="630" on="1"/>
        <pt x="508" y="629" on="0"/>
        <pt x="615" y="628" on="0"/>
        <pt x="715" y="626" on="1"/>
        <pt x="755" y="625" on="0"/>
        <pt x="867" y="628" on="0"/>
        <pt x="942" y="631" on="1"/>
        <pt x="936" y="580" on="0"/>
        <pt x="942" y="494" on="1"/>
        <pt x="862" y="494" on="1"/>
        <pt x="860" y="510" on="0"/>
        <pt x="860" y="510" on="1"/>
        <pt x="860" y="513" on="0"/>
        <pt x="854" y="519" on="1"/>
        <pt x="850" y="526" on="0"/>
        <pt x="790" y="526" on="1"/>
        <pt x="615" y="526" on="1"/>
        <pt x="613" y="488" on="0"/>
        <pt x="615" y="378" on="1"/>
        <pt x="832" y="378" on="0"/>
        <pt x="865" y="392" on="1"/>
        <pt x="865" y="266" on="1"/>
        <pt x="818" y="281" on="0"/>
        <pt x="615" y="278" on="1"/>
        <pt x="614" y="104" on="1"/>
        <pt x="815" y="104" on="1"/>
        <pt x="869" y="104" on="0"/>
        <pt x="878" y="116" on="1"/>
        <pt x="886" y="125" on="0"/>
        <pt x="887" y="147" on="1"/>
        <pt x="966" y="147" on="1"/>
        <pt x="961" y="45" on="0"/>
      </contour>
      <contour>
        <pt x="490" y="282" on="1"/>
        <pt x="490" y="451" on="1"/>
        <pt x="459" y="408" on="0"/>
        <pt x="398" y="324" on="0"/>
        <pt x="367" y="282" on="1"/>
      </contour>
      <contour>
        <pt x="680" y="827" on="1"/>
        <pt x="617" y="660" on="1"/>
        <pt x="544" y="680" on="1"/>
        <pt x="593" y="857" on="1"/>
      </contour>
    </TTGlyph>
    <TTGlyph name="Aacute" xMin="26" yMin="0" xMax="619" yMax="868">
      <contour>
        <pt x="619" y="0" on="1"/>
        <pt x="474" y="0" on="1"/>
        <pt x="416" y="162" on="0"/>
        <pt x="416" y="162" on="1"/>
        <pt x="220" y="162" on="1"/>
        <pt x="207" y="130" on="0"/>
        <pt x="178" y="49" on="0"/>
        <pt x="161" y="0" on="1"/>
        <pt x="26" y="0" on="1"/>
        <pt x="48" y="49" on="0"/>
        <pt x="166" y="364" on="0"/>
        <pt x="265" y="633" on="1"/>
        <pt x="378" y="633" on="1"/>
        <pt x="409" y="548" on="0"/>
        <pt x="464" y="401" on="0"/>
        <pt x="487" y="338" on="1"/>
        <pt x="600" y="35" on="0"/>
      </contour>
      <contour>
        <pt x="383" y="282" on="1"/>
        <pt x="368" y="325" on="0"/>
        <pt x="338" y="409" on="0"/>
        <pt x="323" y="451" on="1"/>
        <pt x="261" y="278" on="0"/>
        <pt x="260" y="282" on="1"/>
      </contour>
      <contour>
        <pt x="431" y="838" on="1"/>
        <pt x="368" y="671" on="1"/>
        <pt x="295" y="691" on="1"/>
        <pt x="344" y="868" on="1"/>
      </contour>
    </TTGlyph>
    <TTGlyph name="Abreve" xMin="26" yMin="0" xMax="619" yMax="805">
      <contour>
        <pt x="619" y="0" on="1"/>
        <pt x="474" y="0" on="1"/>
        <pt x="416" y="162" on="0"/>
        <pt x="416" y="162" on="1"/>
        <pt x="220" y="162" on="1"/>
        <pt x="207" y="130" on="0"/>
        <pt x="178" y="49" on="0"/>
        <pt x="161" y="0" on="1"/>
        <pt x="26" y="0" on="1"/>
        <pt x="48" y="49" on="0"/>
        <pt x="166" y="364" on="0"/>
        <pt x="265" y="633" on="1"/>
        <pt x="378" y="633" on="1"/>
        <pt x="409" y="548" on="0"/>
        <pt x="464" y="401" on="0"/>
        <pt x="487" y="338" on="1"/>
        <pt x="600" y="35" on="0"/>
      </contour>
      <contour>
        <pt x="383" y="282" on="1"/>
        <pt x="368" y="325" on="0"/>
        <pt x="338" y="409" on="0"/>
        <pt x="323" y="451" on="1"/>
        <pt x="261" y="278" on="0"/>
        <pt x="260" y="282" on="1"/>
      </contour>
      <contour>
        <pt x="480" y="767" on="1"/>
        <pt x="442" y="713" on="0"/>
        <pt x="415" y="693" on="1"/>
        <pt x="377" y="664" on="0"/>
        <pt x="324" y="664" on="1"/>
        <pt x="271" y="664" on="0"/>
        <pt x="233" y="692" on="1"/>
        <pt x="204" y="713" on="0"/>
        <pt x="164" y="767" on="1"/>
        <pt x="206" y="805" on="1"/>
        <pt x="226" y="781" on="0"/>
        <pt x="254" y="751" on="0"/>
        <pt x="261" y="745" on="1"/>
        <pt x="289" y="720" on="0"/>
        <pt x="324" y="720" on="1"/>
        <pt x="362" y="720" on="0"/>
        <pt x="392" y="747" on="1"/>
        <pt x="400" y="754" on="0"/>
        <pt x="423" y="782" on="0"/>
        <pt x="439" y="804" on="1"/>
      </contour>
    </TTGlyph>
    <TTGlyph name="Acircumflex" xMin="26" yMin="0" xMax="619" yMax="854">
      <contour>
        <pt x="619" y="0" on="1"/>
        <pt x="474" y="0" on="1"/>
        <pt x="416" y="162" on="0"/>
        <pt x="416" y="162" on="1"/>
        <pt x="220" y="162" on="1"/>
        <pt x="207" y="130" on="0"/>
        <pt x="178" y="49" on="0"/>
        <pt x="161" y="0" on="1"/>
        <pt x="26" y="0" on="1"/>
        <pt x="48" y="49" on="0"/>
        <pt x="166" y="364" on="0"/>
        <pt x="265" y="633" on="1"/>
        <pt x="378" y="633" on="1"/>
        <pt x="409" y="548" on="0"/>
        <pt x="464" y="401" on="0"/>
        <pt x="487" y="338" on="1"/>
        <pt x="600" y="35" on="0"/>
      </contour>
      <contour>
        <pt x="383" y="282" on="1"/>
        <pt x="368" y="325" on="0"/>
        <pt x="338" y="409" on="0"/>
        <pt x="323" y="451" on="1"/>
        <pt x="261" y="278" on="0"/>
        <pt x="260" y="282" on="1"/>
      </contour>
      <contour>
        <pt x="505" y="730" on="1"/>
        <pt x="446" y="672" on="1"/>
        <pt x="424" y="688" on="0"/>
        <pt x="365" y="730" on="0"/>
        <pt x="327" y="757" on="1"/>
        <pt x="306" y="743" on="0"/>
        <pt x="242" y="699" on="0"/>
        <pt x="198" y="669" on="1"/>
        <pt x="149" y="730" on="1"/>
        <pt x="326" y="854" on="1"/>
        <pt x="371" y="823" on="0"/>
        <pt x="460" y="762" on="0"/>
      </contour>
    </TTGlyph>
    <TTGlyph name="Adieresis" xMin="26" yMin="0" xMax="619" yMax="775">
      <contour>
        <pt x="469" y="720" on="1"/>
        <pt x="469" y="700" on="0"/>
        <pt x="439" y="667" on="0"/>
        <pt x="417" y="667" on="1"/>
        <pt x="396" y="667" on="0"/>
        <pt x="366" y="699" on="0"/>
        <pt x="366" y="720" on="1"/>
        <pt x="366" y="741" on="0"/>
        <pt x="396" y="774" on="0"/>
        <pt x="417" y="774" on="1"/>
        <pt x="438" y="774" on="0"/>
        <pt x="469" y="741" on="0"/>
      </contour>
      <contour>
        <pt x="278" y="722" on="1"/>
        <pt x="278" y="702" on="0"/>
        <pt x="246" y="670" on="0"/>
        <pt x="225" y="670" on="1"/>
        <pt x="203" y="670" on="0"/>
        <pt x="171" y="701" on="0"/>
        <pt x="171" y="722" on="1"/>
        <pt x="171" y="743" on="0"/>
        <pt x="203" y="775" on="0"/>
        <pt x="225" y="775" on="1"/>
        <pt x="246" y="775" on="0"/>
        <pt x="278" y="742" on="0"/>
      </contour>
      <contour>
        <pt x="619" y="0" on="1"/>
        <pt x="474" y="0" on="1"/>
        <pt x="416" y="162" on="0"/>
        <pt x="416" y="162" on="1"/>
        <pt x="220" y="162" on="1"/>
        <pt x="207" y="130" on="0"/>
        <pt x="178" y="49" on="0"/>
        <pt x="161" y="0" on="1"/>
        <pt x="26" y="0" on="1"/>
        <pt x="48" y="49" on="0"/>
        <pt x="166" y="364" on="0"/>
        <pt x="265" y="633" on="1"/>
        <pt x="378" y="633" on="1"/>
        <pt x="409" y="548" on="0"/>
        <pt x="464" y="401" on="0"/>
        <pt x="487" y="338" on="1"/>
        <pt x="600" y="35" on="0"/>
      </contour>
      <contour>
        <pt x="383" y="282" on="1"/>
        <pt x="368" y="325" on="0"/>
        <pt x="338" y="409" on="0"/>
        <pt x="323" y="451" on="1"/>
        <pt x="261" y="278" on="0"/>
        <pt x="260" y="282" on="1"/>
      </contour>
    </TTGlyph>
    <TTGlyph name="Agrave" xMin="26" yMin="0" xMax="619" yMax="871">
      <contour>
        <pt x="619" y="0" on="1"/>
        <pt x="474" y="0" on="1"/>
        <pt x="416" y="162" on="0"/>
        <pt x="416" y="162" on="1"/>
        <pt x="220" y="162" on="1"/>
        <pt x="207" y="130" on="0"/>
        <pt x="178" y="49" on="0"/>
        <pt x="161" y="0" on="1"/>
        <pt x="26" y="0" on="1"/>
        <pt x="48" y="49" on="0"/>
        <pt x="166" y="364" on="0"/>
        <pt x="265" y="633" on="1"/>
        <pt x="378" y="633" on="1"/>
        <pt x="409" y="548" on="0"/>
        <pt x="464" y="401" on="0"/>
        <pt x="487" y="338" on="1"/>
        <pt x="600" y="35" on="0"/>
      </contour>
      <contour>
        <pt x="383" y="282" on="1"/>
        <pt x="368" y="325" on="0"/>
        <pt x="338" y="409" on="0"/>
        <pt x="323" y="451" on="1"/>
        <pt x="261" y="278" on="0"/>
        <pt x="260" y="282" on="1"/>
      </contour>
      <contour>
        <pt x="354" y="697" on="1"/>
        <pt x="289" y="675" on="1"/>
        <pt x="227" y="842" on="1"/>
        <pt x="310" y="871" on="1"/>
      </contour>
    </TTGlyph>
    <TTGlyph name="Alpha" xMin="26" yMin="0" xMax="619" yMax="633">
      <contour>
        <pt x="619" y="0" on="1"/>
        <pt x="474" y="0" on="1"/>
        <pt x="417" y="163" on="0"/>
        <pt x="416" y="162" on="1"/>
        <pt x="220" y="162" on="1"/>
        <pt x="207" y="130" on="0"/>
        <pt x="178" y="49" on="0"/>
        <pt x="161" y="0" on="1"/>
        <pt x="26" y="0" on="1"/>
        <pt x="48" y="49" on="0"/>
        <pt x="167" y="364" on="0"/>
        <pt x="265" y="633" on="1"/>
        <pt x="378" y="633" on="1"/>
        <pt x="409" y="548" on="0"/>
        <pt x="464" y="401" on="0"/>
        <pt x="487" y="338" on="1"/>
        <pt x="600" y="35" on="0"/>
      </contour>
      <contour>
        <pt x="383" y="282" on="1"/>
        <pt x="368" y="325" on="0"/>
        <pt x="338" y="409" on="0"/>
        <pt x="323" y="451" on="1"/>
        <pt x="261" y="278" on="0"/>
        <pt x="260" y="282" on="1"/>
      </contour>
    </TTGlyph>
    <TTGlyph name="Alphatonos" xMin="-23" yMin="0" xMax="619" yMax="646">
      <contour>
        <pt x="113" y="616" on="1"/>
        <pt x="50" y="449" on="1"/>
        <pt x="-23" y="469" on="1"/>
        <pt x="26" y="646" on="1"/>
      </contour>
      <contour>
        <pt x="619" y="0" on="1"/>
        <pt x="474" y="0" on="1"/>
        <pt x="417" y="163" on="0"/>
        <pt x="416" y="162" on="1"/>
        <pt x="220" y="162" on="1"/>
        <pt x="207" y="130" on="0"/>
        <pt x="178" y="49" on="0"/>
        <pt x="161" y="0" on="1"/>
        <pt x="26" y="0" on="1"/>
        <pt x="48" y="49" on="0"/>
        <pt x="167" y="364" on="0"/>
        <pt x="265" y="633" on="1"/>
        <pt x="378" y="633" on="1"/>
        <pt x="409" y="548" on="0"/>
        <pt x="464" y="401" on="0"/>
        <pt x="487" y="338" on="1"/>
        <pt x="600" y="35" on="0"/>
      </contour>
      <contour>
        <pt x="383" y="282" on="1"/>
        <pt x="368" y="325" on="0"/>
        <pt x="338" y="409" on="0"/>
        <pt x="323" y="451" on="1"/>
        <pt x="261" y="278" on="0"/>
        <pt x="260" y="282" on="1"/>
      </contour>
    </TTGlyph>
    <TTGlyph name="Amacron" xMin="26" yMin="0" xMax="619" yMax="724">
      <contour>
        <pt x="619" y="0" on="1"/>
        <pt x="474" y="0" on="1"/>
        <pt x="416" y="162" on="0"/>
        <pt x="416" y="162" on="1"/>
        <pt x="220" y="162" on="1"/>
        <pt x="207" y="130" on="0"/>
        <pt x="178" y="49" on="0"/>
        <pt x="161" y="0" on="1"/>
        <pt x="26" y="0" on="1"/>
        <pt x="48" y="49" on="0"/>
        <pt x="166" y="364" on="0"/>
        <pt x="265" y="633" on="1"/>
        <pt x="378" y="633" on="1"/>
        <pt x="409" y="548" on="0"/>
        <pt x="464" y="401" on="0"/>
        <pt x="487" y="338" on="1"/>
        <pt x="600" y="35" on="0"/>
      </contour>
      <contour>
        <pt x="383" y="282" on="1"/>
        <pt x="368" y="325" on="0"/>
        <pt x="338" y="409" on="0"/>
        <pt x="323" y="451" on="1"/>
        <pt x="261" y="278" on="0"/>
        <pt x="260" y="282" on="1"/>
      </contour>
      <contour>
        <pt x="474" y="663" on="1"/>
        <pt x="166" y="663" on="1"/>
        <pt x="166" y="724" on="1"/>
        <pt x="474" y="724" on="1"/>
      </contour>
    </TTGlyph>
    <TTGlyph name="Aogonek" xMin="26" yMin="-221" xMax="643" yMax="633">
      <contour>
        <pt x="643" y="-183" on="1"/>
        <pt x="614" y="-221" on="0"/>
        <pt x="536" y="-221" on="1"/>
        <pt x="505" y="-221" on="0"/>
        <pt x="473" y="-192" on="1"/>
        <pt x="443" y="-164" on="0"/>
        <pt x="443" y="-138" on="1"/>
        <pt x="443" y="-49" on="0"/>
        <pt x="489" y="0" on="1"/>
        <pt x="474" y="0" on="1"/>
        <pt x="416" y="162" on="0"/>
        <pt x="416" y="162" on="1"/>
        <pt x="220" y="162" on="1"/>
        <pt x="207" y="130" on="0"/>
        <pt x="178" y="49" on="0"/>
        <pt x="161" y="0" on="1"/>
        <pt x="26" y="0" on="1"/>
        <pt x="48" y="49" on="0"/>
        <pt x="166" y="364" on="0"/>
        <pt x="265" y="633" on="1"/>
        <pt x="378" y="633" on="1"/>
        <pt x="409" y="548" on="0"/>
        <pt x="464" y="401" on="0"/>
        <pt x="487" y="338" on="1"/>
        <pt x="600" y="35" on="0"/>
        <pt x="619" y="0" on="1"/>
        <pt x="589" y="0" on="1"/>
        <pt x="521" y="-56" on="0"/>
        <pt x="521" y="-109" on="1"/>
        <pt x="521" y="-131" on="0"/>
        <pt x="551" y="-156" on="0"/>
        <pt x="568" y="-155" on="1"/>
        <pt x="585" y="-154" on="0"/>
        <pt x="617" y="-125" on="1"/>
      </contour>
      <contour>
        <pt x="383" y="282" on="1"/>
        <pt x="368" y="325" on="0"/>
        <pt x="338" y="409" on="0"/>
        <pt x="323" y="451" on="1"/>
        <pt x="261" y="278" on="0"/>
        <pt x="260" y="282" on="1"/>
      </contour>
    </TTGlyph>
    <TTGlyph name="Aring" xMin="26" yMin="0" xMax="619" yMax="851">
      <contour>
        <pt x="619" y="0" on="1"/>
        <pt x="474" y="0" on="1"/>
        <pt x="416" y="162" on="0"/>
        <pt x="416" y="162" on="1"/>
        <pt x="220" y="162" on="1"/>
        <pt x="207" y="130" on="0"/>
        <pt x="178" y="49" on="0"/>
        <pt x="161" y="0" on="1"/>
        <pt x="26" y="0" on="1"/>
        <pt x="48" y="49" on="0"/>
        <pt x="166" y="364" on="0"/>
        <pt x="265" y="633" on="1"/>
        <pt x="378" y="633" on="1"/>
        <pt x="409" y="548" on="0"/>
        <pt x="464" y="401" on="0"/>
        <pt x="487" y="338" on="1"/>
        <pt x="600" y="35" on="0"/>
      </contour>
      <contour>
        <pt x="383" y="282" on="1"/>
        <pt x="368" y="325" on="0"/>
        <pt x="338" y="409" on="0"/>
        <pt x="323" y="451" on="1"/>
        <pt x="261" y="278" on="0"/>
        <pt x="260" y="282" on="1"/>
      </contour>
      <contour>
        <pt x="418" y="759" on="1"/>
        <pt x="418" y="740" on="0"/>
        <pt x="404" y="706" on="0"/>
        <pt x="379" y="681" on="0"/>
        <pt x="345" y="667" on="0"/>
        <pt x="326" y="667" on="1"/>
        <pt x="307" y="667" on="0"/>
        <pt x="273" y="681" on="0"/>
        <pt x="248" y="706" on="0"/>
        <pt x="234" y="740" on="0"/>
        <pt x="234" y="759" on="1"/>
        <pt x="234" y="778" on="0"/>
        <pt x="248" y="812" on="0"/>
        <pt x="273" y="837" on="0"/>
        <pt x="307" y="851" on="0"/>
        <pt x="326" y="851" on="1"/>
        <pt x="345" y="851" on="0"/>
        <pt x="379" y="837" on="0"/>
        <pt x="404" y="812" on="0"/>
        <pt x="418" y="778" on="0"/>
      </contour>
      <contour>
        <pt x="369" y="759" on="1"/>
        <pt x="369" y="777" on="0"/>
        <pt x="344" y="803" on="0"/>
        <pt x="326" y="803" on="1"/>
        <pt x="308" y="803" on="0"/>
        <pt x="282" y="777" on="0"/>
        <pt x="282" y="759" on="1"/>
        <pt x="282" y="741" on="0"/>
        <pt x="308" y="716" on="0"/>
        <pt x="326" y="716" on="1"/>
        <pt x="344" y="716" on="0"/>
        <pt x="369" y="741" on="0"/>
      </contour>
    </TTGlyph>
    <TTGlyph name="Aringacute" xMin="26" yMin="0" xMax="619" yMax="1071">
      <contour>
        <pt x="619" y="0" on="1"/>
        <pt x="474" y="0" on="1"/>
        <pt x="416" y="162" on="0"/>
        <pt x="416" y="162" on="1"/>
        <pt x="220" y="162" on="1"/>
        <pt x="207" y="130" on="0"/>
        <pt x="178" y="49" on="0"/>
        <pt x="161" y="0" on="1"/>
        <pt x="26" y="0" on="1"/>
        <pt x="48" y="49" on="0"/>
        <pt x="166" y="364" on="0"/>
        <pt x="265" y="633" on="1"/>
        <pt x="378" y="633" on="1"/>
        <pt x="409" y="548" on="0"/>
        <pt x="464" y="401" on="0"/>
        <pt x="487" y="338" on="1"/>
        <pt x="600" y="35" on="0"/>
      </contour>
      <contour>
        <pt x="383" y="282" on="1"/>
        <pt x="368" y="325" on="0"/>
        <pt x="338" y="409" on="0"/>
        <pt x="323" y="451" on="1"/>
        <pt x="261" y="278" on="0"/>
        <pt x="260" y="282" on="1"/>
      </contour>
      <contour>
        <pt x="418" y="759" on="1"/>
        <pt x="418" y="740" on="0"/>
        <pt x="404" y="706" on="0"/>
        <pt x="379" y="681" on="0"/>
        <pt x="345" y="667" on="0"/>
        <pt x="326" y="667" on="1"/>
        <pt x="307" y="667" on="0"/>
        <pt x="273" y="681" on="0"/>
        <pt x="248" y="706" on="0"/>
        <pt x="234" y="740" on="0"/>
        <pt x="234" y="759" on="1"/>
        <pt x="234" y="778" on="0"/>
        <pt x="248" y="812" on="0"/>
        <pt x="273" y="837" on="0"/>
        <pt x="307" y="851" on="0"/>
        <pt x="326" y="851" on="1"/>
        <pt x="345" y="851" on="0"/>
        <pt x="379" y="837" on="0"/>
        <pt x="404" y="812" on="0"/>
        <pt x="418" y="778" on="0"/>
      </contour>
      <contour>
        <pt x="369" y="759" on="1"/>
        <pt x="369" y="777" on="0"/>
        <pt x="344" y="803" on="0"/>
        <pt x="326" y="803" on="1"/>
        <pt x="308" y="803" on="0"/>
        <pt x="282" y="777" on="0"/>
        <pt x="282" y="759" on="1"/>
        <pt x="282" y="741" on="0"/>
        <pt x="308" y="716" on="0"/>
        <pt x="326" y="716" on="1"/>
        <pt x="344" y="716" on="0"/>
        <pt x="369" y="741" on="0"/>
      </contour>
      <contour>
        <pt x="432" y="1041" on="1"/>
        <pt x="369" y="874" on="1"/>
        <pt x="296" y="894" on="1"/>
        <pt x="345" y="1071" on="1"/>
      </contour>
    </TTGlyph>
    <TTGlyph name="Atilde" xMin="26" yMin="0" xMax="619" yMax="807">
      <contour>
        <pt x="619" y="0" on="1"/>
        <pt x="474" y="0" on="1"/>
        <pt x="416" y="162" on="0"/>
        <pt x="416" y="162" on="1"/>
        <pt x="220" y="162" on="1"/>
        <pt x="207" y="130" on="0"/>
        <pt x="178" y="49" on="0"/>
        <pt x="161" y="0" on="1"/>
        <pt x="26" y="0" on="1"/>
        <pt x="48" y="49" on="0"/>
        <pt x="166" y="364" on="0"/>
        <pt x="265" y="633" on="1"/>
        <pt x="378" y="633" on="1"/>
        <pt x="409" y="548" on="0"/>
        <pt x="464" y="401" on="0"/>
        <pt x="487" y="338" on="1"/>
        <pt x="600" y="35" on="0"/>
      </contour>
      <contour>
        <pt x="383" y="282" on="1"/>
        <pt x="368" y="325" on="0"/>
        <pt x="338" y="409" on="0"/>
        <pt x="323" y="451" on="1"/>
        <pt x="261" y="278" on="0"/>
        <pt x="260" y="282" on="1"/>
      </contour>
      <contour>
        <pt x="517" y="760" on="1"/>
        <pt x="499" y="664" on="0"/>
        <pt x="430" y="664" on="1"/>
        <pt x="377" y="664" on="0"/>
        <pt x="325" y="688" on="1"/>
        <pt x="274" y="713" on="0"/>
        <pt x="247" y="713" on="1"/>
        <pt x="219" y="714" on="0"/>
        <pt x="202" y="669" on="1"/>
        <pt x="136" y="692" on="1"/>
        <pt x="141" y="747" on="0"/>
        <pt x="172" y="778" on="1"/>
        <pt x="197" y="803" on="0"/>
        <pt x="226" y="805" on="1"/>
        <pt x="265" y="807" on="0"/>
        <pt x="321" y="782" on="1"/>
        <pt x="379" y="758" on="0"/>
        <pt x="414" y="758" on="1"/>
        <pt x="441" y="758" on="0"/>
        <pt x="443" y="802" on="1"/>
        <pt x="462" y="792" on="0"/>
        <pt x="498" y="771" on="0"/>
      </contour>
    </TTGlyph>
    <TTGlyph name="B" xMin="59" yMin="0" xMax="574" yMax="623">
      <contour>
        <pt x="571" y="170" on="1"/>
        <pt x="568" y="76" on="0"/>
        <pt x="490" y="33" on="1"/>
        <pt x="434" y="0" on="0"/>
        <pt x="356" y="0" on="1"/>
        <pt x="59" y="0" on="1"/>
        <pt x="69" y="37" on="0"/>
        <pt x="71" y="126" on="1"/>
        <pt x="71" y="308" on="1"/>
        <pt x="71" y="414" on="0"/>
        <pt x="71" y="506" on="0"/>
        <pt x="72" y="493" on="1"/>
        <pt x="71" y="585" on="0"/>
        <pt x="60" y="623" on="1"/>
        <pt x="355" y="623" on="1"/>
        <pt x="431" y="623" on="0"/>
        <pt x="484" y="594" on="1"/>
        <pt x="555" y="553" on="0"/>
        <pt x="554" y="465" on="1"/>
        <pt x="554" y="394" on="0"/>
        <pt x="504" y="353" on="1"/>
        <pt x="466" y="323" on="0"/>
        <pt x="429" y="324" on="1"/>
        <pt x="482" y="321" on="0"/>
        <pt x="522" y="290" on="1"/>
        <pt x="574" y="248" on="0"/>
      </contour>
      <contour>
        <pt x="421" y="454" on="1"/>
        <pt x="421" y="494" on="0"/>
        <pt x="389" y="514" on="1"/>
        <pt x="369" y="525" on="0"/>
        <pt x="347" y="525" on="1"/>
        <pt x="196" y="524" on="1"/>
        <pt x="196" y="377" on="1"/>
        <pt x="347" y="377" on="1"/>
        <pt x="421" y="377" on="0"/>
      </contour>
      <contour>
        <pt x="436" y="185" on="1"/>
        <pt x="436" y="235" on="0"/>
        <pt x="393" y="257" on="1"/>
        <pt x="368" y="270" on="0"/>
        <pt x="342" y="270" on="1"/>
        <pt x="196" y="270" on="1"/>
        <pt x="196" y="104" on="1"/>
        <pt x="351" y="104" on="1"/>
        <pt x="379" y="104" on="0"/>
        <pt x="403" y="119" on="1"/>
        <pt x="436" y="141" on="0"/>
      </contour>
    </TTGlyph>
    <TTGlyph name="Beta" xMin="59" yMin="0" xMax="574" yMax="625">
      <contour>
        <pt x="571" y="170" on="1"/>
        <pt x="568" y="76" on="0"/>
        <pt x="490" y="33" on="1"/>
        <pt x="434" y="0" on="0"/>
        <pt x="356" y="0" on="1"/>
        <pt x="59" y="0" on="1"/>
        <pt x="69" y="37" on="0"/>
        <pt x="71" y="126" on="1"/>
        <pt x="71" y="308" on="1"/>
        <pt x="71" y="414" on="0"/>
        <pt x="71" y="507" on="0"/>
        <pt x="72" y="494" on="1"/>
        <pt x="71" y="587" on="0"/>
        <pt x="60" y="625" on="1"/>
        <pt x="355" y="625" on="1"/>
        <pt x="431" y="625" on="0"/>
        <pt x="484" y="595" on="1"/>
        <pt x="556" y="554" on="0"/>
        <pt x="554" y="465" on="1"/>
        <pt x="554" y="394" on="0"/>
        <pt x="504" y="353" on="1"/>
        <pt x="466" y="323" on="0"/>
        <pt x="429" y="324" on="1"/>
        <pt x="482" y="321" on="0"/>
        <pt x="522" y="290" on="1"/>
        <pt x="574" y="248" on="0"/>
      </contour>
      <contour>
        <pt x="421" y="454" on="1"/>
        <pt x="421" y="486" on="0"/>
        <pt x="379" y="527" on="0"/>
        <pt x="347" y="527" on="1"/>
        <pt x="196" y="526" on="1"/>
        <pt x="196" y="377" on="1"/>
        <pt x="347" y="377" on="1"/>
        <pt x="421" y="377" on="0"/>
      </contour>
      <contour>
        <pt x="436" y="185" on="1"/>
        <pt x="436" y="235" on="0"/>
        <pt x="393" y="257" on="1"/>
        <pt x="368" y="270" on="0"/>
        <pt x="342" y="270" on="1"/>
        <pt x="196" y="270" on="1"/>
        <pt x="196" y="104" on="1"/>
        <pt x="351" y="104" on="1"/>
        <pt x="379" y="104" on="0"/>
        <pt x="403" y="119" on="1"/>
        <pt x="436" y="141" on="0"/>
      </contour>
    </TTGlyph>
    <TTGlyph name="C" xMin="21" yMin="-10" xMax="512" yMax="637">
      <contour>
        <pt x="512" y="179" on="1"/>
        <pt x="505" y="109" on="0"/>
        <pt x="498" y="26" on="0"/>
        <pt x="498" y="13" on="1"/>
        <pt x="472" y="17" on="0"/>
        <pt x="414" y="3" on="1"/>
        <pt x="369" y="-10" on="0"/>
        <pt x="316" y="-10" on="1"/>
        <pt x="293" y="-10" on="0"/>
        <pt x="274" y="-7" on="1"/>
        <pt x="160" y="10" on="0"/>
        <pt x="90" y="103" on="1"/>
        <pt x="21" y="194" on="0"/>
        <pt x="21" y="313" on="1"/>
        <pt x="21" y="452" on="0"/>
        <pt x="100" y="541" on="1"/>
        <pt x="182" y="637" on="0"/>
        <pt x="321" y="637" on="1"/>
        <pt x="346" y="637" on="0"/>
        <pt x="410" y="621" on="1"/>
        <pt x="472" y="607" on="0"/>
        <pt x="492" y="611" on="1"/>
        <pt x="492" y="585" on="0"/>
        <pt x="507" y="452" on="1"/>
        <pt x="429" y="452" on="1"/>
        <pt x="428" y="459" on="0"/>
        <pt x="421" y="477" on="0"/>
        <pt x="416" y="488" on="1"/>
        <pt x="387" y="517" on="0"/>
        <pt x="321" y="515" on="1"/>
        <pt x="257" y="514" on="0"/>
        <pt x="211" y="463" on="1"/>
        <pt x="159" y="407" on="0"/>
        <pt x="159" y="309" on="1"/>
        <pt x="159" y="221" on="0"/>
        <pt x="215" y="165" on="1"/>
        <pt x="267" y="112" on="0"/>
        <pt x="335" y="117" on="1"/>
        <pt x="396" y="122" on="0"/>
        <pt x="417" y="143" on="1"/>
        <pt x="428" y="154" on="0"/>
        <pt x="434" y="179" on="1"/>
      </contour>
    </TTGlyph>
    <TTGlyph name="Cacute" xMin="34" yMin="-10" xMax="525" yMax="868">
      <contour>
        <pt x="525" y="179" on="1"/>
        <pt x="518" y="109" on="0"/>
        <pt x="511" y="26" on="0"/>
        <pt x="511" y="13" on="1"/>
        <pt x="485" y="17" on="0"/>
        <pt x="427" y="3" on="1"/>
        <pt x="382" y="-10" on="0"/>
        <pt x="329" y="-10" on="1"/>
        <pt x="306" y="-10" on="0"/>
        <pt x="287" y="-7" on="1"/>
        <pt x="173" y="10" on="0"/>
        <pt x="103" y="103" on="1"/>
        <pt x="34" y="194" on="0"/>
        <pt x="34" y="313" on="1"/>
        <pt x="34" y="452" on="0"/>
        <pt x="113" y="541" on="1"/>
        <pt x="195" y="637" on="0"/>
        <pt x="334" y="637" on="1"/>
        <pt x="359" y="637" on="0"/>
        <pt x="423" y="621" on="1"/>
        <pt x="485" y="607" on="0"/>
        <pt x="505" y="611" on="1"/>
        <pt x="505" y="585" on="0"/>
        <pt x="520" y="452" on="1"/>
        <pt x="442" y="452" on="1"/>
        <pt x="441" y="459" on="0"/>
        <pt x="434" y="477" on="0"/>
        <pt x="429" y="488" on="1"/>
        <pt x="400" y="517" on="0"/>
        <pt x="334" y="515" on="1"/>
        <pt x="270" y="514" on="0"/>
        <pt x="224" y="463" on="1"/>
        <pt x="172" y="407" on="0"/>
        <pt x="172" y="309" on="1"/>
        <pt x="172" y="221" on="0"/>
        <pt x="228" y="165" on="1"/>
        <pt x="280" y="112" on="0"/>
        <pt x="348" y="117" on="1"/>
        <pt x="409" y="122" on="0"/>
        <pt x="430" y="143" on="1"/>
        <pt x="441" y="154" on="0"/>
        <pt x="447" y="179" on="1"/>
      </contour>
      <contour>
        <pt x="450" y="838" on="1"/>
        <pt x="387" y="671" on="1"/>
        <pt x="314" y="691" on="1"/>
        <pt x="363" y="868" on="1"/>
      </contour>
    </TTGlyph>
    <TTGlyph name="Ccaron" xMin="21" yMin="-10" xMax="512" yMax="847">
      <contour>
        <pt x="512" y="179" on="1"/>
        <pt x="505" y="109" on="0"/>
        <pt x="498" y="26" on="0"/>
        <pt x="498" y="13" on="1"/>
        <pt x="472" y="17" on="0"/>
        <pt x="414" y="3" on="1"/>
        <pt x="369" y="-10" on="0"/>
        <pt x="316" y="-10" on="1"/>
        <pt x="293" y="-10" on="0"/>
        <pt x="274" y="-7" on="1"/>
        <pt x="160" y="10" on="0"/>
        <pt x="90" y="103" on="1"/>
        <pt x="21" y="194" on="0"/>
        <pt x="21" y="313" on="1"/>
        <pt x="21" y="452" on="0"/>
        <pt x="100" y="541" on="1"/>
        <pt x="182" y="637" on="0"/>
        <pt x="321" y="637" on="1"/>
        <pt x="346" y="637" on="0"/>
        <pt x="410" y="621" on="1"/>
        <pt x="472" y="607" on="0"/>
        <pt x="492" y="611" on="1"/>
        <pt x="492" y="585" on="0"/>
        <pt x="507" y="452" on="1"/>
        <pt x="429" y="452" on="1"/>
        <pt x="428" y="459" on="0"/>
        <pt x="421" y="477" on="0"/>
        <pt x="416" y="488" on="1"/>
        <pt x="387" y="517" on="0"/>
        <pt x="321" y="515" on="1"/>
        <pt x="257" y="514" on="0"/>
        <pt x="211" y="463" on="1"/>
        <pt x="159" y="407" on="0"/>
        <pt x="159" y="309" on="1"/>
        <pt x="159" y="221" on="0"/>
        <pt x="215" y="165" on="1"/>
        <pt x="267" y="112" on="0"/>
        <pt x="335" y="117" on="1"/>
        <pt x="396" y="122" on="0"/>
        <pt x="417" y="143" on="1"/>
        <pt x="428" y="154" on="0"/>
        <pt x="434" y="179" on="1"/>
      </contour>
      <contour>
        <pt x="508" y="786" on="1"/>
        <pt x="508" y="786" on="0"/>
        <pt x="453" y="741" on="1"/>
        <pt x="422" y="717" on="0"/>
        <pt x="373" y="679" on="0"/>
        <pt x="353" y="665" on="1"/>
        <pt x="307" y="665" on="1"/>
        <pt x="152" y="786" on="1"/>
        <pt x="201" y="847" on="1"/>
        <pt x="218" y="833" on="0"/>
        <pt x="283" y="784" on="0"/>
        <pt x="331" y="749" on="1"/>
        <pt x="352" y="766" on="0"/>
        <pt x="411" y="813" on="0"/>
        <pt x="449" y="844" on="1"/>
      </contour>
    </TTGlyph>
    <TTGlyph name="Ccedilla" xMin="21" yMin="-200" xMax="512" yMax="637">
      <contour>
        <pt x="347" y="-135" on="1"/>
        <pt x="324" y="-200" on="0"/>
        <pt x="231" y="-193" on="1"/>
        <pt x="186" y="-190" on="0"/>
        <pt x="176" y="-180" on="1"/>
        <pt x="201" y="-110" on="1"/>
        <pt x="214" y="-116" on="0"/>
        <pt x="229" y="-116" on="1"/>
        <pt x="256" y="-116" on="0"/>
        <pt x="261" y="-98" on="1"/>
        <pt x="262" y="-94" on="0"/>
        <pt x="263" y="-88" on="0"/>
        <pt x="263" y="-85" on="1"/>
        <pt x="263" y="-52" on="0"/>
        <pt x="214" y="-48" on="1"/>
        <pt x="211" y="-48" on="0"/>
        <pt x="238" y="0" on="1"/>
        <pt x="140" y="29" on="0"/>
        <pt x="79" y="118" on="1"/>
        <pt x="21" y="204" on="0"/>
        <pt x="21" y="313" on="1"/>
        <pt x="21" y="452" on="0"/>
        <pt x="100" y="541" on="1"/>
        <pt x="182" y="637" on="0"/>
        <pt x="321" y="637" on="1"/>
        <pt x="346" y="637" on="0"/>
        <pt x="410" y="621" on="1"/>
        <pt x="472" y="607" on="0"/>
        <pt x="492" y="611" on="1"/>
        <pt x="492" y="585" on="0"/>
        <pt x="507" y="452" on="1"/>
        <pt x="429" y="452" on="1"/>
        <pt x="428" y="459" on="0"/>
        <pt x="421" y="477" on="0"/>
        <pt x="416" y="488" on="1"/>
        <pt x="387" y="517" on="0"/>
        <pt x="321" y="515" on="1"/>
        <pt x="257" y="514" on="0"/>
        <pt x="211" y="463" on="1"/>
        <pt x="159" y="407" on="0"/>
        <pt x="159" y="309" on="1"/>
        <pt x="159" y="221" on="0"/>
        <pt x="215" y="165" on="1"/>
        <pt x="267" y="112" on="0"/>
        <pt x="335" y="117" on="1"/>
        <pt x="396" y="122" on="0"/>
        <pt x="417" y="143" on="1"/>
        <pt x="428" y="154" on="0"/>
        <pt x="434" y="179" on="1"/>
        <pt x="512" y="179" on="1"/>
        <pt x="505" y="109" on="0"/>
        <pt x="498" y="26" on="0"/>
        <pt x="498" y="13" on="1"/>
        <pt x="472" y="17" on="0"/>
        <pt x="414" y="3" on="1"/>
        <pt x="392" y="-3" on="0"/>
        <pt x="345" y="-9" on="0"/>
        <pt x="320" y="-10" on="1"/>
        <pt x="310" y="-29" on="1"/>
        <pt x="354" y="-46" on="0"/>
        <pt x="354" y="-97" on="1"/>
        <pt x="354" y="-117" on="0"/>
      </contour>
    </TTGlyph>
    <TTGlyph name="Ccircumflex" xMin="15" yMin="-4" xMax="506" yMax="847">
      <contour>
        <pt x="506" y="185" on="1"/>
        <pt x="499" y="115" on="0"/>
        <pt x="492" y="32" on="0"/>
        <pt x="492" y="19" on="1"/>
        <pt x="466" y="23" on="0"/>
        <pt x="408" y="9" on="1"/>
        <pt x="363" y="-4" on="0"/>
        <pt x="310" y="-4" on="1"/>
        <pt x="287" y="-4" on="0"/>
        <pt x="268" y="-1" on="1"/>
        <pt x="154" y="16" on="0"/>
        <pt x="84" y="109" on="1"/>
        <pt x="15" y="200" on="0"/>
        <pt x="15" y="319" on="1"/>
        <pt x="15" y="458" on="0"/>
        <pt x="94" y="547" on="1"/>
        <pt x="176" y="643" on="0"/>
        <pt x="315" y="643" on="1"/>
        <pt x="340" y="643" on="0"/>
        <pt x="404" y="627" on="1"/>
        <pt x="466" y="613" on="0"/>
        <pt x="486" y="617" on="1"/>
        <pt x="486" y="591" on="0"/>
        <pt x="501" y="458" on="1"/>
        <pt x="423" y="458" on="1"/>
        <pt x="422" y="465" on="0"/>
        <pt x="415" y="483" on="0"/>
        <pt x="410" y="494" on="1"/>
        <pt x="381" y="523" on="0"/>
        <pt x="315" y="521" on="1"/>
        <pt x="251" y="520" on="0"/>
        <pt x="205" y="469" on="1"/>
        <pt x="153" y="413" on="0"/>
        <pt x="153" y="315" on="1"/>
        <pt x="153" y="227" on="0"/>
        <pt x="209" y="171" on="1"/>
        <pt x="261" y="118" on="0"/>
        <pt x="329" y="123" on="1"/>
        <pt x="390" y="128" on="0"/>
        <pt x="411" y="149" on="1"/>
        <pt x="422" y="160" on="0"/>
        <pt x="428" y="185" on="1"/>
      </contour>
      <contour>
        <pt x="493" y="723" on="1"/>
        <pt x="434" y="665" on="1"/>
        <pt x="412" y="681" on="0"/>
        <pt x="353" y="723" on="0"/>
        <pt x="315" y="750" on="1"/>
        <pt x="294" y="736" on="0"/>
        <pt x="230" y="692" on="0"/>
        <pt x="186" y="662" on="1"/>
        <pt x="137" y="723" on="1"/>
        <pt x="314" y="847" on="1"/>
        <pt x="359" y="816" on="0"/>
        <pt x="448" y="755" on="0"/>
      </contour>
    </TTGlyph>
    <TTGlyph name="Cdotaccent" xMin="21" yMin="-10" xMax="512" yMax="779">
      <contour>
        <pt x="512" y="179" on="1"/>
        <pt x="505" y="109" on="0"/>
        <pt x="498" y="26" on="0"/>
        <pt x="498" y="13" on="1"/>
        <pt x="472" y="17" on="0"/>
        <pt x="414" y="3" on="1"/>
        <pt x="369" y="-10" on="0"/>
        <pt x="316" y="-10" on="1"/>
        <pt x="293" y="-10" on="0"/>
        <pt x="274" y="-7" on="1"/>
        <pt x="160" y="10" on="0"/>
        <pt x="90" y="103" on="1"/>
        <pt x="21" y="194" on="0"/>
        <pt x="21" y="313" on="1"/>
        <pt x="21" y="452" on="0"/>
        <pt x="100" y="541" on="1"/>
        <pt x="182" y="637" on="0"/>
        <pt x="321" y="637" on="1"/>
        <pt x="346" y="637" on="0"/>
        <pt x="410" y="621" on="1"/>
        <pt x="472" y="607" on="0"/>
        <pt x="492" y="611" on="1"/>
        <pt x="492" y="585" on="0"/>
        <pt x="507" y="452" on="1"/>
        <pt x="429" y="452" on="1"/>
        <pt x="428" y="459" on="0"/>
        <pt x="421" y="477" on="0"/>
        <pt x="416" y="488" on="1"/>
        <pt x="387" y="517" on="0"/>
        <pt x="321" y="515" on="1"/>
        <pt x="257" y="514" on="0"/>
        <pt x="211" y="463" on="1"/>
        <pt x="159" y="407" on="0"/>
        <pt x="159" y="309" on="1"/>
        <pt x="159" y="221" on="0"/>
        <pt x="215" y="165" on="1"/>
        <pt x="267" y="112" on="0"/>
        <pt x="335" y="117" on="1"/>
        <pt x="396" y="122" on="0"/>
        <pt x="417" y="143" on="1"/>
        <pt x="428" y="154" on="0"/>
        <pt x="434" y="179" on="1"/>
      </contour>
      <contour>
        <pt x="387" y="724" on="1"/>
        <pt x="387" y="701" on="0"/>
        <pt x="355" y="669" on="0"/>
        <pt x="332" y="669" on="1"/>
        <pt x="309" y="669" on="0"/>
        <pt x="277" y="701" on="0"/>
        <pt x="277" y="724" on="1"/>
        <pt x="277" y="747" on="0"/>
        <pt x="309" y="779" on="0"/>
        <pt x="332" y="779" on="1"/>
        <pt x="355" y="779" on="0"/>
        <pt x="387" y="747" on="0"/>
      </contour>
    </TTGlyph>
    <TTGlyph name="Chi" xMin="8" yMin="0" xMax="663" yMax="626">
      <contour>
        <pt x="663" y="0" on="1"/>
        <pt x="489" y="0" on="1"/>
        <pt x="484" y="13" on="0"/>
        <pt x="461" y="59" on="0"/>
        <pt x="442" y="94" on="1"/>
        <pt x="344" y="245" on="1"/>
        <pt x="233" y="90" on="1"/>
        <pt x="203" y="48" on="0"/>
        <pt x="184" y="0" on="1"/>
        <pt x="8" y="0" on="1"/>
        <pt x="57" y="60" on="0"/>
        <pt x="190" y="223" on="0"/>
        <pt x="275" y="326" on="1"/>
        <pt x="246" y="366" on="0"/>
        <pt x="197" y="436" on="0"/>
        <pt x="175" y="465" on="1"/>
        <pt x="121" y="537" on="0"/>
        <pt x="57" y="617" on="0"/>
        <pt x="44" y="626" on="1"/>
        <pt x="227" y="626" on="1"/>
        <pt x="232" y="615" on="0"/>
        <pt x="258" y="567" on="0"/>
        <pt x="280" y="529" on="1"/>
        <pt x="348" y="419" on="1"/>
        <pt x="415" y="526" on="1"/>
        <pt x="440" y="565" on="0"/>
        <pt x="460" y="626" on="1"/>
        <pt x="633" y="626" on="1"/>
        <pt x="610" y="599" on="0"/>
        <pt x="504" y="454" on="0"/>
        <pt x="420" y="336" on="1"/>
      </contour>
    </TTGlyph>
    <TTGlyph name="D" xMin="59" yMin="0" xMax="633" yMax="623">
      <contour>
        <pt x="633" y="302" on="1"/>
        <pt x="633" y="171" on="0"/>
        <pt x="547" y="85" on="1"/>
        <pt x="462" y="0" on="0"/>
        <pt x="303" y="0" on="1"/>
        <pt x="59" y="0" on="1"/>
        <pt x="66" y="27" on="0"/>
        <pt x="68" y="75" on="1"/>
        <pt x="71" y="123" on="0"/>
        <pt x="71" y="312" on="1"/>
        <pt x="71" y="409" on="0"/>
        <pt x="69" y="541" on="0"/>
        <pt x="67" y="576" on="1"/>
        <pt x="66" y="606" on="0"/>
        <pt x="61" y="623" on="1"/>
        <pt x="312" y="623" on="1"/>
        <pt x="387" y="623" on="0"/>
        <pt x="521" y="572" on="0"/>
        <pt x="560" y="527" on="1"/>
        <pt x="633" y="444" on="0"/>
      </contour>
      <contour>
        <pt x="495" y="303" on="1"/>
        <pt x="495" y="406" on="0"/>
        <pt x="437" y="467" on="1"/>
        <pt x="390" y="515" on="0"/>
        <pt x="306" y="515" on="1"/>
        <pt x="199" y="515" on="1"/>
        <pt x="199" y="504" on="0"/>
        <pt x="199" y="453" on="0"/>
        <pt x="198" y="413" on="1"/>
        <pt x="197" y="381" on="0"/>
        <pt x="197" y="331" on="0"/>
        <pt x="197" y="312" on="1"/>
        <pt x="197" y="266" on="0"/>
        <pt x="198" y="163" on="0"/>
        <pt x="199" y="104" on="1"/>
        <pt x="302" y="104" on="1"/>
        <pt x="390" y="104" on="0"/>
        <pt x="442" y="159" on="1"/>
        <pt x="495" y="215" on="0"/>
      </contour>
    </TTGlyph>
    <TTGlyph name="Dcaron" xMin="59" yMin="0" xMax="633" yMax="847">
      <contour>
        <pt x="633" y="302" on="1"/>
        <pt x="633" y="171" on="0"/>
        <pt x="547" y="85" on="1"/>
        <pt x="462" y="0" on="0"/>
        <pt x="303" y="0" on="1"/>
        <pt x="59" y="0" on="1"/>
        <pt x="66" y="27" on="0"/>
        <pt x="68" y="75" on="1"/>
        <pt x="71" y="123" on="0"/>
        <pt x="71" y="312" on="1"/>
        <pt x="71" y="409" on="0"/>
        <pt x="69" y="541" on="0"/>
        <pt x="67" y="576" on="1"/>
        <pt x="66" y="606" on="0"/>
        <pt x="61" y="623" on="1"/>
        <pt x="312" y="623" on="1"/>
        <pt x="387" y="623" on="0"/>
        <pt x="521" y="572" on="0"/>
        <pt x="560" y="527" on="1"/>
        <pt x="633" y="444" on="0"/>
      </contour>
      <contour>
        <pt x="495" y="303" on="1"/>
        <pt x="495" y="406" on="0"/>
        <pt x="437" y="467" on="1"/>
        <pt x="390" y="515" on="0"/>
        <pt x="306" y="515" on="1"/>
        <pt x="199" y="515" on="1"/>
        <pt x="199" y="504" on="0"/>
        <pt x="199" y="453" on="0"/>
        <pt x="198" y="413" on="1"/>
        <pt x="197" y="381" on="0"/>
        <pt x="197" y="331" on="0"/>
        <pt x="197" y="312" on="1"/>
        <pt x="197" y="266" on="0"/>
        <pt x="198" y="163" on="0"/>
        <pt x="199" y="104" on="1"/>
        <pt x="302" y="104" on="1"/>
        <pt x="390" y="104" on="0"/>
        <pt x="442" y="159" on="1"/>
        <pt x="495" y="215" on="0"/>
      </contour>
      <contour>
        <pt x="488" y="786" on="1"/>
        <pt x="488" y="786" on="0"/>
        <pt x="433" y="741" on="1"/>
        <pt x="402" y="717" on="0"/>
        <pt x="353" y="679" on="0"/>
        <pt x="333" y="665" on="1"/>
        <pt x="287" y="665" on="1"/>
        <pt x="132" y="786" on="1"/>
        <pt x="181" y="847" on="1"/>
        <pt x="198" y="833" on="0"/>
        <pt x="263" y="784" on="0"/>
        <pt x="311" y="749" on="1"/>
        <pt x="332" y="766" on="0"/>
        <pt x="391" y="813" on="0"/>
        <pt x="429" y="844" on="1"/>
      </contour>
    </TTGlyph>
    <TTGlyph name="Delta" xMin="26" yMin="0" xMax="619" yMax="633">
      <contour>
        <pt x="619" y="0" on="1"/>
        <pt x="26" y="0" on="1"/>
        <pt x="48" y="49" on="0"/>
        <pt x="167" y="364" on="0"/>
        <pt x="265" y="633" on="1"/>
        <pt x="378" y="633" on="1"/>
        <pt x="409" y="548" on="0"/>
        <pt x="464" y="401" on="0"/>
        <pt x="487" y="338" on="1"/>
        <pt x="600" y="35" on="0"/>
      </contour>
      <contour>
        <pt x="436" y="104" on="1"/>
        <pt x="408" y="192" on="0"/>
        <pt x="352" y="364" on="0"/>
        <pt x="323" y="451" on="1"/>
        <pt x="199" y="101" on="0"/>
        <pt x="198" y="104" on="1"/>
      </contour>
    </TTGlyph>
    <TTGlyph name="Dmacron" xMin="8" yMin="0" xMax="633" yMax="625">
      <contour>
        <pt x="633" y="302" on="1"/>
        <pt x="633" y="171" on="0"/>
        <pt x="547" y="85" on="1"/>
        <pt x="462" y="0" on="0"/>
        <pt x="303" y="0" on="1"/>
        <pt x="59" y="0" on="1"/>
        <pt x="71" y="46" on="0"/>
        <pt x="71" y="200" on="1"/>
        <pt x="71" y="240" on="1"/>
        <pt x="71" y="280" on="1"/>
        <pt x="8" y="280" on="1"/>
        <pt x="8" y="353" on="1"/>
        <pt x="71" y="353" on="1"/>
        <pt x="71" y="417" on="1"/>
        <pt x="71" y="537" on="0"/>
        <pt x="68" y="578" on="1"/>
        <pt x="67" y="592" on="0"/>
        <pt x="63" y="616" on="0"/>
        <pt x="61" y="625" on="1"/>
        <pt x="312" y="625" on="1"/>
        <pt x="387" y="625" on="0"/>
        <pt x="521" y="574" on="0"/>
        <pt x="560" y="529" on="1"/>
        <pt x="633" y="446" on="0"/>
      </contour>
      <contour>
        <pt x="495" y="303" on="1"/>
        <pt x="495" y="408" on="0"/>
        <pt x="437" y="469" on="1"/>
        <pt x="390" y="517" on="0"/>
        <pt x="306" y="517" on="1"/>
        <pt x="199" y="517" on="1"/>
        <pt x="199" y="503" on="0"/>
        <pt x="199" y="464" on="0"/>
        <pt x="198" y="441" on="1"/>
        <pt x="197" y="415" on="0"/>
        <pt x="196" y="376" on="0"/>
        <pt x="196" y="365" on="1"/>
        <pt x="196" y="353" on="1"/>
        <pt x="361" y="353" on="1"/>
        <pt x="361" y="280" on="1"/>
        <pt x="196" y="280" on="1"/>
        <pt x="196" y="263" on="0"/>
        <pt x="196" y="225" on="0"/>
        <pt x="197" y="203" on="1"/>
        <pt x="199" y="104" on="1"/>
        <pt x="302" y="104" on="1"/>
        <pt x="390" y="104" on="0"/>
        <pt x="442" y="159" on="1"/>
        <pt x="495" y="215" on="0"/>
      </contour>
    </TTGlyph>
    <TTGlyph name="E" xMin="59" yMin="-4" xMax="546" yMax="629">
      <contour>
        <pt x="546" y="-3" on="1"/>
        <pt x="472" y="0" on="0"/>
        <pt x="360" y="3" on="0"/>
        <pt x="320" y="2" on="1"/>
        <pt x="228" y="2" on="0"/>
        <pt x="59" y="-4" on="1"/>
        <pt x="70" y="37" on="0"/>
        <pt x="70" y="324" on="1"/>
        <pt x="70" y="596" on="0"/>
        <pt x="60" y="629" on="1"/>
        <pt x="110" y="626" on="0"/>
        <pt x="295" y="623" on="1"/>
        <pt x="335" y="622" on="0"/>
        <pt x="447" y="625" on="0"/>
        <pt x="522" y="628" on="1"/>
        <pt x="516" y="577" on="0"/>
        <pt x="522" y="491" on="1"/>
        <pt x="442" y="491" on="1"/>
        <pt x="440" y="507" on="0"/>
        <pt x="440" y="507" on="1"/>
        <pt x="440" y="510" on="0"/>
        <pt x="434" y="516" on="1"/>
        <pt x="430" y="523" on="0"/>
        <pt x="370" y="523" on="1"/>
        <pt x="195" y="523" on="1"/>
        <pt x="193" y="485" on="0"/>
        <pt x="195" y="375" on="1"/>
        <pt x="412" y="375" on="0"/>
        <pt x="445" y="389" on="1"/>
        <pt x="445" y="266" on="1"/>
        <pt x="398" y="281" on="0"/>
        <pt x="195" y="278" on="1"/>
        <pt x="194" y="104" on="1"/>
        <pt x="395" y="104" on="1"/>
        <pt x="449" y="104" on="0"/>
        <pt x="458" y="116" on="1"/>
        <pt x="464" y="125" on="0"/>
        <pt x="467" y="147" on="1"/>
        <pt x="546" y="147" on="1"/>
        <pt x="541" y="45" on="0"/>
      </contour>
    </TTGlyph>
    <TTGlyph name="Eacute" xMin="59" yMin="-4" xMax="546" yMax="865">
      <contour>
        <pt x="546" y="-3" on="1"/>
        <pt x="472" y="0" on="0"/>
        <pt x="360" y="3" on="0"/>
        <pt x="320" y="2" on="1"/>
        <pt x="228" y="2" on="0"/>
        <pt x="59" y="-4" on="1"/>
        <pt x="70" y="37" on="0"/>
        <pt x="70" y="324" on="1"/>
        <pt x="70" y="596" on="0"/>
        <pt x="60" y="629" on="1"/>
        <pt x="110" y="626" on="0"/>
        <pt x="295" y="623" on="1"/>
        <pt x="335" y="622" on="0"/>
        <pt x="447" y="625" on="0"/>
        <pt x="522" y="628" on="1"/>
        <pt x="516" y="577" on="0"/>
        <pt x="522" y="491" on="1"/>
        <pt x="442" y="491" on="1"/>
        <pt x="440" y="507" on="0"/>
        <pt x="440" y="507" on="1"/>
        <pt x="440" y="510" on="0"/>
        <pt x="434" y="516" on="1"/>
        <pt x="430" y="523" on="0"/>
        <pt x="370" y="523" on="1"/>
        <pt x="195" y="523" on="1"/>
        <pt x="193" y="485" on="0"/>
        <pt x="195" y="375" on="1"/>
        <pt x="412" y="375" on="0"/>
        <pt x="445" y="389" on="1"/>
        <pt x="445" y="266" on="1"/>
        <pt x="398" y="281" on="0"/>
        <pt x="195" y="278" on="1"/>
        <pt x="194" y="104" on="1"/>
        <pt x="395" y="104" on="1"/>
        <pt x="449" y="104" on="0"/>
        <pt x="458" y="116" on="1"/>
        <pt x="464" y="125" on="0"/>
        <pt x="467" y="147" on="1"/>
        <pt x="546" y="147" on="1"/>
        <pt x="541" y="45" on="0"/>
      </contour>
      <contour>
        <pt x="372" y="835" on="1"/>
        <pt x="309" y="668" on="1"/>
        <pt x="236" y="688" on="1"/>
        <pt x="285" y="865" on="1"/>
      </contour>
    </TTGlyph>
    <TTGlyph name="Ebreve" xMin="59" yMin="-4" xMax="546" yMax="814">
      <contour>
        <pt x="546" y="-3" on="1"/>
        <pt x="472" y="0" on="0"/>
        <pt x="360" y="3" on="0"/>
        <pt x="320" y="2" on="1"/>
        <pt x="228" y="2" on="0"/>
        <pt x="59" y="-4" on="1"/>
        <pt x="70" y="37" on="0"/>
        <pt x="70" y="324" on="1"/>
        <pt x="70" y="596" on="0"/>
        <pt x="60" y="629" on="1"/>
        <pt x="110" y="626" on="0"/>
        <pt x="295" y="623" on="1"/>
        <pt x="335" y="622" on="0"/>
        <pt x="447" y="625" on="0"/>
        <pt x="522" y="628" on="1"/>
        <pt x="516" y="577" on="0"/>
        <pt x="522" y="491" on="1"/>
        <pt x="442" y="491" on="1"/>
        <pt x="440" y="507" on="0"/>
        <pt x="440" y="507" on="1"/>
        <pt x="440" y="510" on="0"/>
        <pt x="434" y="516" on="1"/>
        <pt x="430" y="523" on="0"/>
        <pt x="370" y="523" on="1"/>
        <pt x="195" y="523" on="1"/>
        <pt x="193" y="485" on="0"/>
        <pt x="195" y="375" on="1"/>
        <pt x="412" y="375" on="0"/>
        <pt x="445" y="389" on="1"/>
        <pt x="445" y="266" on="1"/>
        <pt x="398" y="281" on="0"/>
        <pt x="195" y="278" on="1"/>
        <pt x="194" y="104" on="1"/>
        <pt x="395" y="104" on="1"/>
        <pt x="449" y="104" on="0"/>
        <pt x="458" y="116" on="1"/>
        <pt x="464" y="125" on="0"/>
        <pt x="467" y="147" on="1"/>
        <pt x="546" y="147" on="1"/>
        <pt x="541" y="45" on="0"/>
      </contour>
      <contour>
        <pt x="444" y="776" on="1"/>
        <pt x="406" y="722" on="0"/>
        <pt x="379" y="702" on="1"/>
        <pt x="341" y="673" on="0"/>
        <pt x="288" y="673" on="1"/>
        <pt x="235" y="673" on="0"/>
        <pt x="197" y="701" on="1"/>
        <pt x="168" y="722" on="0"/>
        <pt x="128" y="776" on="1"/>
        <pt x="170" y="814" on="1"/>
        <pt x="190" y="790" on="0"/>
        <pt x="218" y="760" on="0"/>
        <pt x="225" y="754" on="1"/>
        <pt x="253" y="729" on="0"/>
        <pt x="288" y="729" on="1"/>
        <pt x="326" y="729" on="0"/>
        <pt x="356" y="756" on="1"/>
        <pt x="364" y="763" on="0"/>
        <pt x="387" y="791" on="0"/>
        <pt x="403" y="813" on="1"/>
      </contour>
    </TTGlyph>
    <TTGlyph name="Ecaron" xMin="59" yMin="-4" xMax="546" yMax="851">
      <contour>
        <pt x="546" y="-3" on="1"/>
        <pt x="472" y="0" on="0"/>
        <pt x="360" y="3" on="0"/>
        <pt x="320" y="2" on="1"/>
        <pt x="228" y="2" on="0"/>
        <pt x="59" y="-4" on="1"/>
        <pt x="70" y="37" on="0"/>
        <pt x="70" y="324" on="1"/>
        <pt x="70" y="596" on="0"/>
        <pt x="60" y="629" on="1"/>
        <pt x="110" y="626" on="0"/>
        <pt x="295" y="623" on="1"/>
        <pt x="335" y="622" on="0"/>
        <pt x="447" y="625" on="0"/>
        <pt x="522" y="628" on="1"/>
        <pt x="516" y="577" on="0"/>
        <pt x="522" y="491" on="1"/>
        <pt x="442" y="491" on="1"/>
        <pt x="440" y="507" on="0"/>
        <pt x="440" y="507" on="1"/>
        <pt x="440" y="510" on="0"/>
        <pt x="434" y="516" on="1"/>
        <pt x="430" y="523" on="0"/>
        <pt x="370" y="523" on="1"/>
        <pt x="195" y="523" on="1"/>
        <pt x="193" y="485" on="0"/>
        <pt x="195" y="375" on="1"/>
        <pt x="412" y="375" on="0"/>
        <pt x="445" y="389" on="1"/>
        <pt x="445" y="266" on="1"/>
        <pt x="398" y="281" on="0"/>
        <pt x="195" y="278" on="1"/>
        <pt x="194" y="104" on="1"/>
        <pt x="395" y="104" on="1"/>
        <pt x="449" y="104" on="0"/>
        <pt x="458" y="116" on="1"/>
        <pt x="464" y="125" on="0"/>
        <pt x="467" y="147" on="1"/>
        <pt x="546" y="147" on="1"/>
        <pt x="541" y="45" on="0"/>
      </contour>
      <contour>
        <pt x="472" y="790" on="1"/>
        <pt x="472" y="790" on="0"/>
        <pt x="417" y="745" on="1"/>
        <pt x="386" y="721" on="0"/>
        <pt x="337" y="683" on="0"/>
        <pt x="317" y="669" on="1"/>
        <pt x="271" y="669" on="1"/>
        <pt x="116" y="790" on="1"/>
        <pt x="165" y="851" on="1"/>
        <pt x="182" y="837" on="0"/>
        <pt x="247" y="788" on="0"/>
        <pt x="295" y="753" on="1"/>
        <pt x="316" y="770" on="0"/>
        <pt x="375" y="817" on="0"/>
        <pt x="413" y="848" on="1"/>
      </contour>
    </TTGlyph>
    <TTGlyph name="Ecircumflex" xMin="59" yMin="-4" xMax="546" yMax="856">
      <contour>
        <pt x="546" y="-3" on="1"/>
        <pt x="472" y="0" on="0"/>
        <pt x="360" y="3" on="0"/>
        <pt x="320" y="2" on="1"/>
        <pt x="228" y="2" on="0"/>
        <pt x="59" y="-4" on="1"/>
        <pt x="70" y="37" on="0"/>
        <pt x="70" y="324" on="1"/>
        <pt x="70" y="596" on="0"/>
        <pt x="60" y="629" on="1"/>
        <pt x="110" y="626" on="0"/>
        <pt x="295" y="623" on="1"/>
        <pt x="335" y="622" on="0"/>
        <pt x="447" y="625" on="0"/>
        <pt x="522" y="628" on="1"/>
        <pt x="516" y="577" on="0"/>
        <pt x="522" y="491" on="1"/>
        <pt x="442" y="491" on="1"/>
        <pt x="440" y="507" on="0"/>
        <pt x="440" y="507" on="1"/>
        <pt x="440" y="510" on="0"/>
        <pt x="434" y="516" on="1"/>
        <pt x="430" y="523" on="0"/>
        <pt x="370" y="523" on="1"/>
        <pt x="195" y="523" on="1"/>
        <pt x="193" y="485" on="0"/>
        <pt x="195" y="375" on="1"/>
        <pt x="412" y="375" on="0"/>
        <pt x="445" y="389" on="1"/>
        <pt x="445" y="266" on="1"/>
        <pt x="398" y="281" on="0"/>
        <pt x="195" y="278" on="1"/>
        <pt x="194" y="104" on="1"/>
        <pt x="395" y="104" on="1"/>
        <pt x="449" y="104" on="0"/>
        <pt x="458" y="116" on="1"/>
        <pt x="464" y="125" on="0"/>
        <pt x="467" y="147" on="1"/>
        <pt x="546" y="147" on="1"/>
        <pt x="541" y="45" on="0"/>
      </contour>
      <contour>
        <pt x="470" y="732" on="1"/>
        <pt x="411" y="674" on="1"/>
        <pt x="389" y="690" on="0"/>
        <pt x="330" y="732" on="0"/>
        <pt x="292" y="759" on="1"/>
        <pt x="271" y="745" on="0"/>
        <pt x="207" y="701" on="0"/>
        <pt x="163" y="671" on="1"/>
        <pt x="114" y="732" on="1"/>
        <pt x="291" y="856" on="1"/>
        <pt x="336" y="825" on="0"/>
        <pt x="425" y="764" on="0"/>
      </contour>
    </TTGlyph>
    <TTGlyph name="Edieresis" xMin="59" yMin="-4" xMax="546" yMax="775">
      <contour>
        <pt x="444" y="720" on="1"/>
        <pt x="444" y="700" on="0"/>
        <pt x="414" y="667" on="0"/>
        <pt x="392" y="667" on="1"/>
        <pt x="371" y="667" on="0"/>
        <pt x="341" y="699" on="0"/>
        <pt x="341" y="720" on="1"/>
        <pt x="341" y="741" on="0"/>
        <pt x="371" y="774" on="0"/>
        <pt x="392" y="774" on="1"/>
        <pt x="413" y="774" on="0"/>
        <pt x="444" y="741" on="0"/>
      </contour>
      <contour>
        <pt x="253" y="722" on="1"/>
        <pt x="253" y="702" on="0"/>
        <pt x="221" y="670" on="0"/>
        <pt x="200" y="670" on="1"/>
        <pt x="178" y="670" on="0"/>
        <pt x="146" y="701" on="0"/>
        <pt x="146" y="722" on="1"/>
        <pt x="146" y="743" on="0"/>
        <pt x="178" y="775" on="0"/>
        <pt x="200" y="775" on="1"/>
        <pt x="221" y="775" on="0"/>
        <pt x="253" y="742" on="0"/>
      </contour>
      <contour>
        <pt x="546" y="-3" on="1"/>
        <pt x="472" y="0" on="0"/>
        <pt x="360" y="3" on="0"/>
        <pt x="320" y="2" on="1"/>
        <pt x="228" y="2" on="0"/>
        <pt x="59" y="-4" on="1"/>
        <pt x="70" y="37" on="0"/>
        <pt x="70" y="324" on="1"/>
        <pt x="70" y="596" on="0"/>
        <pt x="60" y="629" on="1"/>
        <pt x="110" y="626" on="0"/>
        <pt x="295" y="623" on="1"/>
        <pt x="335" y="622" on="0"/>
        <pt x="447" y="625" on="0"/>
        <pt x="522" y="628" on="1"/>
        <pt x="516" y="577" on="0"/>
        <pt x="522" y="491" on="1"/>
        <pt x="442" y="491" on="1"/>
        <pt x="440" y="507" on="0"/>
        <pt x="440" y="507" on="1"/>
        <pt x="440" y="510" on="0"/>
        <pt x="434" y="516" on="1"/>
        <pt x="430" y="523" on="0"/>
        <pt x="370" y="523" on="1"/>
        <pt x="195" y="523" on="1"/>
        <pt x="193" y="485" on="0"/>
        <pt x="195" y="375" on="1"/>
        <pt x="412" y="375" on="0"/>
        <pt x="445" y="389" on="1"/>
        <pt x="445" y="266" on="1"/>
        <pt x="398" y="281" on="0"/>
        <pt x="195" y="278" on="1"/>
        <pt x="194" y="104" on="1"/>
        <pt x="395" y="104" on="1"/>
        <pt x="449" y="104" on="0"/>
        <pt x="458" y="116" on="1"/>
        <pt x="464" y="125" on="0"/>
        <pt x="467" y="147" on="1"/>
        <pt x="546" y="147" on="1"/>
        <pt x="541" y="45" on="0"/>
      </contour>
    </TTGlyph>
    <TTGlyph name="Edotaccent" xMin="59" yMin="-4" xMax="546" yMax="780">
      <contour>
        <pt x="546" y="-3" on="1"/>
        <pt x="472" y="0" on="0"/>
        <pt x="360" y="3" on="0"/>
        <pt x="320" y="2" on="1"/>
        <pt x="228" y="2" on="0"/>
        <pt x="59" y="-4" on="1"/>
        <pt x="70" y="37" on="0"/>
        <pt x="70" y="324" on="1"/>
        <pt x="70" y="596" on="0"/>
        <pt x="60" y="629" on="1"/>
        <pt x="110" y="626" on="0"/>
        <pt x="295" y="623" on="1"/>
        <pt x="335" y="622" on="0"/>
        <pt x="447" y="625" on="0"/>
        <pt x="522" y="628" on="1"/>
        <pt x="516" y="577" on="0"/>
        <pt x="522" y="491" on="1"/>
        <pt x="442" y="491" on="1"/>
        <pt x="440" y="507" on="0"/>
        <pt x="440" y="507" on="1"/>
        <pt x="440" y="510" on="0"/>
        <pt x="434" y="516" on="1"/>
        <pt x="430" y="523" on="0"/>
        <pt x="370" y="523" on="1"/>
        <pt x="195" y="523" on="1"/>
        <pt x="193" y="485" on="0"/>
        <pt x="195" y="375" on="1"/>
        <pt x="412" y="375" on="0"/>
        <pt x="445" y="389" on="1"/>
        <pt x="445" y="266" on="1"/>
        <pt x="398" y="281" on="0"/>
        <pt x="195" y="278" on="1"/>
        <pt x="194" y="104" on="1"/>
        <pt x="395" y="104" on="1"/>
        <pt x="449" y="104" on="0"/>
        <pt x="458" y="116" on="1"/>
        <pt x="464" y="125" on="0"/>
        <pt x="467" y="147" on="1"/>
        <pt x="546" y="147" on="1"/>
        <pt x="541" y="45" on="0"/>
      </contour>
      <contour>
        <pt x="359" y="725" on="1"/>
        <pt x="359" y="702" on="0"/>
        <pt x="327" y="670" on="0"/>
        <pt x="304" y="670" on="1"/>
        <pt x="281" y="670" on="0"/>
        <pt x="249" y="702" on="0"/>
        <pt x="249" y="725" on="1"/>
        <pt x="249" y="748" on="0"/>
        <pt x="281" y="780" on="0"/>
        <pt x="304" y="780" on="1"/>
        <pt x="327" y="780" on="0"/>
        <pt x="359" y="748" on="0"/>
      </contour>
    </TTGlyph>
    <TTGlyph name="Egrave" xMin="51" yMin="-4" xMax="538" yMax="863">
      <contour>
        <pt x="538" y="-3" on="1"/>
        <pt x="464" y="0" on="0"/>
        <pt x="352" y="3" on="0"/>
        <pt x="312" y="2" on="1"/>
        <pt x="220" y="2" on="0"/>
        <pt x="51" y="-4" on="1"/>
        <pt x="62" y="37" on="0"/>
        <pt x="62" y="324" on="1"/>
        <pt x="62" y="596" on="0"/>
        <pt x="52" y="629" on="1"/>
        <pt x="102" y="626" on="0"/>
        <pt x="287" y="623" on="1"/>
        <pt x="327" y="622" on="0"/>
        <pt x="439" y="625" on="0"/>
        <pt x="514" y="628" on="1"/>
        <pt x="508" y="577" on="0"/>
        <pt x="514" y="491" on="1"/>
        <pt x="434" y="491" on="1"/>
        <pt x="432" y="507" on="0"/>
        <pt x="432" y="507" on="1"/>
        <pt x="432" y="510" on="0"/>
        <pt x="426" y="516" on="1"/>
        <pt x="422" y="523" on="0"/>
        <pt x="362" y="523" on="1"/>
        <pt x="187" y="523" on="1"/>
        <pt x="185" y="485" on="0"/>
        <pt x="187" y="375" on="1"/>
        <pt x="404" y="375" on="0"/>
        <pt x="437" y="389" on="1"/>
        <pt x="437" y="266" on="1"/>
        <pt x="390" y="281" on="0"/>
        <pt x="187" y="278" on="1"/>
        <pt x="186" y="104" on="1"/>
        <pt x="387" y="104" on="1"/>
        <pt x="441" y="104" on="0"/>
        <pt x="450" y="116" on="1"/>
        <pt x="456" y="125" on="0"/>
        <pt x="459" y="147" on="1"/>
        <pt x="538" y="147" on="1"/>
        <pt x="533" y="45" on="0"/>
      </contour>
      <contour>
        <pt x="327" y="689" on="1"/>
        <pt x="262" y="667" on="1"/>
        <pt x="200" y="834" on="1"/>
        <pt x="283" y="863" on="1"/>
      </contour>
    </TTGlyph>
    <TTGlyph name="Emacron" xMin="67" yMin="-4" xMax="554" yMax="727">
      <contour>
        <pt x="554" y="-3" on="1"/>
        <pt x="480" y="0" on="0"/>
        <pt x="368" y="3" on="0"/>
        <pt x="328" y="2" on="1"/>
        <pt x="236" y="2" on="0"/>
        <pt x="67" y="-4" on="1"/>
        <pt x="78" y="37" on="0"/>
        <pt x="78" y="324" on="1"/>
        <pt x="78" y="596" on="0"/>
        <pt x="68" y="629" on="1"/>
        <pt x="118" y="626" on="0"/>
        <pt x="303" y="623" on="1"/>
        <pt x="343" y="622" on="0"/>
        <pt x="455" y="625" on="0"/>
        <pt x="530" y="628" on="1"/>
        <pt x="524" y="577" on="0"/>
        <pt x="530" y="491" on="1"/>
        <pt x="450" y="491" on="1"/>
        <pt x="448" y="507" on="0"/>
        <pt x="448" y="507" on="1"/>
        <pt x="448" y="510" on="0"/>
        <pt x="442" y="516" on="1"/>
        <pt x="438" y="523" on="0"/>
        <pt x="378" y="523" on="1"/>
        <pt x="203" y="523" on="1"/>
        <pt x="201" y="485" on="0"/>
        <pt x="203" y="375" on="1"/>
        <pt x="420" y="375" on="0"/>
        <pt x="453" y="389" on="1"/>
        <pt x="453" y="266" on="1"/>
        <pt x="406" y="281" on="0"/>
        <pt x="203" y="278" on="1"/>
        <pt x="202" y="104" on="1"/>
        <pt x="403" y="104" on="1"/>
        <pt x="457" y="104" on="0"/>
        <pt x="466" y="116" on="1"/>
        <pt x="472" y="125" on="0"/>
        <pt x="475" y="147" on="1"/>
        <pt x="554" y="147" on="1"/>
        <pt x="549" y="45" on="0"/>
      </contour>
      <contour>
        <pt x="457" y="666" on="1"/>
        <pt x="149" y="666" on="1"/>
        <pt x="149" y="727" on="1"/>
        <pt x="457" y="727" on="1"/>
      </contour>
    </TTGlyph>
    <TTGlyph name="Eng" xMin="32" yMin="-222" xMax="687" yMax="627">
      <contour>
        <pt x="687" y="626" on="1"/>
        <pt x="682" y="607" on="0"/>
        <pt x="677" y="543" on="0"/>
        <pt x="676" y="496" on="1"/>
        <pt x="677" y="524" on="0"/>
        <pt x="677" y="431" on="0"/>
        <pt x="677" y="310" on="1"/>
        <pt x="677" y="1" on="1"/>
        <pt x="677" y="-116" on="0"/>
        <pt x="602" y="-174" on="1"/>
        <pt x="540" y="-221" on="0"/>
        <pt x="452" y="-222" on="1"/>
        <pt x="411" y="-222" on="0"/>
        <pt x="378" y="-207" on="1"/>
        <pt x="339" y="-188" on="0"/>
        <pt x="316" y="-185" on="1"/>
        <pt x="366" y="-66" on="1"/>
        <pt x="416" y="-106" on="0"/>
        <pt x="460" y="-106" on="1"/>
        <pt x="495" y="-106" on="0"/>
        <pt x="518" y="-87" on="1"/>
        <pt x="553" y="-58" on="0"/>
        <pt x="552" y="0" on="1"/>
        <pt x="456" y="109" on="0"/>
        <pt x="384" y="195" on="1"/>
        <pt x="210" y="398" on="0"/>
        <pt x="177" y="449" on="1"/>
        <pt x="177" y="310" on="1"/>
        <pt x="177" y="129" on="1"/>
        <pt x="178" y="82" on="0"/>
        <pt x="183" y="18" on="0"/>
        <pt x="188" y="0" on="1"/>
        <pt x="41" y="0" on="1"/>
        <pt x="46" y="19" on="0"/>
        <pt x="51" y="82" on="0"/>
        <pt x="52" y="128" on="1"/>
        <pt x="52" y="312" on="1"/>
        <pt x="52" y="389" on="0"/>
        <pt x="52" y="483" on="0"/>
        <pt x="51" y="502" on="1"/>
        <pt x="46" y="599" on="0"/>
        <pt x="32" y="626" on="1"/>
        <pt x="199" y="626" on="0"/>
        <pt x="199" y="627" on="1"/>
        <pt x="348" y="450" on="0"/>
        <pt x="524" y="236" on="0"/>
        <pt x="552" y="194" on="1"/>
        <pt x="552" y="311" on="1"/>
        <pt x="552" y="423" on="0"/>
        <pt x="552" y="515" on="0"/>
        <pt x="553" y="496" on="1"/>
        <pt x="552" y="588" on="0"/>
        <pt x="541" y="626" on="1"/>
      </contour>
    </TTGlyph>
    <TTGlyph name="Eogonek" xMin="59" yMin="-221" xMax="546" yMax="632">
      <contour>
        <pt x="546" y="-3" on="1"/>
        <pt x="529" y="-2" on="0"/>
        <pt x="462" y="-1" on="0"/>
        <pt x="411" y="1" on="1"/>
        <pt x="341" y="-54" on="0"/>
        <pt x="341" y="-109" on="1"/>
        <pt x="341" y="-131" on="0"/>
        <pt x="371" y="-156" on="0"/>
        <pt x="388" y="-155" on="1"/>
        <pt x="405" y="-154" on="0"/>
        <pt x="437" y="-125" on="1"/>
        <pt x="463" y="-183" on="1"/>
        <pt x="434" y="-221" on="0"/>
        <pt x="356" y="-221" on="1"/>
        <pt x="325" y="-221" on="0"/>
        <pt x="293" y="-192" on="1"/>
        <pt x="263" y="-164" on="0"/>
        <pt x="263" y="-138" on="1"/>
        <pt x="263" y="-48" on="0"/>
        <pt x="311" y="2" on="1"/>
        <pt x="222" y="0" on="0"/>
        <pt x="59" y="-4" on="1"/>
        <pt x="70" y="37" on="0"/>
        <pt x="70" y="324" on="1"/>
        <pt x="70" y="599" on="0"/>
        <pt x="60" y="632" on="1"/>
        <pt x="110" y="629" on="0"/>
        <pt x="295" y="626" on="1"/>
        <pt x="335" y="625" on="0"/>
        <pt x="447" y="628" on="0"/>
        <pt x="522" y="631" on="1"/>
        <pt x="516" y="580" on="0"/>
        <pt x="522" y="494" on="1"/>
        <pt x="442" y="494" on="1"/>
        <pt x="440" y="510" on="0"/>
        <pt x="440" y="510" on="1"/>
        <pt x="440" y="513" on="0"/>
        <pt x="434" y="519" on="1"/>
        <pt x="430" y="526" on="0"/>
        <pt x="370" y="526" on="1"/>
        <pt x="195" y="526" on="1"/>
        <pt x="193" y="488" on="0"/>
        <pt x="195" y="378" on="1"/>
        <pt x="412" y="378" on="0"/>
        <pt x="445" y="392" on="1"/>
        <pt x="445" y="266" on="1"/>
        <pt x="398" y="281" on="0"/>
        <pt x="195" y="278" on="1"/>
        <pt x="194" y="104" on="1"/>
        <pt x="395" y="104" on="1"/>
        <pt x="449" y="104" on="0"/>
        <pt x="458" y="116" on="1"/>
        <pt x="464" y="125" on="0"/>
        <pt x="467" y="147" on="1"/>
        <pt x="546" y="147" on="1"/>
        <pt x="541" y="45" on="0"/>
      </contour>
    </TTGlyph>
    <TTGlyph name="Epsilon" xMin="59" yMin="-4" xMax="546" yMax="632">
      <contour>
        <pt x="546" y="-3" on="1"/>
        <pt x="472" y="0" on="0"/>
        <pt x="360" y="3" on="0"/>
        <pt x="320" y="2" on="1"/>
        <pt x="228" y="2" on="0"/>
        <pt x="59" y="-4" on="1"/>
        <pt x="70" y="37" on="0"/>
        <pt x="70" y="324" on="1"/>
        <pt x="70" y="599" on="0"/>
        <pt x="60" y="632" on="1"/>
        <pt x="110" y="629" on="0"/>
        <pt x="295" y="626" on="1"/>
        <pt x="335" y="625" on="0"/>
        <pt x="447" y="628" on="0"/>
        <pt x="522" y="631" on="1"/>
        <pt x="516" y="580" on="0"/>
        <pt x="522" y="494" on="1"/>
        <pt x="442" y="494" on="1"/>
        <pt x="440" y="510" on="0"/>
        <pt x="440" y="510" on="1"/>
        <pt x="440" y="513" on="0"/>
        <pt x="434" y="519" on="1"/>
        <pt x="430" y="526" on="0"/>
        <pt x="370" y="526" on="1"/>
        <pt x="195" y="526" on="1"/>
        <pt x="193" y="488" on="0"/>
        <pt x="195" y="378" on="1"/>
        <pt x="412" y="378" on="0"/>
        <pt x="445" y="392" on="1"/>
        <pt x="445" y="266" on="1"/>
        <pt x="398" y="281" on="0"/>
        <pt x="195" y="278" on="1"/>
        <pt x="194" y="104" on="1"/>
        <pt x="395" y="104" on="1"/>
        <pt x="449" y="104" on="0"/>
        <pt x="458" y="116" on="1"/>
        <pt x="464" y="125" on="0"/>
        <pt x="467" y="147" on="1"/>
        <pt x="546" y="147" on="1"/>
        <pt x="541" y="45" on="0"/>
      </contour>
    </TTGlyph>
    <TTGlyph name="Epsilon.alt" xMin="21" yMin="-10" xMax="512" yMax="637">
      <contour>
        <pt x="163" y="359" on="1"/>
        <pt x="369" y="359" on="0"/>
        <pt x="408" y="376" on="1"/>
        <pt x="405" y="250" on="1"/>
        <pt x="362" y="263" on="0"/>
        <pt x="163" y="262" on="1"/>
        <pt x="178" y="195" on="0"/>
        <pt x="228" y="154" on="1"/>
        <pt x="277" y="114" on="0"/>
        <pt x="335" y="117" on="1"/>
        <pt x="396" y="122" on="0"/>
        <pt x="417" y="143" on="1"/>
        <pt x="428" y="154" on="0"/>
        <pt x="434" y="179" on="1"/>
        <pt x="512" y="179" on="1"/>
        <pt x="505" y="109" on="0"/>
        <pt x="498" y="26" on="0"/>
        <pt x="498" y="13" on="1"/>
        <pt x="472" y="17" on="0"/>
        <pt x="414" y="3" on="1"/>
        <pt x="369" y="-10" on="0"/>
        <pt x="315" y="-10" on="1"/>
        <pt x="293" y="-10" on="0"/>
        <pt x="274" y="-7" on="1"/>
        <pt x="160" y="10" on="0"/>
        <pt x="90" y="103" on="1"/>
        <pt x="21" y="194" on="0"/>
        <pt x="21" y="313" on="1"/>
        <pt x="21" y="452" on="0"/>
        <pt x="100" y="541" on="1"/>
        <pt x="182" y="637" on="0"/>
        <pt x="321" y="637" on="1"/>
        <pt x="346" y="637" on="0"/>
        <pt x="410" y="621" on="1"/>
        <pt x="472" y="607" on="0"/>
        <pt x="492" y="611" on="1"/>
        <pt x="492" y="585" on="0"/>
        <pt x="507" y="452" on="1"/>
        <pt x="429" y="452" on="1"/>
        <pt x="428" y="459" on="0"/>
        <pt x="421" y="477" on="0"/>
        <pt x="416" y="488" on="1"/>
        <pt x="387" y="517" on="0"/>
        <pt x="321" y="515" on="1"/>
        <pt x="267" y="514" on="0"/>
        <pt x="223" y="476" on="1"/>
        <pt x="175" y="432" on="0"/>
      </contour>
    </TTGlyph>
    <TTGlyph name="Epsilontonos" xMin="-130" yMin="-4" xMax="553" yMax="650">
      <contour>
        <pt x="553" y="-3" on="1"/>
        <pt x="479" y="0" on="0"/>
        <pt x="367" y="3" on="0"/>
        <pt x="327" y="2" on="1"/>
        <pt x="235" y="2" on="0"/>
        <pt x="66" y="-4" on="1"/>
        <pt x="77" y="37" on="0"/>
        <pt x="77" y="324" on="1"/>
        <pt x="77" y="599" on="0"/>
        <pt x="67" y="632" on="1"/>
        <pt x="117" y="629" on="0"/>
        <pt x="302" y="626" on="1"/>
        <pt x="342" y="625" on="0"/>
        <pt x="454" y="628" on="0"/>
        <pt x="529" y="631" on="1"/>
        <pt x="523" y="580" on="0"/>
        <pt x="529" y="494" on="1"/>
        <pt x="449" y="494" on="1"/>
        <pt x="447" y="510" on="0"/>
        <pt x="447" y="510" on="1"/>
        <pt x="447" y="513" on="0"/>
        <pt x="441" y="519" on="1"/>
        <pt x="437" y="526" on="0"/>
        <pt x="377" y="526" on="1"/>
        <pt x="202" y="526" on="1"/>
        <pt x="200" y="488" on="0"/>
        <pt x="202" y="378" on="1"/>
        <pt x="419" y="378" on="0"/>
        <pt x="452" y="392" on="1"/>
        <pt x="452" y="266" on="1"/>
        <pt x="405" y="281" on="0"/>
        <pt x="202" y="278" on="1"/>
        <pt x="201" y="104" on="1"/>
        <pt x="402" y="104" on="1"/>
        <pt x="456" y="104" on="0"/>
        <pt x="465" y="116" on="1"/>
        <pt x="471" y="125" on="0"/>
        <pt x="474" y="147" on="1"/>
        <pt x="553" y="147" on="1"/>
        <pt x="548" y="45" on="0"/>
      </contour>
      <contour>
        <pt x="6" y="620" on="1"/>
        <pt x="-57" y="453" on="1"/>
        <pt x="-130" y="473" on="1"/>
        <pt x="-81" y="650" on="1"/>
      </contour>
    </TTGlyph>
    <TTGlyph name="Eta" xMin="40" yMin="0" xMax="616" yMax="625">
      <contour>
        <pt x="616" y="0" on="1"/>
        <pt x="468" y="0" on="1"/>
        <pt x="475" y="25" on="0"/>
        <pt x="480" y="152" on="0"/>
        <pt x="479" y="256" on="1"/>
        <pt x="177" y="256" on="1"/>
        <pt x="177" y="44" on="0"/>
        <pt x="188" y="0" on="1"/>
        <pt x="40" y="0" on="1"/>
        <pt x="51" y="38" on="0"/>
        <pt x="52" y="128" on="1"/>
        <pt x="52" y="313" on="0"/>
        <pt x="52" y="519" on="0"/>
        <pt x="51" y="542" on="1"/>
        <pt x="50" y="565" on="0"/>
        <pt x="45" y="606" on="0"/>
        <pt x="40" y="625" on="1"/>
        <pt x="188" y="625" on="1"/>
        <pt x="173" y="563" on="0"/>
        <pt x="176" y="370" on="1"/>
        <pt x="479" y="370" on="1"/>
        <pt x="480" y="475" on="0"/>
        <pt x="475" y="602" on="0"/>
        <pt x="468" y="625" on="1"/>
        <pt x="615" y="625" on="1"/>
        <pt x="610" y="606" on="0"/>
        <pt x="605" y="542" on="0"/>
        <pt x="604" y="496" on="1"/>
        <pt x="604" y="310" on="1"/>
        <pt x="604" y="46" on="0"/>
      </contour>
    </TTGlyph>
    <TTGlyph name="Etatonos" xMin="-204" yMin="0" xMax="618" yMax="650">
      <contour>
        <pt x="618" y="0" on="1"/>
        <pt x="470" y="0" on="1"/>
        <pt x="477" y="25" on="0"/>
        <pt x="482" y="152" on="0"/>
        <pt x="481" y="256" on="1"/>
        <pt x="179" y="256" on="1"/>
        <pt x="179" y="44" on="0"/>
        <pt x="190" y="0" on="1"/>
        <pt x="42" y="0" on="1"/>
        <pt x="53" y="38" on="0"/>
        <pt x="54" y="128" on="1"/>
        <pt x="54" y="313" on="0"/>
        <pt x="54" y="519" on="0"/>
        <pt x="53" y="542" on="1"/>
        <pt x="52" y="565" on="0"/>
        <pt x="47" y="606" on="0"/>
        <pt x="42" y="625" on="1"/>
        <pt x="190" y="625" on="1"/>
        <pt x="175" y="563" on="0"/>
        <pt x="178" y="370" on="1"/>
        <pt x="481" y="370" on="1"/>
        <pt x="482" y="475" on="0"/>
        <pt x="477" y="602" on="0"/>
        <pt x="470" y="625" on="1"/>
        <pt x="617" y="625" on="1"/>
        <pt x="612" y="606" on="0"/>
        <pt x="607" y="542" on="0"/>
        <pt x="606" y="496" on="1"/>
        <pt x="606" y="310" on="1"/>
        <pt x="606" y="46" on="0"/>
      </contour>
      <contour>
        <pt x="-68" y="620" on="1"/>
        <pt x="-131" y="453" on="1"/>
        <pt x="-204" y="473" on="1"/>
        <pt x="-155" y="650" on="1"/>
      </contour>
    </TTGlyph>
    <TTGlyph name="Eth" xMin="8" yMin="0" xMax="633" yMax="625">
      <contour>
        <pt x="633" y="302" on="1"/>
        <pt x="633" y="171" on="0"/>
        <pt x="547" y="85" on="1"/>
        <pt x="462" y="0" on="0"/>
        <pt x="303" y="0" on="1"/>
        <pt x="59" y="0" on="1"/>
        <pt x="71" y="46" on="0"/>
        <pt x="71" y="200" on="1"/>
        <pt x="71" y="240" on="1"/>
        <pt x="71" y="280" on="1"/>
        <pt x="8" y="280" on="1"/>
        <pt x="8" y="353" on="1"/>
        <pt x="71" y="353" on="1"/>
        <pt x="71" y="417" on="1"/>
        <pt x="71" y="537" on="0"/>
        <pt x="68" y="578" on="1"/>
        <pt x="67" y="592" on="0"/>
        <pt x="63" y="616" on="0"/>
        <pt x="61" y="625" on="1"/>
        <pt x="312" y="625" on="1"/>
        <pt x="387" y="625" on="0"/>
        <pt x="521" y="574" on="0"/>
        <pt x="560" y="529" on="1"/>
        <pt x="633" y="446" on="0"/>
      </contour>
      <contour>
        <pt x="495" y="303" on="1"/>
        <pt x="495" y="408" on="0"/>
        <pt x="437" y="469" on="1"/>
        <pt x="390" y="517" on="0"/>
        <pt x="306" y="517" on="1"/>
        <pt x="199" y="517" on="1"/>
        <pt x="199" y="503" on="0"/>
        <pt x="199" y="464" on="0"/>
        <pt x="198" y="441" on="1"/>
        <pt x="197" y="415" on="0"/>
        <pt x="196" y="376" on="0"/>
        <pt x="196" y="365" on="1"/>
        <pt x="196" y="353" on="1"/>
        <pt x="361" y="353" on="1"/>
        <pt x="361" y="280" on="1"/>
        <pt x="196" y="280" on="1"/>
        <pt x="196" y="263" on="0"/>
        <pt x="196" y="225" on="0"/>
        <pt x="197" y="203" on="1"/>
        <pt x="199" y="104" on="1"/>
        <pt x="302" y="104" on="1"/>
        <pt x="390" y="104" on="0"/>
        <pt x="442" y="159" on="1"/>
        <pt x="495" y="215" on="0"/>
      </contour>
    </TTGlyph>
    <TTGlyph name="F" xMin="71" yMin="0" xMax="536" yMax="628">
      <contour>
        <pt x="536" y="494" on="1"/>
        <pt x="456" y="494" on="1"/>
        <pt x="456" y="516" on="0"/>
        <pt x="444" y="522" on="1"/>
        <pt x="437" y="526" on="0"/>
        <pt x="410" y="526" on="1"/>
        <pt x="209" y="526" on="1"/>
        <pt x="209" y="368" on="1"/>
        <pt x="293" y="368" on="1"/>
        <pt x="335" y="368" on="0"/>
        <pt x="388" y="369" on="0"/>
        <pt x="401" y="370" on="1"/>
        <pt x="439" y="373" on="0"/>
        <pt x="459" y="382" on="1"/>
        <pt x="459" y="256" on="1"/>
        <pt x="425" y="266" on="0"/>
        <pt x="294" y="266" on="1"/>
        <pt x="280" y="266" on="0"/>
        <pt x="237" y="266" on="0"/>
        <pt x="206" y="265" on="1"/>
        <pt x="206" y="246" on="0"/>
        <pt x="206" y="183" on="0"/>
        <pt x="207" y="138" on="1"/>
        <pt x="208" y="93" on="0"/>
        <pt x="214" y="25" on="0"/>
        <pt x="221" y="0" on="1"/>
        <pt x="73" y="0" on="1"/>
        <pt x="75" y="10" on="0"/>
        <pt x="79" y="38" on="0"/>
        <pt x="80" y="58" on="1"/>
        <pt x="83" y="124" on="0"/>
        <pt x="83" y="324" on="1"/>
        <pt x="83" y="432" on="0"/>
        <pt x="81" y="563" on="0"/>
        <pt x="79" y="588" on="1"/>
        <pt x="78" y="597" on="0"/>
        <pt x="74" y="617" on="0"/>
        <pt x="71" y="628" on="1"/>
        <pt x="111" y="628" on="0"/>
        <pt x="189" y="625" on="1"/>
        <pt x="268" y="622" on="0"/>
        <pt x="308" y="622" on="1"/>
        <pt x="384" y="622" on="0"/>
        <pt x="497" y="625" on="0"/>
        <pt x="535" y="627" on="1"/>
        <pt x="534" y="619" on="0"/>
        <pt x="533" y="580" on="0"/>
        <pt x="533" y="551" on="1"/>
        <pt x="533" y="541" on="0"/>
        <pt x="536" y="503" on="0"/>
      </contour>
    </TTGlyph>
    <TTGlyph name="G" xMin="21" yMin="-10" xMax="519" yMax="637">
      <contour>
        <pt x="519" y="310" on="1"/>
        <pt x="518" y="297" on="0"/>
        <pt x="514" y="246" on="0"/>
        <pt x="512" y="206" on="1"/>
        <pt x="511" y="186" on="0"/>
        <pt x="511" y="91" on="0"/>
        <pt x="511" y="13" on="1"/>
        <pt x="485" y="14" on="0"/>
        <pt x="436" y="9" on="0"/>
        <pt x="413" y="2" on="1"/>
        <pt x="368" y="-10" on="0"/>
        <pt x="315" y="-10" on="1"/>
        <pt x="293" y="-10" on="0"/>
        <pt x="274" y="-7" on="1"/>
        <pt x="160" y="10" on="0"/>
        <pt x="90" y="103" on="1"/>
        <pt x="21" y="194" on="0"/>
        <pt x="21" y="313" on="1"/>
        <pt x="21" y="452" on="0"/>
        <pt x="100" y="541" on="1"/>
        <pt x="182" y="637" on="0"/>
        <pt x="321" y="637" on="1"/>
        <pt x="346" y="637" on="0"/>
        <pt x="410" y="621" on="1"/>
        <pt x="472" y="607" on="0"/>
        <pt x="492" y="611" on="1"/>
        <pt x="492" y="585" on="0"/>
        <pt x="507" y="452" on="1"/>
        <pt x="429" y="452" on="1"/>
        <pt x="428" y="459" on="0"/>
        <pt x="421" y="477" on="0"/>
        <pt x="416" y="488" on="1"/>
        <pt x="387" y="517" on="0"/>
        <pt x="321" y="515" on="1"/>
        <pt x="257" y="514" on="0"/>
        <pt x="211" y="463" on="1"/>
        <pt x="159" y="407" on="0"/>
        <pt x="159" y="309" on="1"/>
        <pt x="159" y="221" on="0"/>
        <pt x="215" y="165" on="1"/>
        <pt x="267" y="112" on="0"/>
        <pt x="335" y="117" on="1"/>
        <pt x="351" y="118" on="0"/>
        <pt x="375" y="132" on="0"/>
        <pt x="392" y="152" on="0"/>
        <pt x="400" y="177" on="0"/>
        <pt x="400" y="189" on="1"/>
        <pt x="400" y="216" on="1"/>
        <pt x="354" y="216" on="0"/>
        <pt x="350" y="210" on="1"/>
        <pt x="346" y="206" on="0"/>
        <pt x="344" y="184" on="1"/>
        <pt x="263" y="184" on="1"/>
        <pt x="265" y="205" on="0"/>
        <pt x="266" y="229" on="0"/>
        <pt x="266" y="245" on="1"/>
        <pt x="267" y="266" on="0"/>
        <pt x="265" y="295" on="0"/>
        <pt x="263" y="311" on="1"/>
        <pt x="356" y="310" on="0"/>
        <pt x="483" y="309" on="0"/>
      </contour>
    </TTGlyph>
    <TTGlyph name="Gamma" xMin="43" yMin="-1" xMax="512" yMax="626">
      <contour>
        <pt x="512" y="478" on="1"/>
        <pt x="432" y="478" on="1"/>
        <pt x="431" y="503" on="0"/>
        <pt x="422" y="515" on="1"/>
        <pt x="414" y="526" on="0"/>
        <pt x="361" y="526" on="1"/>
        <pt x="180" y="526" on="1"/>
        <pt x="180" y="301" on="1"/>
        <pt x="180" y="211" on="0"/>
        <pt x="180" y="101" on="0"/>
        <pt x="181" y="79" on="1"/>
        <pt x="182" y="58" on="0"/>
        <pt x="187" y="18" on="0"/>
        <pt x="192" y="-1" on="1"/>
        <pt x="43" y="-1" on="1"/>
        <pt x="48" y="18" on="0"/>
        <pt x="53" y="79" on="0"/>
        <pt x="54" y="122" on="1"/>
        <pt x="54" y="301" on="1"/>
        <pt x="54" y="593" on="0"/>
        <pt x="44" y="626" on="1"/>
        <pt x="58" y="625" on="0"/>
        <pt x="188" y="623" on="0"/>
        <pt x="305" y="621" on="1"/>
        <pt x="345" y="620" on="0"/>
        <pt x="448" y="623" on="0"/>
        <pt x="512" y="625" on="1"/>
        <pt x="504" y="569" on="0"/>
      </contour>
    </TTGlyph>
    <TTGlyph name="Gbreve" xMin="21" yMin="-10" xMax="519" yMax="806">
      <contour>
        <pt x="519" y="310" on="1"/>
        <pt x="518" y="297" on="0"/>
        <pt x="514" y="246" on="0"/>
        <pt x="512" y="206" on="1"/>
        <pt x="511" y="186" on="0"/>
        <pt x="511" y="91" on="0"/>
        <pt x="511" y="13" on="1"/>
        <pt x="485" y="14" on="0"/>
        <pt x="436" y="9" on="0"/>
        <pt x="413" y="2" on="1"/>
        <pt x="368" y="-10" on="0"/>
        <pt x="315" y="-10" on="1"/>
        <pt x="293" y="-10" on="0"/>
        <pt x="274" y="-7" on="1"/>
        <pt x="160" y="10" on="0"/>
        <pt x="90" y="103" on="1"/>
        <pt x="21" y="194" on="0"/>
        <pt x="21" y="313" on="1"/>
        <pt x="21" y="452" on="0"/>
        <pt x="100" y="541" on="1"/>
        <pt x="182" y="637" on="0"/>
        <pt x="321" y="637" on="1"/>
        <pt x="346" y="637" on="0"/>
        <pt x="410" y="621" on="1"/>
        <pt x="472" y="607" on="0"/>
        <pt x="492" y="611" on="1"/>
        <pt x="492" y="585" on="0"/>
        <pt x="507" y="452" on="1"/>
        <pt x="429" y="452" on="1"/>
        <pt x="428" y="459" on="0"/>
        <pt x="421" y="477" on="0"/>
        <pt x="416" y="488" on="1"/>
        <pt x="387" y="517" on="0"/>
        <pt x="321" y="515" on="1"/>
        <pt x="257" y="514" on="0"/>
        <pt x="211" y="463" on="1"/>
        <pt x="159" y="407" on="0"/>
        <pt x="159" y="309" on="1"/>
        <pt x="159" y="221" on="0"/>
        <pt x="215" y="165" on="1"/>
        <pt x="267" y="112" on="0"/>
        <pt x="335" y="117" on="1"/>
        <pt x="400" y="122" on="0"/>
        <pt x="400" y="169" on="1"/>
        <pt x="400" y="196" on="1"/>
        <pt x="354" y="196" on="0"/>
        <pt x="350" y="190" on="1"/>
        <pt x="346" y="186" on="0"/>
        <pt x="344" y="164" on="1"/>
        <pt x="263" y="164" on="1"/>
        <pt x="266" y="206" on="0"/>
        <pt x="266" y="238" on="1"/>
        <pt x="267" y="280" on="0"/>
        <pt x="263" y="311" on="1"/>
        <pt x="356" y="310" on="0"/>
        <pt x="483" y="309" on="0"/>
      </contour>
      <contour>
        <pt x="468" y="768" on="1"/>
        <pt x="430" y="714" on="0"/>
        <pt x="403" y="694" on="1"/>
        <pt x="365" y="665" on="0"/>
        <pt x="312" y="665" on="1"/>
        <pt x="259" y="665" on="0"/>
        <pt x="221" y="693" on="1"/>
        <pt x="192" y="714" on="0"/>
        <pt x="152" y="768" on="1"/>
        <pt x="194" y="806" on="1"/>
        <pt x="214" y="782" on="0"/>
        <pt x="242" y="752" on="0"/>
        <pt x="249" y="746" on="1"/>
        <pt x="277" y="721" on="0"/>
        <pt x="312" y="721" on="1"/>
        <pt x="350" y="721" on="0"/>
        <pt x="380" y="748" on="1"/>
        <pt x="388" y="755" on="0"/>
        <pt x="411" y="783" on="0"/>
        <pt x="427" y="805" on="1"/>
      </contour>
    </TTGlyph>
    <TTGlyph name="Gcircumflex" xMin="21" yMin="-10" xMax="519" yMax="854">
      <contour>
        <pt x="519" y="310" on="1"/>
        <pt x="518" y="297" on="0"/>
        <pt x="514" y="246" on="0"/>
        <pt x="512" y="206" on="1"/>
        <pt x="511" y="186" on="0"/>
        <pt x="511" y="91" on="0"/>
        <pt x="511" y="13" on="1"/>
        <pt x="485" y="14" on="0"/>
        <pt x="436" y="9" on="0"/>
        <pt x="413" y="2" on="1"/>
        <pt x="368" y="-10" on="0"/>
        <pt x="315" y="-10" on="1"/>
        <pt x="293" y="-10" on="0"/>
        <pt x="274" y="-7" on="1"/>
        <pt x="160" y="10" on="0"/>
        <pt x="90" y="103" on="1"/>
        <pt x="21" y="194" on="0"/>
        <pt x="21" y="313" on="1"/>
        <pt x="21" y="452" on="0"/>
        <pt x="100" y="541" on="1"/>
        <pt x="182" y="637" on="0"/>
        <pt x="321" y="637" on="1"/>
        <pt x="346" y="637" on="0"/>
        <pt x="410" y="621" on="1"/>
        <pt x="472" y="607" on="0"/>
        <pt x="492" y="611" on="1"/>
        <pt x="492" y="585" on="0"/>
        <pt x="507" y="452" on="1"/>
        <pt x="429" y="452" on="1"/>
        <pt x="428" y="459" on="0"/>
        <pt x="421" y="477" on="0"/>
        <pt x="416" y="488" on="1"/>
        <pt x="387" y="517" on="0"/>
        <pt x="321" y="515" on="1"/>
        <pt x="257" y="514" on="0"/>
        <pt x="211" y="463" on="1"/>
        <pt x="159" y="407" on="0"/>
        <pt x="159" y="309" on="1"/>
        <pt x="159" y="221" on="0"/>
        <pt x="215" y="165" on="1"/>
        <pt x="267" y="112" on="0"/>
        <pt x="335" y="117" on="1"/>
        <pt x="400" y="122" on="0"/>
        <pt x="400" y="169" on="1"/>
        <pt x="400" y="196" on="1"/>
        <pt x="354" y="196" on="0"/>
        <pt x="350" y="190" on="1"/>
        <pt x="346" y="186" on="0"/>
        <pt x="344" y="164" on="1"/>
        <pt x="263" y="164" on="1"/>
        <pt x="266" y="206" on="0"/>
        <pt x="266" y="238" on="1"/>
        <pt x="267" y="280" on="0"/>
        <pt x="263" y="311" on="1"/>
        <pt x="356" y="310" on="0"/>
        <pt x="483" y="309" on="0"/>
      </contour>
      <contour>
        <pt x="493" y="730" on="1"/>
        <pt x="434" y="672" on="1"/>
        <pt x="412" y="688" on="0"/>
        <pt x="353" y="730" on="0"/>
        <pt x="315" y="757" on="1"/>
        <pt x="294" y="743" on="0"/>
        <pt x="230" y="699" on="0"/>
        <pt x="186" y="669" on="1"/>
        <pt x="137" y="730" on="1"/>
        <pt x="314" y="854" on="1"/>
        <pt x="359" y="823" on="0"/>
        <pt x="448" y="762" on="0"/>
      </contour>
    </TTGlyph>
    <TTGlyph name="Gcommaaccent" xMin="21" yMin="-300" xMax="519" yMax="637">
      <contour>
        <pt x="519" y="310" on="1"/>
        <pt x="518" y="297" on="0"/>
        <pt x="514" y="246" on="0"/>
        <pt x="512" y="206" on="1"/>
        <pt x="511" y="186" on="0"/>
        <pt x="511" y="91" on="0"/>
        <pt x="511" y="13" on="1"/>
        <pt x="485" y="14" on="0"/>
        <pt x="436" y="9" on="0"/>
        <pt x="413" y="2" on="1"/>
        <pt x="368" y="-10" on="0"/>
        <pt x="315" y="-10" on="1"/>
        <pt x="293" y="-10" on="0"/>
        <pt x="274" y="-7" on="1"/>
        <pt x="160" y="10" on="0"/>
        <pt x="90" y="103" on="1"/>
        <pt x="21" y="194" on="0"/>
        <pt x="21" y="313" on="1"/>
        <pt x="21" y="452" on="0"/>
        <pt x="100" y="541" on="1"/>
        <pt x="182" y="637" on="0"/>
        <pt x="321" y="637" on="1"/>
        <pt x="346" y="637" on="0"/>
        <pt x="410" y="621" on="1"/>
        <pt x="472" y="607" on="0"/>
        <pt x="492" y="611" on="1"/>
        <pt x="492" y="585" on="0"/>
        <pt x="507" y="452" on="1"/>
        <pt x="429" y="452" on="1"/>
        <pt x="428" y="459" on="0"/>
        <pt x="421" y="477" on="0"/>
        <pt x="416" y="488" on="1"/>
        <pt x="387" y="517" on="0"/>
        <pt x="321" y="515" on="1"/>
        <pt x="257" y="514" on="0"/>
        <pt x="211" y="463" on="1"/>
        <pt x="159" y="407" on="0"/>
        <pt x="159" y="309" on="1"/>
        <pt x="159" y="221" on="0"/>
        <pt x="215" y="165" on="1"/>
        <pt x="267" y="112" on="0"/>
        <pt x="335" y="117" on="1"/>
        <pt x="400" y="122" on="0"/>
        <pt x="400" y="169" on="1"/>
        <pt x="400" y="196" on="1"/>
        <pt x="354" y="196" on="0"/>
        <pt x="350" y="190" on="1"/>
        <pt x="346" y="186" on="0"/>
        <pt x="344" y="164" on="1"/>
        <pt x="263" y="164" on="1"/>
        <pt x="266" y="206" on="0"/>
        <pt x="266" y="238" on="1"/>
        <pt x="267" y="280" on="0"/>
        <pt x="263" y="311" on="1"/>
        <pt x="356" y="310" on="0"/>
        <pt x="483" y="309" on="0"/>
      </contour>
      <contour>
        <pt x="343" y="-173" on="1"/>
        <pt x="343" y="-286" on="0"/>
        <pt x="227" y="-300" on="1"/>
        <pt x="224" y="-257" on="1"/>
        <pt x="265" y="-249" on="0"/>
        <pt x="265" y="-179" on="1"/>
        <pt x="237" y="-179" on="1"/>
        <pt x="237" y="-112" on="1"/>
        <pt x="343" y="-112" on="1"/>
      </contour>
    </TTGlyph>
    <TTGlyph name="Gdotaccent" xMin="21" yMin="-10" xMax="519" yMax="772">
      <contour>
        <pt x="519" y="310" on="1"/>
        <pt x="518" y="297" on="0"/>
        <pt x="514" y="246" on="0"/>
        <pt x="512" y="206" on="1"/>
        <pt x="511" y="186" on="0"/>
        <pt x="511" y="91" on="0"/>
        <pt x="511" y="13" on="1"/>
        <pt x="485" y="14" on="0"/>
        <pt x="436" y="9" on="0"/>
        <pt x="413" y="2" on="1"/>
        <pt x="368" y="-10" on="0"/>
        <pt x="315" y="-10" on="1"/>
        <pt x="293" y="-10" on="0"/>
        <pt x="274" y="-7" on="1"/>
        <pt x="160" y="10" on="0"/>
        <pt x="90" y="103" on="1"/>
        <pt x="21" y="194" on="0"/>
        <pt x="21" y="313" on="1"/>
        <pt x="21" y="452" on="0"/>
        <pt x="100" y="541" on="1"/>
        <pt x="182" y="637" on="0"/>
        <pt x="321" y="637" on="1"/>
        <pt x="346" y="637" on="0"/>
        <pt x="410" y="621" on="1"/>
        <pt x="472" y="607" on="0"/>
        <pt x="492" y="611" on="1"/>
        <pt x="492" y="585" on="0"/>
        <pt x="507" y="452" on="1"/>
        <pt x="429" y="452" on="1"/>
        <pt x="428" y="459" on="0"/>
        <pt x="421" y="477" on="0"/>
        <pt x="416" y="488" on="1"/>
        <pt x="387" y="517" on="0"/>
        <pt x="321" y="515" on="1"/>
        <pt x="257" y="514" on="0"/>
        <pt x="211" y="463" on="1"/>
        <pt x="159" y="407" on="0"/>
        <pt x="159" y="309" on="1"/>
        <pt x="159" y="221" on="0"/>
        <pt x="215" y="165" on="1"/>
        <pt x="267" y="112" on="0"/>
        <pt x="335" y="117" on="1"/>
        <pt x="400" y="122" on="0"/>
        <pt x="400" y="169" on="1"/>
        <pt x="400" y="196" on="1"/>
        <pt x="354" y="196" on="0"/>
        <pt x="350" y="190" on="1"/>
        <pt x="346" y="186" on="0"/>
        <pt x="344" y="164" on="1"/>
        <pt x="263" y="164" on="1"/>
        <pt x="266" y="206" on="0"/>
        <pt x="266" y="238" on="1"/>
        <pt x="267" y="280" on="0"/>
        <pt x="263" y="311" on="1"/>
        <pt x="356" y="310" on="0"/>
        <pt x="483" y="309" on="0"/>
      </contour>
      <contour>
        <pt x="376" y="717" on="1"/>
        <pt x="376" y="694" on="0"/>
        <pt x="344" y="662" on="0"/>
        <pt x="321" y="662" on="1"/>
        <pt x="298" y="662" on="0"/>
        <pt x="266" y="694" on="0"/>
        <pt x="266" y="717" on="1"/>
        <pt x="266" y="740" on="0"/>
        <pt x="298" y="772" on="0"/>
        <pt x="321" y="772" on="1"/>
        <pt x="344" y="772" on="0"/>
        <pt x="376" y="740" on="0"/>
      </contour>
    </TTGlyph>
    <TTGlyph name="H" xMin="40" yMin="0" xMax="616" yMax="623">
      <contour>
        <pt x="616" y="0" on="1"/>
        <pt x="468" y="0" on="1"/>
        <pt x="475" y="25" on="0"/>
        <pt x="480" y="152" on="0"/>
        <pt x="479" y="256" on="1"/>
        <pt x="177" y="256" on="1"/>
        <pt x="177" y="44" on="0"/>
        <pt x="188" y="0" on="1"/>
        <pt x="40" y="0" on="1"/>
        <pt x="51" y="38" on="0"/>
        <pt x="52" y="128" on="1"/>
        <pt x="52" y="313" on="0"/>
        <pt x="52" y="517" on="0"/>
        <pt x="51" y="540" on="1"/>
        <pt x="50" y="563" on="0"/>
        <pt x="45" y="604" on="0"/>
        <pt x="40" y="623" on="1"/>
        <pt x="188" y="623" on="1"/>
        <pt x="173" y="562" on="0"/>
        <pt x="176" y="370" on="1"/>
        <pt x="479" y="370" on="1"/>
        <pt x="480" y="473" on="0"/>
        <pt x="475" y="600" on="0"/>
        <pt x="468" y="623" on="1"/>
        <pt x="615" y="623" on="1"/>
        <pt x="610" y="604" on="0"/>
        <pt x="605" y="541" on="0"/>
        <pt x="604" y="495" on="1"/>
        <pt x="604" y="310" on="1"/>
        <pt x="604" y="46" on="0"/>
      </contour>
    </TTGlyph>
    <TTGlyph name="Hbar" xMin="-6" yMin="0" xMax="657" yMax="625">
      <contour>
        <pt x="657" y="451" on="1"/>
        <pt x="604" y="451" on="1"/>
        <pt x="604" y="383" on="1"/>
        <pt x="604" y="310" on="1"/>
        <pt x="604" y="46" on="0"/>
        <pt x="616" y="0" on="1"/>
        <pt x="468" y="0" on="1"/>
        <pt x="475" y="25" on="0"/>
        <pt x="480" y="152" on="0"/>
        <pt x="479" y="256" on="1"/>
        <pt x="177" y="256" on="1"/>
        <pt x="177" y="44" on="0"/>
        <pt x="188" y="0" on="1"/>
        <pt x="40" y="0" on="1"/>
        <pt x="51" y="38" on="0"/>
        <pt x="52" y="127" on="1"/>
        <pt x="52" y="312" on="1"/>
        <pt x="52" y="451" on="1"/>
        <pt x="-6" y="451" on="1"/>
        <pt x="-6" y="524" on="1"/>
        <pt x="52" y="524" on="1"/>
        <pt x="50" y="591" on="0"/>
        <pt x="40" y="625" on="1"/>
        <pt x="188" y="625" on="1"/>
        <pt x="177" y="584" on="0"/>
        <pt x="176" y="524" on="1"/>
        <pt x="479" y="524" on="1"/>
        <pt x="478" y="556" on="0"/>
        <pt x="473" y="606" on="0"/>
        <pt x="468" y="625" on="1"/>
        <pt x="615" y="625" on="1"/>
        <pt x="605" y="588" on="0"/>
        <pt x="604" y="524" on="1"/>
        <pt x="657" y="524" on="1"/>
      </contour>
      <contour>
        <pt x="480" y="451" on="1"/>
        <pt x="175" y="451" on="1"/>
        <pt x="175" y="434" on="0"/>
        <pt x="175" y="393" on="0"/>
        <pt x="176" y="370" on="1"/>
        <pt x="479" y="370" on="1"/>
        <pt x="479" y="384" on="0"/>
        <pt x="479" y="425" on="0"/>
      </contour>
    </TTGlyph>
    <TTGlyph name="Hcircumflex" xMin="40" yMin="0" xMax="616" yMax="850">
      <contour>
        <pt x="616" y="0" on="1"/>
        <pt x="468" y="0" on="1"/>
        <pt x="475" y="25" on="0"/>
        <pt x="480" y="152" on="0"/>
        <pt x="479" y="256" on="1"/>
        <pt x="177" y="256" on="1"/>
        <pt x="177" y="44" on="0"/>
        <pt x="188" y="0" on="1"/>
        <pt x="40" y="0" on="1"/>
        <pt x="51" y="38" on="0"/>
        <pt x="52" y="128" on="1"/>
        <pt x="52" y="313" on="0"/>
        <pt x="52" y="517" on="0"/>
        <pt x="51" y="540" on="1"/>
        <pt x="50" y="563" on="0"/>
        <pt x="45" y="604" on="0"/>
        <pt x="40" y="623" on="1"/>
        <pt x="188" y="623" on="1"/>
        <pt x="173" y="562" on="0"/>
        <pt x="176" y="370" on="1"/>
        <pt x="479" y="370" on="1"/>
        <pt x="480" y="473" on="0"/>
        <pt x="475" y="600" on="0"/>
        <pt x="468" y="623" on="1"/>
        <pt x="615" y="623" on="1"/>
        <pt x="610" y="604" on="0"/>
        <pt x="605" y="541" on="0"/>
        <pt x="604" y="495" on="1"/>
        <pt x="604" y="310" on="1"/>
        <pt x="604" y="46" on="0"/>
      </contour>
      <contour>
        <pt x="509" y="726" on="1"/>
        <pt x="450" y="668" on="1"/>
        <pt x="428" y="684" on="0"/>
        <pt x="369" y="726" on="0"/>
        <pt x="331" y="753" on="1"/>
        <pt x="310" y="739" on="0"/>
        <pt x="246" y="695" on="0"/>
        <pt x="202" y="665" on="1"/>
        <pt x="153" y="726" on="1"/>
        <pt x="330" y="850" on="1"/>
        <pt x="375" y="819" on="0"/>
        <pt x="464" y="758" on="0"/>
      </contour>
    </TTGlyph>
    <TTGlyph name="I" xMin="49" yMin="0" xMax="197" yMax="623">
      <contour>
        <pt x="197" y="623" on="1"/>
        <pt x="192" y="604" on="0"/>
        <pt x="187" y="541" on="0"/>
        <pt x="186" y="496" on="1"/>
        <pt x="186" y="312" on="1"/>
        <pt x="186" y="130" on="1"/>
        <pt x="188" y="35" on="0"/>
        <pt x="196" y="0" on="1"/>
        <pt x="49" y="0" on="1"/>
        <pt x="59" y="37" on="0"/>
        <pt x="61" y="129" on="1"/>
        <pt x="61" y="314" on="1"/>
        <pt x="61" y="405" on="0"/>
        <pt x="61" y="518" on="0"/>
        <pt x="60" y="541" on="1"/>
        <pt x="59" y="564" on="0"/>
        <pt x="54" y="604" on="0"/>
        <pt x="49" y="623" on="1"/>
      </contour>
    </TTGlyph>
    <TTGlyph name="IJ" xMin="49" yMin="-11" xMax="557" yMax="624">
      <contour>
        <pt x="197" y="623" on="1"/>
        <pt x="192" y="604" on="0"/>
        <pt x="187" y="541" on="0"/>
        <pt x="186" y="496" on="1"/>
        <pt x="186" y="312" on="1"/>
        <pt x="186" y="130" on="1"/>
        <pt x="188" y="35" on="0"/>
        <pt x="196" y="0" on="1"/>
        <pt x="49" y="0" on="1"/>
        <pt x="59" y="37" on="0"/>
        <pt x="61" y="129" on="1"/>
        <pt x="61" y="314" on="1"/>
        <pt x="61" y="405" on="0"/>
        <pt x="61" y="518" on="0"/>
        <pt x="60" y="541" on="1"/>
        <pt x="59" y="564" on="0"/>
        <pt x="54" y="604" on="0"/>
        <pt x="49" y="623" on="1"/>
      </contour>
      <contour>
        <pt x="557" y="624" on="1"/>
        <pt x="552" y="605" on="0"/>
        <pt x="547" y="544" on="0"/>
        <pt x="546" y="499" on="1"/>
        <pt x="546" y="318" on="1"/>
        <pt x="546" y="95" on="0"/>
        <pt x="521" y="49" on="1"/>
        <pt x="489" y="-11" on="0"/>
        <pt x="390" y="-11" on="1"/>
        <pt x="372" y="-11" on="0"/>
        <pt x="315" y="1" on="1"/>
        <pt x="264" y="11" on="0"/>
        <pt x="251" y="8" on="1"/>
        <pt x="251" y="138" on="1"/>
        <pt x="309" y="138" on="1"/>
        <pt x="314" y="114" on="0"/>
        <pt x="337" y="102" on="1"/>
        <pt x="355" y="94" on="0"/>
        <pt x="370" y="94" on="1"/>
        <pt x="411" y="94" on="0"/>
        <pt x="416" y="135" on="1"/>
        <pt x="422" y="180" on="0"/>
        <pt x="422" y="320" on="1"/>
        <pt x="422" y="411" on="0"/>
        <pt x="422" y="521" on="0"/>
        <pt x="421" y="543" on="1"/>
        <pt x="420" y="565" on="0"/>
        <pt x="415" y="605" on="0"/>
        <pt x="410" y="624" on="1"/>
      </contour>
    </TTGlyph>
    <TTGlyph name="Iacute" xMin="49" yMin="0" xMax="225" yMax="868">
      <contour>
        <pt x="197" y="623" on="1"/>
        <pt x="192" y="604" on="0"/>
        <pt x="187" y="541" on="0"/>
        <pt x="186" y="496" on="1"/>
        <pt x="186" y="312" on="1"/>
        <pt x="186" y="130" on="1"/>
        <pt x="188" y="35" on="0"/>
        <pt x="196" y="0" on="1"/>
        <pt x="49" y="0" on="1"/>
        <pt x="59" y="37" on="0"/>
        <pt x="61" y="129" on="1"/>
        <pt x="61" y="314" on="1"/>
        <pt x="61" y="405" on="0"/>
        <pt x="61" y="518" on="0"/>
        <pt x="60" y="541" on="1"/>
        <pt x="59" y="564" on="0"/>
        <pt x="54" y="604" on="0"/>
        <pt x="49" y="623" on="1"/>
      </contour>
      <contour>
        <pt x="225" y="838" on="1"/>
        <pt x="162" y="671" on="1"/>
        <pt x="89" y="691" on="1"/>
        <pt x="138" y="868" on="1"/>
      </contour>
    </TTGlyph>
    <TTGlyph name="Ibreve" xMin="-47" yMin="0" xMax="269" yMax="808">
      <contour>
        <pt x="197" y="623" on="1"/>
        <pt x="192" y="604" on="0"/>
        <pt x="187" y="541" on="0"/>
        <pt x="186" y="496" on="1"/>
        <pt x="186" y="312" on="1"/>
        <pt x="186" y="130" on="1"/>
        <pt x="188" y="35" on="0"/>
        <pt x="196" y="0" on="1"/>
        <pt x="49" y="0" on="1"/>
        <pt x="59" y="37" on="0"/>
        <pt x="61" y="129" on="1"/>
        <pt x="61" y="314" on="1"/>
        <pt x="61" y="405" on="0"/>
        <pt x="61" y="518" on="0"/>
        <pt x="60" y="541" on="1"/>
        <pt x="59" y="564" on="0"/>
        <pt x="54" y="604" on="0"/>
        <pt x="49" y="623" on="1"/>
      </contour>
      <contour>
        <pt x="269" y="770" on="1"/>
        <pt x="231" y="716" on="0"/>
        <pt x="204" y="696" on="1"/>
        <pt x="166" y="667" on="0"/>
        <pt x="113" y="667" on="1"/>
        <pt x="60" y="667" on="0"/>
        <pt x="22" y="695" on="1"/>
        <pt x="-7" y="716" on="0"/>
        <pt x="-47" y="770" on="1"/>
        <pt x="-5" y="808" on="1"/>
        <pt x="15" y="784" on="0"/>
        <pt x="43" y="754" on="0"/>
        <pt x="50" y="748" on="1"/>
        <pt x="78" y="723" on="0"/>
        <pt x="113" y="723" on="1"/>
        <pt x="151" y="723" on="0"/>
        <pt x="181" y="750" on="1"/>
        <pt x="189" y="757" on="0"/>
        <pt x="212" y="785" on="0"/>
        <pt x="228" y="807" on="1"/>
      </contour>
    </TTGlyph>
    <TTGlyph name="Icircumflex" xMin="-51" yMin="0" xMax="305" yMax="851">
      <contour>
        <pt x="197" y="623" on="1"/>
        <pt x="192" y="604" on="0"/>
        <pt x="187" y="541" on="0"/>
        <pt x="186" y="496" on="1"/>
        <pt x="186" y="312" on="1"/>
        <pt x="186" y="130" on="1"/>
        <pt x="188" y="35" on="0"/>
        <pt x="196" y="0" on="1"/>
        <pt x="49" y="0" on="1"/>
        <pt x="59" y="37" on="0"/>
        <pt x="61" y="129" on="1"/>
        <pt x="61" y="314" on="1"/>
        <pt x="61" y="405" on="0"/>
        <pt x="61" y="518" on="0"/>
        <pt x="60" y="541" on="1"/>
        <pt x="59" y="564" on="0"/>
        <pt x="54" y="604" on="0"/>
        <pt x="49" y="623" on="1"/>
      </contour>
      <contour>
        <pt x="305" y="727" on="1"/>
        <pt x="246" y="669" on="1"/>
        <pt x="224" y="685" on="0"/>
        <pt x="165" y="727" on="0"/>
        <pt x="127" y="754" on="1"/>
        <pt x="106" y="740" on="0"/>
        <pt x="42" y="696" on="0"/>
        <pt x="-2" y="666" on="1"/>
        <pt x="-51" y="727" on="1"/>
        <pt x="126" y="851" on="1"/>
        <pt x="171" y="820" on="0"/>
        <pt x="260" y="759" on="0"/>
      </contour>
    </TTGlyph>
    <TTGlyph name="Idieresis" xMin="-32" yMin="0" xMax="266" yMax="774">
      <contour>
        <pt x="197" y="623" on="1"/>
        <pt x="192" y="604" on="0"/>
        <pt x="187" y="541" on="0"/>
        <pt x="186" y="496" on="1"/>
        <pt x="186" y="312" on="1"/>
        <pt x="186" y="130" on="1"/>
        <pt x="188" y="35" on="0"/>
        <pt x="196" y="0" on="1"/>
        <pt x="49" y="0" on="1"/>
        <pt x="59" y="37" on="0"/>
        <pt x="61" y="129" on="1"/>
        <pt x="61" y="314" on="1"/>
        <pt x="61" y="405" on="0"/>
        <pt x="61" y="518" on="0"/>
        <pt x="60" y="541" on="1"/>
        <pt x="59" y="564" on="0"/>
        <pt x="54" y="604" on="0"/>
        <pt x="49" y="623" on="1"/>
      </contour>
      <contour>
        <pt x="266" y="719" on="1"/>
        <pt x="266" y="699" on="0"/>
        <pt x="236" y="666" on="0"/>
        <pt x="214" y="666" on="1"/>
        <pt x="193" y="666" on="0"/>
        <pt x="163" y="698" on="0"/>
        <pt x="163" y="719" on="1"/>
        <pt x="163" y="740" on="0"/>
        <pt x="193" y="773" on="0"/>
        <pt x="214" y="773" on="1"/>
        <pt x="235" y="773" on="0"/>
        <pt x="266" y="740" on="0"/>
      </contour>
      <contour>
        <pt x="75" y="721" on="1"/>
        <pt x="75" y="701" on="0"/>
        <pt x="43" y="669" on="0"/>
        <pt x="22" y="669" on="1"/>
        <pt x="0" y="669" on="0"/>
        <pt x="-32" y="700" on="0"/>
        <pt x="-32" y="721" on="1"/>
        <pt x="-32" y="742" on="0"/>
        <pt x="0" y="774" on="0"/>
        <pt x="22" y="774" on="1"/>
        <pt x="43" y="774" on="0"/>
        <pt x="75" y="741" on="0"/>
      </contour>
    </TTGlyph>
    <TTGlyph name="Idotaccent" xMin="49" yMin="0" xMax="197" yMax="779">
      <contour>
        <pt x="197" y="623" on="1"/>
        <pt x="192" y="604" on="0"/>
        <pt x="187" y="541" on="0"/>
        <pt x="186" y="496" on="1"/>
        <pt x="186" y="312" on="1"/>
        <pt x="186" y="130" on="1"/>
        <pt x="188" y="35" on="0"/>
        <pt x="196" y="0" on="1"/>
        <pt x="49" y="0" on="1"/>
        <pt x="59" y="37" on="0"/>
        <pt x="61" y="129" on="1"/>
        <pt x="61" y="314" on="1"/>
        <pt x="61" y="405" on="0"/>
        <pt x="61" y="518" on="0"/>
        <pt x="60" y="541" on="1"/>
        <pt x="59" y="564" on="0"/>
        <pt x="54" y="604" on="0"/>
        <pt x="49" y="623" on="1"/>
      </contour>
      <contour>
        <pt x="182" y="724" on="1"/>
        <pt x="182" y="701" on="0"/>
        <pt x="150" y="669" on="0"/>
        <pt x="127" y="669" on="1"/>
        <pt x="104" y="669" on="0"/>
        <pt x="72" y="701" on="0"/>
        <pt x="72" y="724" on="1"/>
        <pt x="72" y="747" on="0"/>
        <pt x="104" y="779" on="0"/>
        <pt x="127" y="779" on="1"/>
        <pt x="150" y="779" on="0"/>
        <pt x="182" y="747" on="0"/>
      </contour>
    </TTGlyph>
    <TTGlyph name="Igrave" xMin="29" yMin="0" xMax="197" yMax="861">
      <contour>
        <pt x="197" y="623" on="1"/>
        <pt x="192" y="604" on="0"/>
        <pt x="187" y="541" on="0"/>
        <pt x="186" y="496" on="1"/>
        <pt x="186" y="312" on="1"/>
        <pt x="186" y="130" on="1"/>
        <pt x="188" y="35" on="0"/>
        <pt x="196" y="0" on="1"/>
        <pt x="49" y="0" on="1"/>
        <pt x="59" y="37" on="0"/>
        <pt x="61" y="129" on="1"/>
        <pt x="61" y="314" on="1"/>
        <pt x="61" y="405" on="0"/>
        <pt x="61" y="518" on="0"/>
        <pt x="60" y="541" on="1"/>
        <pt x="59" y="564" on="0"/>
        <pt x="54" y="604" on="0"/>
        <pt x="49" y="623" on="1"/>
      </contour>
      <contour>
        <pt x="156" y="687" on="1"/>
        <pt x="91" y="665" on="1"/>
        <pt x="29" y="832" on="1"/>
        <pt x="112" y="861" on="1"/>
      </contour>
    </TTGlyph>
    <TTGlyph name="Imacron" xMin="-39" yMin="0" xMax="269" yMax="724">
      <contour>
        <pt x="197" y="623" on="1"/>
        <pt x="192" y="604" on="0"/>
        <pt x="187" y="541" on="0"/>
        <pt x="186" y="496" on="1"/>
        <pt x="186" y="312" on="1"/>
        <pt x="186" y="130" on="1"/>
        <pt x="188" y="35" on="0"/>
        <pt x="196" y="0" on="1"/>
        <pt x="49" y="0" on="1"/>
        <pt x="59" y="37" on="0"/>
        <pt x="61" y="129" on="1"/>
        <pt x="61" y="314" on="1"/>
        <pt x="61" y="405" on="0"/>
        <pt x="61" y="518" on="0"/>
        <pt x="60" y="541" on="1"/>
        <pt x="59" y="564" on="0"/>
        <pt x="54" y="604" on="0"/>
        <pt x="49" y="623" on="1"/>
      </contour>
      <contour>
        <pt x="269" y="663" on="1"/>
        <pt x="-39" y="663" on="1"/>
        <pt x="-39" y="724" on="1"/>
        <pt x="269" y="724" on="1"/>
      </contour>
    </TTGlyph>
    <TTGlyph name="Iogonek" xMin="23" yMin="-221" xMax="223" yMax="623">
      <contour>
        <pt x="223" y="-183" on="1"/>
        <pt x="194" y="-221" on="0"/>
        <pt x="116" y="-221" on="1"/>
        <pt x="85" y="-221" on="0"/>
        <pt x="53" y="-192" on="1"/>
        <pt x="23" y="-164" on="0"/>
        <pt x="23" y="-138" on="1"/>
        <pt x="23" y="-49" on="0"/>
        <pt x="69" y="0" on="1"/>
        <pt x="49" y="0" on="1"/>
        <pt x="59" y="37" on="0"/>
        <pt x="61" y="129" on="1"/>
        <pt x="61" y="314" on="1"/>
        <pt x="61" y="405" on="0"/>
        <pt x="61" y="518" on="0"/>
        <pt x="60" y="541" on="1"/>
        <pt x="59" y="564" on="0"/>
        <pt x="54" y="604" on="0"/>
        <pt x="49" y="623" on="1"/>
        <pt x="197" y="623" on="1"/>
        <pt x="192" y="604" on="0"/>
        <pt x="187" y="541" on="0"/>
        <pt x="186" y="496" on="1"/>
        <pt x="186" y="312" on="1"/>
        <pt x="186" y="130" on="1"/>
        <pt x="188" y="35" on="0"/>
        <pt x="196" y="0" on="1"/>
        <pt x="169" y="0" on="1"/>
        <pt x="101" y="-56" on="0"/>
        <pt x="101" y="-109" on="1"/>
        <pt x="101" y="-131" on="0"/>
        <pt x="131" y="-156" on="0"/>
        <pt x="148" y="-155" on="1"/>
        <pt x="165" y="-154" on="0"/>
        <pt x="197" y="-125" on="1"/>
      </contour>
    </TTGlyph>
    <TTGlyph name="Iota" xMin="49" yMin="0" xMax="197" yMax="623">
      <contour>
        <pt x="197" y="623" on="1"/>
        <pt x="192" y="604" on="0"/>
        <pt x="187" y="541" on="0"/>
        <pt x="186" y="496" on="1"/>
        <pt x="186" y="312" on="1"/>
        <pt x="186" y="130" on="1"/>
        <pt x="188" y="35" on="0"/>
        <pt x="196" y="0" on="1"/>
        <pt x="49" y="0" on="1"/>
        <pt x="59" y="37" on="0"/>
        <pt x="61" y="129" on="1"/>
        <pt x="61" y="314" on="1"/>
        <pt x="61" y="405" on="0"/>
        <pt x="61" y="518" on="0"/>
        <pt x="60" y="541" on="1"/>
        <pt x="59" y="564" on="0"/>
        <pt x="54" y="604" on="0"/>
        <pt x="49" y="623" on="1"/>
      </contour>
    </TTGlyph>
    <TTGlyph name="Iotadieresis" xMin="-20" yMin="0" xMax="278" yMax="774">
      <contour>
        <pt x="197" y="623" on="1"/>
        <pt x="192" y="604" on="0"/>
        <pt x="187" y="541" on="0"/>
        <pt x="186" y="496" on="1"/>
        <pt x="186" y="312" on="1"/>
        <pt x="186" y="130" on="1"/>
        <pt x="188" y="35" on="0"/>
        <pt x="196" y="0" on="1"/>
        <pt x="49" y="0" on="1"/>
        <pt x="59" y="37" on="0"/>
        <pt x="61" y="129" on="1"/>
        <pt x="61" y="314" on="1"/>
        <pt x="61" y="405" on="0"/>
        <pt x="61" y="518" on="0"/>
        <pt x="60" y="541" on="1"/>
        <pt x="59" y="564" on="0"/>
        <pt x="54" y="604" on="0"/>
        <pt x="49" y="623" on="1"/>
      </contour>
      <contour>
        <pt x="278" y="719" on="1"/>
        <pt x="278" y="699" on="0"/>
        <pt x="248" y="666" on="0"/>
        <pt x="226" y="666" on="1"/>
        <pt x="205" y="666" on="0"/>
        <pt x="175" y="698" on="0"/>
        <pt x="175" y="719" on="1"/>
        <pt x="175" y="740" on="0"/>
        <pt x="205" y="773" on="0"/>
        <pt x="226" y="773" on="1"/>
        <pt x="247" y="773" on="0"/>
        <pt x="278" y="740" on="0"/>
      </contour>
      <contour>
        <pt x="87" y="721" on="1"/>
        <pt x="87" y="701" on="0"/>
        <pt x="55" y="669" on="0"/>
        <pt x="34" y="669" on="1"/>
        <pt x="12" y="669" on="0"/>
        <pt x="-20" y="700" on="0"/>
        <pt x="-20" y="721" on="1"/>
        <pt x="-20" y="742" on="0"/>
        <pt x="12" y="774" on="0"/>
        <pt x="34" y="774" on="1"/>
        <pt x="55" y="774" on="0"/>
        <pt x="87" y="741" on="0"/>
      </contour>
    </TTGlyph>
    <TTGlyph name="Iotatonos" xMin="-177" yMin="0" xMax="198" yMax="650">
      <contour>
        <pt x="198" y="623" on="1"/>
        <pt x="193" y="604" on="0"/>
        <pt x="188" y="541" on="0"/>
        <pt x="187" y="496" on="1"/>
        <pt x="187" y="312" on="1"/>
        <pt x="187" y="130" on="1"/>
        <pt x="189" y="35" on="0"/>
        <pt x="197" y="0" on="1"/>
        <pt x="50" y="0" on="1"/>
        <pt x="60" y="37" on="0"/>
        <pt x="62" y="129" on="1"/>
        <pt x="62" y="314" on="1"/>
        <pt x="62" y="405" on="0"/>
        <pt x="62" y="518" on="0"/>
        <pt x="61" y="541" on="1"/>
        <pt x="60" y="564" on="0"/>
        <pt x="55" y="604" on="0"/>
        <pt x="50" y="623" on="1"/>
      </contour>
      <contour>
        <pt x="-41" y="620" on="1"/>
        <pt x="-104" y="453" on="1"/>
        <pt x="-177" y="473" on="1"/>
        <pt x="-128" y="650" on="1"/>
      </contour>
    </TTGlyph>
    <TTGlyph name="Itilde" xMin="-67" yMin="0" xMax="314" yMax="811">
      <contour>
        <pt x="197" y="623" on="1"/>
        <pt x="192" y="604" on="0"/>
        <pt x="187" y="541" on="0"/>
        <pt x="186" y="496" on="1"/>
        <pt x="186" y="312" on="1"/>
        <pt x="186" y="130" on="1"/>
        <pt x="188" y="35" on="0"/>
        <pt x="196" y="0" on="1"/>
        <pt x="49" y="0" on="1"/>
        <pt x="59" y="37" on="0"/>
        <pt x="61" y="129" on="1"/>
        <pt x="61" y="314" on="1"/>
        <pt x="61" y="405" on="0"/>
        <pt x="61" y="518" on="0"/>
        <pt x="60" y="541" on="1"/>
        <pt x="59" y="564" on="0"/>
        <pt x="54" y="604" on="0"/>
        <pt x="49" y="623" on="1"/>
      </contour>
      <contour>
        <pt x="314" y="764" on="1"/>
        <pt x="296" y="668" on="0"/>
        <pt x="227" y="668" on="1"/>
        <pt x="174" y="668" on="0"/>
        <pt x="122" y="692" on="1"/>
        <pt x="71" y="717" on="0"/>
        <pt x="44" y="717" on="1"/>
        <pt x="16" y="718" on="0"/>
        <pt x="-1" y="673" on="1"/>
        <pt x="-67" y="696" on="1"/>
        <pt x="-62" y="751" on="0"/>
        <pt x="-31" y="782" on="1"/>
        <pt x="-6" y="807" on="0"/>
        <pt x="23" y="809" on="1"/>
        <pt x="62" y="811" on="0"/>
        <pt x="118" y="786" on="1"/>
        <pt x="176" y="762" on="0"/>
        <pt x="211" y="762" on="1"/>
        <pt x="238" y="762" on="0"/>
        <pt x="240" y="806" on="1"/>
        <pt x="259" y="796" on="0"/>
        <pt x="295" y="775" on="0"/>
      </contour>
    </TTGlyph>
    <TTGlyph name="J" xMin="31" yMin="-11" xMax="337" yMax="624">
      <contour>
        <pt x="337" y="624" on="1"/>
        <pt x="332" y="605" on="0"/>
        <pt x="327" y="544" on="0"/>
        <pt x="326" y="499" on="1"/>
        <pt x="326" y="318" on="1"/>
        <pt x="326" y="95" on="0"/>
        <pt x="301" y="49" on="1"/>
        <pt x="269" y="-11" on="0"/>
        <pt x="170" y="-11" on="1"/>
        <pt x="152" y="-11" on="0"/>
        <pt x="95" y="1" on="1"/>
        <pt x="44" y="11" on="0"/>
        <pt x="31" y="8" on="1"/>
        <pt x="31" y="138" on="1"/>
        <pt x="89" y="138" on="1"/>
        <pt x="94" y="114" on="0"/>
        <pt x="117" y="102" on="1"/>
        <pt x="135" y="94" on="0"/>
        <pt x="150" y="94" on="1"/>
        <pt x="191" y="94" on="0"/>
        <pt x="196" y="135" on="1"/>
        <pt x="202" y="180" on="0"/>
        <pt x="202" y="320" on="1"/>
        <pt x="202" y="411" on="0"/>
        <pt x="202" y="521" on="0"/>
        <pt x="201" y="543" on="1"/>
        <pt x="200" y="565" on="0"/>
        <pt x="195" y="605" on="0"/>
        <pt x="190" y="624" on="1"/>
      </contour>
    </TTGlyph>
    <TTGlyph name="Jcircumflex" xMin="31" yMin="-11" xMax="441" yMax="848">
      <contour>
        <pt x="337" y="624" on="1"/>
        <pt x="332" y="605" on="0"/>
        <pt x="327" y="544" on="0"/>
        <pt x="326" y="499" on="1"/>
        <pt x="326" y="318" on="1"/>
        <pt x="326" y="95" on="0"/>
        <pt x="301" y="49" on="1"/>
        <pt x="269" y="-11" on="0"/>
        <pt x="170" y="-11" on="1"/>
        <pt x="152" y="-11" on="0"/>
        <pt x="95" y="1" on="1"/>
        <pt x="44" y="11" on="0"/>
        <pt x="31" y="8" on="1"/>
        <pt x="31" y="138" on="1"/>
        <pt x="89" y="138" on="1"/>
        <pt x="94" y="114" on="0"/>
        <pt x="117" y="102" on="1"/>
        <pt x="135" y="94" on="0"/>
        <pt x="150" y="94" on="1"/>
        <pt x="191" y="94" on="0"/>
        <pt x="196" y="135" on="1"/>
        <pt x="202" y="180" on="0"/>
        <pt x="202" y="320" on="1"/>
        <pt x="202" y="411" on="0"/>
        <pt x="202" y="521" on="0"/>
        <pt x="201" y="543" on="1"/>
        <pt x="200" y="565" on="0"/>
        <pt x="195" y="605" on="0"/>
        <pt x="190" y="624" on="1"/>
      </contour>
      <contour>
        <pt x="441" y="724" on="1"/>
        <pt x="382" y="666" on="1"/>
        <pt x="360" y="682" on="0"/>
        <pt x="301" y="724" on="0"/>
        <pt x="263" y="751" on="1"/>
        <pt x="242" y="737" on="0"/>
        <pt x="178" y="693" on="0"/>
        <pt x="134" y="663" on="1"/>
        <pt x="85" y="724" on="1"/>
        <pt x="262" y="848" on="1"/>
        <pt x="307" y="817" on="0"/>
        <pt x="396" y="756" on="0"/>
      </contour>
    </TTGlyph>
    <TTGlyph name="K" xMin="40" yMin="0" xMax="647" yMax="623">
      <contour>
        <pt x="189" y="623" on="1"/>
        <pt x="177" y="576" on="0"/>
        <pt x="177" y="326" on="1"/>
        <pt x="238" y="390" on="0"/>
        <pt x="292" y="444" on="1"/>
        <pt x="340" y="492" on="0"/>
        <pt x="393" y="546" on="0"/>
        <pt x="398" y="551" on="1"/>
        <pt x="433" y="591" on="0"/>
        <pt x="435" y="623" on="1"/>
        <pt x="630" y="623" on="1"/>
        <pt x="598" y="599" on="0"/>
        <pt x="535" y="533" on="1"/>
        <pt x="503" y="499" on="0"/>
        <pt x="437" y="433" on="0"/>
        <pt x="405" y="400" on="1"/>
        <pt x="392" y="387" on="0"/>
        <pt x="355" y="351" on="0"/>
        <pt x="332" y="328" on="1"/>
        <pt x="396" y="275" on="0"/>
        <pt x="437" y="238" on="1"/>
        <pt x="583" y="101" on="0"/>
        <pt x="647" y="0" on="1"/>
        <pt x="468" y="0" on="1"/>
        <pt x="454" y="41" on="0"/>
        <pt x="422" y="82" on="1"/>
        <pt x="408" y="99" on="0"/>
        <pt x="356" y="152" on="0"/>
        <pt x="318" y="190" on="1"/>
        <pt x="231" y="276" on="0"/>
        <pt x="177" y="312" on="1"/>
        <pt x="177" y="130" on="1"/>
        <pt x="178" y="83" on="0"/>
        <pt x="183" y="19" on="0"/>
        <pt x="188" y="0" on="1"/>
        <pt x="40" y="0" on="1"/>
        <pt x="51" y="38" on="0"/>
        <pt x="52" y="128" on="1"/>
        <pt x="52" y="313" on="0"/>
        <pt x="52" y="517" on="0"/>
        <pt x="51" y="540" on="1"/>
        <pt x="50" y="563" on="0"/>
        <pt x="45" y="604" on="0"/>
        <pt x="40" y="623" on="1"/>
      </contour>
    </TTGlyph>
    <TTGlyph name="Kappa" xMin="40" yMin="0" xMax="647" yMax="626">
      <contour>
        <pt x="189" y="626" on="1"/>
        <pt x="177" y="579" on="0"/>
        <pt x="177" y="326" on="1"/>
        <pt x="238" y="390" on="0"/>
        <pt x="292" y="444" on="1"/>
        <pt x="381" y="533" on="0"/>
        <pt x="398" y="553" on="1"/>
        <pt x="433" y="594" on="0"/>
        <pt x="435" y="626" on="1"/>
        <pt x="630" y="626" on="1"/>
        <pt x="601" y="603" on="0"/>
        <pt x="535" y="534" on="1"/>
        <pt x="472" y="470" on="0"/>
        <pt x="408" y="403" on="0"/>
        <pt x="405" y="400" on="1"/>
        <pt x="392" y="387" on="0"/>
        <pt x="355" y="351" on="0"/>
        <pt x="332" y="328" on="1"/>
        <pt x="396" y="275" on="0"/>
        <pt x="437" y="238" on="1"/>
        <pt x="583" y="101" on="0"/>
        <pt x="647" y="0" on="1"/>
        <pt x="468" y="0" on="1"/>
        <pt x="454" y="41" on="0"/>
        <pt x="422" y="82" on="1"/>
        <pt x="408" y="99" on="0"/>
        <pt x="356" y="152" on="0"/>
        <pt x="318" y="190" on="1"/>
        <pt x="231" y="276" on="0"/>
        <pt x="177" y="312" on="1"/>
        <pt x="177" y="130" on="1"/>
        <pt x="178" y="83" on="0"/>
        <pt x="183" y="19" on="0"/>
        <pt x="188" y="0" on="1"/>
        <pt x="40" y="0" on="1"/>
        <pt x="51" y="38" on="0"/>
        <pt x="52" y="128" on="1"/>
        <pt x="52" y="314" on="0"/>
        <pt x="52" y="520" on="0"/>
        <pt x="51" y="543" on="1"/>
        <pt x="50" y="566" on="0"/>
        <pt x="45" y="607" on="0"/>
        <pt x="40" y="626" on="1"/>
      </contour>
    </TTGlyph>
    <TTGlyph name="Kcommaaccent" xMin="40" yMin="-302" xMax="647" yMax="623">
      <contour>
        <pt x="189" y="623" on="1"/>
        <pt x="177" y="576" on="0"/>
        <pt x="177" y="326" on="1"/>
        <pt x="238" y="390" on="0"/>
        <pt x="292" y="444" on="1"/>
        <pt x="340" y="492" on="0"/>
        <pt x="393" y="546" on="0"/>
        <pt x="398" y="551" on="1"/>
        <pt x="433" y="591" on="0"/>
        <pt x="435" y="623" on="1"/>
        <pt x="630" y="623" on="1"/>
        <pt x="598" y="599" on="0"/>
        <pt x="535" y="533" on="1"/>
        <pt x="503" y="499" on="0"/>
        <pt x="437" y="433" on="0"/>
        <pt x="405" y="400" on="1"/>
        <pt x="392" y="387" on="0"/>
        <pt x="355" y="351" on="0"/>
        <pt x="332" y="328" on="1"/>
        <pt x="396" y="275" on="0"/>
        <pt x="437" y="238" on="1"/>
        <pt x="583" y="101" on="0"/>
        <pt x="647" y="0" on="1"/>
        <pt x="468" y="0" on="1"/>
        <pt x="454" y="41" on="0"/>
        <pt x="422" y="82" on="1"/>
        <pt x="408" y="99" on="0"/>
        <pt x="356" y="152" on="0"/>
        <pt x="318" y="190" on="1"/>
        <pt x="231" y="276" on="0"/>
        <pt x="177" y="312" on="1"/>
        <pt x="177" y="130" on="1"/>
        <pt x="178" y="83" on="0"/>
        <pt x="183" y="19" on="0"/>
        <pt x="188" y="0" on="1"/>
        <pt x="40" y="0" on="1"/>
        <pt x="51" y="38" on="0"/>
        <pt x="52" y="128" on="1"/>
        <pt x="52" y="313" on="0"/>
        <pt x="52" y="517" on="0"/>
        <pt x="51" y="540" on="1"/>
        <pt x="50" y="563" on="0"/>
        <pt x="45" y="604" on="0"/>
        <pt x="40" y="623" on="1"/>
      </contour>
      <contour>
        <pt x="385" y="-175" on="1"/>
        <pt x="385" y="-288" on="0"/>
        <pt x="269" y="-302" on="1"/>
        <pt x="266" y="-259" on="1"/>
        <pt x="307" y="-251" on="0"/>
        <pt x="307" y="-181" on="1"/>
        <pt x="279" y="-181" on="1"/>
        <pt x="279" y="-114" on="1"/>
        <pt x="385" y="-114" on="1"/>
      </contour>
    </TTGlyph>
    <TTGlyph name="L" xMin="53" yMin="-3" xMax="529" yMax="623">
      <contour>
        <pt x="529" y="-2" on="1"/>
        <pt x="460" y="1" on="0"/>
        <pt x="353" y="4" on="0"/>
        <pt x="313" y="3" on="1"/>
        <pt x="222" y="3" on="0"/>
        <pt x="53" y="-3" on="1"/>
        <pt x="64" y="38" on="0"/>
        <pt x="64" y="324" on="1"/>
        <pt x="64" y="464" on="0"/>
        <pt x="64" y="552" on="0"/>
        <pt x="65" y="501" on="1"/>
        <pt x="64" y="544" on="0"/>
        <pt x="59" y="604" on="0"/>
        <pt x="54" y="623" on="1"/>
        <pt x="200" y="623" on="1"/>
        <pt x="195" y="604" on="0"/>
        <pt x="190" y="538" on="0"/>
        <pt x="189" y="490" on="1"/>
        <pt x="189" y="310" on="1"/>
        <pt x="189" y="254" on="0"/>
        <pt x="188" y="153" on="0"/>
        <pt x="187" y="105" on="1"/>
        <pt x="378" y="105" on="1"/>
        <pt x="432" y="105" on="0"/>
        <pt x="441" y="117" on="1"/>
        <pt x="447" y="126" on="0"/>
        <pt x="450" y="148" on="1"/>
        <pt x="529" y="148" on="1"/>
        <pt x="524" y="46" on="0"/>
      </contour>
    </TTGlyph>
    <TTGlyph name="Lacute" xMin="53" yMin="-3" xMax="529" yMax="864">
      <contour>
        <pt x="529" y="-2" on="1"/>
        <pt x="460" y="1" on="0"/>
        <pt x="353" y="4" on="0"/>
        <pt x="313" y="3" on="1"/>
        <pt x="222" y="3" on="0"/>
        <pt x="53" y="-3" on="1"/>
        <pt x="64" y="38" on="0"/>
        <pt x="64" y="324" on="1"/>
        <pt x="64" y="464" on="0"/>
        <pt x="64" y="552" on="0"/>
        <pt x="65" y="501" on="1"/>
        <pt x="64" y="544" on="0"/>
        <pt x="59" y="604" on="0"/>
        <pt x="54" y="623" on="1"/>
        <pt x="200" y="623" on="1"/>
        <pt x="195" y="604" on="0"/>
        <pt x="190" y="538" on="0"/>
        <pt x="189" y="490" on="1"/>
        <pt x="189" y="310" on="1"/>
        <pt x="189" y="254" on="0"/>
        <pt x="188" y="153" on="0"/>
        <pt x="187" y="105" on="1"/>
        <pt x="378" y="105" on="1"/>
        <pt x="432" y="105" on="0"/>
        <pt x="441" y="117" on="1"/>
        <pt x="447" y="126" on="0"/>
        <pt x="450" y="148" on="1"/>
        <pt x="529" y="148" on="1"/>
        <pt x="524" y="46" on="0"/>
      </contour>
      <contour>
        <pt x="230" y="834" on="1"/>
        <pt x="167" y="667" on="1"/>
        <pt x="94" y="687" on="1"/>
        <pt x="143" y="864" on="1"/>
      </contour>
    </TTGlyph>
    <TTGlyph name="Lambda" xMin="26" yMin="0" xMax="619" yMax="633">
      <contour>
        <pt x="619" y="0" on="1"/>
        <pt x="474" y="0" on="1"/>
        <pt x="469" y="14" on="0"/>
        <pt x="394" y="238" on="0"/>
        <pt x="323" y="451" on="1"/>
        <pt x="323" y="449" on="0"/>
        <pt x="246" y="239" on="1"/>
        <pt x="167" y="26" on="0"/>
        <pt x="161" y="0" on="1"/>
        <pt x="26" y="0" on="1"/>
        <pt x="48" y="49" on="0"/>
        <pt x="167" y="364" on="0"/>
        <pt x="265" y="633" on="1"/>
        <pt x="378" y="633" on="1"/>
        <pt x="409" y="548" on="0"/>
        <pt x="464" y="401" on="0"/>
        <pt x="487" y="338" on="1"/>
        <pt x="600" y="35" on="0"/>
      </contour>
    </TTGlyph>
    <TTGlyph name="Lcaron" xMin="53" yMin="-3" xMax="529" yMax="674">
      <contour>
        <pt x="529" y="-2" on="1"/>
        <pt x="460" y="1" on="0"/>
        <pt x="353" y="4" on="0"/>
        <pt x="313" y="3" on="1"/>
        <pt x="222" y="3" on="0"/>
        <pt x="53" y="-3" on="1"/>
        <pt x="64" y="38" on="0"/>
        <pt x="64" y="324" on="1"/>
        <pt x="64" y="464" on="0"/>
        <pt x="64" y="552" on="0"/>
        <pt x="65" y="501" on="1"/>
        <pt x="64" y="544" on="0"/>
        <pt x="59" y="604" on="0"/>
        <pt x="54" y="623" on="1"/>
        <pt x="200" y="623" on="1"/>
        <pt x="195" y="604" on="0"/>
        <pt x="190" y="538" on="0"/>
        <pt x="189" y="490" on="1"/>
        <pt x="189" y="310" on="1"/>
        <pt x="189" y="254" on="0"/>
        <pt x="188" y="153" on="0"/>
        <pt x="187" y="105" on="1"/>
        <pt x="378" y="105" on="1"/>
        <pt x="432" y="105" on="0"/>
        <pt x="441" y="117" on="1"/>
        <pt x="447" y="126" on="0"/>
        <pt x="450" y="148" on="1"/>
        <pt x="529" y="148" on="1"/>
        <pt x="524" y="46" on="0"/>
      </contour>
      <contour>
        <pt x="523" y="644" on="1"/>
        <pt x="460" y="477" on="1"/>
        <pt x="387" y="497" on="1"/>
        <pt x="436" y="674" on="1"/>
      </contour>
    </TTGlyph>
    <TTGlyph name="Lcommaaccent" xMin="53" yMin="-299" xMax="529" yMax="623">
      <contour>
        <pt x="529" y="-2" on="1"/>
        <pt x="460" y="1" on="0"/>
        <pt x="353" y="4" on="0"/>
        <pt x="313" y="3" on="1"/>
        <pt x="222" y="3" on="0"/>
        <pt x="53" y="-3" on="1"/>
        <pt x="64" y="38" on="0"/>
        <pt x="64" y="324" on="1"/>
        <pt x="64" y="464" on="0"/>
        <pt x="64" y="552" on="0"/>
        <pt x="65" y="501" on="1"/>
        <pt x="64" y="544" on="0"/>
        <pt x="59" y="604" on="0"/>
        <pt x="54" y="623" on="1"/>
        <pt x="200" y="623" on="1"/>
        <pt x="195" y="604" on="0"/>
        <pt x="190" y="538" on="0"/>
        <pt x="189" y="490" on="1"/>
        <pt x="189" y="310" on="1"/>
        <pt x="189" y="254" on="0"/>
        <pt x="188" y="153" on="0"/>
        <pt x="187" y="105" on="1"/>
        <pt x="378" y="105" on="1"/>
        <pt x="432" y="105" on="0"/>
        <pt x="441" y="117" on="1"/>
        <pt x="447" y="126" on="0"/>
        <pt x="450" y="148" on="1"/>
        <pt x="529" y="148" on="1"/>
        <pt x="524" y="46" on="0"/>
      </contour>
      <contour>
        <pt x="353" y="-172" on="1"/>
        <pt x="353" y="-285" on="0"/>
        <pt x="237" y="-299" on="1"/>
        <pt x="234" y="-256" on="1"/>
        <pt x="275" y="-248" on="0"/>
        <pt x="275" y="-178" on="1"/>
        <pt x="247" y="-178" on="1"/>
        <pt x="247" y="-111" on="1"/>
        <pt x="353" y="-111" on="1"/>
      </contour>
    </TTGlyph>
    <TTGlyph name="Ldot" xMin="53" yMin="-3" xMax="529" yMax="623">
      <contour>
        <pt x="529" y="-2" on="1"/>
        <pt x="460" y="1" on="0"/>
        <pt x="353" y="4" on="0"/>
        <pt x="313" y="3" on="1"/>
        <pt x="222" y="3" on="0"/>
        <pt x="53" y="-3" on="1"/>
        <pt x="64" y="38" on="0"/>
        <pt x="64" y="324" on="1"/>
        <pt x="64" y="464" on="0"/>
        <pt x="64" y="552" on="0"/>
        <pt x="65" y="501" on="1"/>
        <pt x="64" y="544" on="0"/>
        <pt x="59" y="604" on="0"/>
        <pt x="54" y="623" on="1"/>
        <pt x="200" y="623" on="1"/>
        <pt x="195" y="604" on="0"/>
        <pt x="190" y="538" on="0"/>
        <pt x="189" y="490" on="1"/>
        <pt x="189" y="310" on="1"/>
        <pt x="189" y="254" on="0"/>
        <pt x="188" y="153" on="0"/>
        <pt x="187" y="105" on="1"/>
        <pt x="378" y="105" on="1"/>
        <pt x="432" y="105" on="0"/>
        <pt x="441" y="117" on="1"/>
        <pt x="447" y="126" on="0"/>
        <pt x="450" y="148" on="1"/>
        <pt x="529" y="148" on="1"/>
        <pt x="524" y="46" on="0"/>
      </contour>
      <contour>
        <pt x="391" y="371" on="1"/>
        <pt x="391" y="348" on="0"/>
        <pt x="359" y="316" on="0"/>
        <pt x="336" y="316" on="1"/>
        <pt x="313" y="316" on="0"/>
        <pt x="281" y="348" on="0"/>
        <pt x="281" y="371" on="1"/>
        <pt x="281" y="394" on="0"/>
        <pt x="313" y="426" on="0"/>
        <pt x="336" y="426" on="1"/>
        <pt x="359" y="426" on="0"/>
        <pt x="391" y="394" on="0"/>
      </contour>
    </TTGlyph>
    <TTGlyph name="Lslash" xMin="-44" yMin="-3" xMax="529" yMax="623">
      <contour>
        <pt x="529" y="-2" on="1"/>
        <pt x="460" y="1" on="0"/>
        <pt x="353" y="4" on="0"/>
        <pt x="313" y="3" on="1"/>
        <pt x="222" y="3" on="0"/>
        <pt x="53" y="-3" on="1"/>
        <pt x="64" y="38" on="0"/>
        <pt x="64" y="229" on="1"/>
        <pt x="-8" y="188" on="1"/>
        <pt x="-44" y="249" on="1"/>
        <pt x="64" y="312" on="1"/>
        <pt x="64" y="324" on="1"/>
        <pt x="64" y="464" on="0"/>
        <pt x="64" y="552" on="0"/>
        <pt x="65" y="501" on="1"/>
        <pt x="64" y="544" on="0"/>
        <pt x="59" y="604" on="0"/>
        <pt x="54" y="623" on="1"/>
        <pt x="200" y="623" on="1"/>
        <pt x="193" y="599" on="0"/>
        <pt x="188" y="480" on="0"/>
        <pt x="189" y="384" on="1"/>
        <pt x="339" y="472" on="1"/>
        <pt x="376" y="409" on="1"/>
        <pt x="189" y="301" on="1"/>
        <pt x="187" y="105" on="1"/>
        <pt x="378" y="105" on="1"/>
        <pt x="432" y="105" on="0"/>
        <pt x="441" y="117" on="1"/>
        <pt x="447" y="126" on="0"/>
        <pt x="450" y="148" on="1"/>
        <pt x="529" y="148" on="1"/>
        <pt x="524" y="46" on="0"/>
      </contour>
    </TTGlyph>
    <TTGlyph name="M" xMin="32" yMin="0" xMax="793" yMax="623">
      <contour>
        <pt x="793" y="623" on="1"/>
        <pt x="778" y="595" on="0"/>
        <pt x="773" y="498" on="1"/>
        <pt x="772" y="479" on="0"/>
        <pt x="771" y="385" on="0"/>
        <pt x="771" y="309" on="1"/>
        <pt x="771" y="126" on="1"/>
        <pt x="772" y="81" on="0"/>
        <pt x="777" y="19" on="0"/>
        <pt x="782" y="0" on="1"/>
        <pt x="636" y="0" on="1"/>
        <pt x="641" y="19" on="0"/>
        <pt x="646" y="82" on="0"/>
        <pt x="647" y="127" on="1"/>
        <pt x="647" y="307" on="1"/>
        <pt x="647" y="435" on="1"/>
        <pt x="618" y="393" on="0"/>
        <pt x="502" y="223" on="0"/>
        <pt x="412" y="92" on="1"/>
        <pt x="178" y="435" on="1"/>
        <pt x="178" y="307" on="1"/>
        <pt x="178" y="127" on="1"/>
        <pt x="179" y="81" on="0"/>
        <pt x="184" y="18" on="0"/>
        <pt x="189" y="0" on="1"/>
        <pt x="42" y="0" on="1"/>
        <pt x="47" y="19" on="0"/>
        <pt x="52" y="81" on="0"/>
        <pt x="53" y="126" on="1"/>
        <pt x="53" y="309" on="1"/>
        <pt x="53" y="385" on="0"/>
        <pt x="53" y="479" on="0"/>
        <pt x="52" y="498" on="1"/>
        <pt x="47" y="595" on="0"/>
        <pt x="32" y="623" on="1"/>
        <pt x="196" y="623" on="1"/>
        <pt x="413" y="309" on="1"/>
        <pt x="630" y="623" on="1"/>
      </contour>
    </TTGlyph>
    <TTGlyph name="Mu" xMin="32" yMin="0" xMax="793" yMax="626">
      <contour>
        <pt x="793" y="626" on="1"/>
        <pt x="778" y="598" on="0"/>
        <pt x="773" y="501" on="1"/>
        <pt x="772" y="482" on="0"/>
        <pt x="771" y="388" on="0"/>
        <pt x="771" y="312" on="1"/>
        <pt x="771" y="128" on="1"/>
        <pt x="772" y="82" on="0"/>
        <pt x="777" y="19" on="0"/>
        <pt x="782" y="0" on="1"/>
        <pt x="636" y="0" on="1"/>
        <pt x="641" y="19" on="0"/>
        <pt x="646" y="83" on="0"/>
        <pt x="647" y="129" on="1"/>
        <pt x="647" y="310" on="1"/>
        <pt x="647" y="438" on="1"/>
        <pt x="618" y="396" on="0"/>
        <pt x="502" y="224" on="0"/>
        <pt x="412" y="92" on="1"/>
        <pt x="178" y="438" on="1"/>
        <pt x="178" y="310" on="1"/>
        <pt x="178" y="129" on="1"/>
        <pt x="179" y="82" on="0"/>
        <pt x="184" y="18" on="0"/>
        <pt x="189" y="0" on="1"/>
        <pt x="42" y="0" on="1"/>
        <pt x="47" y="19" on="0"/>
        <pt x="52" y="82" on="0"/>
        <pt x="53" y="128" on="1"/>
        <pt x="53" y="312" on="1"/>
        <pt x="53" y="388" on="0"/>
        <pt x="53" y="482" on="0"/>
        <pt x="52" y="501" on="1"/>
        <pt x="47" y="598" on="0"/>
        <pt x="32" y="626" on="1"/>
        <pt x="196" y="626" on="1"/>
        <pt x="413" y="312" on="1"/>
        <pt x="630" y="626" on="1"/>
      </contour>
    </TTGlyph>
    <TTGlyph name="N" xMin="32" yMin="0" xMax="687" yMax="623">
      <contour>
        <pt x="687" y="622" on="1"/>
        <pt x="682" y="603" on="0"/>
        <pt x="677" y="539" on="0"/>
        <pt x="676" y="492" on="1"/>
        <pt x="677" y="520" on="0"/>
        <pt x="677" y="427" on="0"/>
        <pt x="677" y="306" on="1"/>
        <pt x="677" y="0" on="1"/>
        <pt x="552" y="0" on="1"/>
        <pt x="504" y="54" on="0"/>
        <pt x="420" y="150" on="0"/>
        <pt x="384" y="193" on="1"/>
        <pt x="208" y="395" on="0"/>
        <pt x="177" y="445" on="1"/>
        <pt x="177" y="306" on="1"/>
        <pt x="177" y="127" on="1"/>
        <pt x="178" y="81" on="0"/>
        <pt x="183" y="18" on="0"/>
        <pt x="188" y="0" on="1"/>
        <pt x="41" y="0" on="1"/>
        <pt x="46" y="19" on="0"/>
        <pt x="51" y="81" on="0"/>
        <pt x="52" y="126" on="1"/>
        <pt x="52" y="308" on="1"/>
        <pt x="52" y="385" on="0"/>
        <pt x="52" y="479" on="0"/>
        <pt x="51" y="498" on="1"/>
        <pt x="46" y="595" on="0"/>
        <pt x="32" y="622" on="1"/>
        <pt x="199" y="622" on="0"/>
        <pt x="199" y="623" on="1"/>
        <pt x="348" y="448" on="0"/>
        <pt x="524" y="235" on="0"/>
        <pt x="552" y="193" on="1"/>
        <pt x="552" y="310" on="1"/>
        <pt x="552" y="421" on="0"/>
        <pt x="552" y="512" on="0"/>
        <pt x="553" y="494" on="1"/>
        <pt x="552" y="584" on="0"/>
        <pt x="541" y="622" on="1"/>
      </contour>
    </TTGlyph>
    <TTGlyph name="Nacute" xMin="32" yMin="0" xMax="687" yMax="866">
      <contour>
        <pt x="687" y="622" on="1"/>
        <pt x="682" y="603" on="0"/>
        <pt x="677" y="539" on="0"/>
        <pt x="676" y="492" on="1"/>
        <pt x="677" y="520" on="0"/>
        <pt x="677" y="427" on="0"/>
        <pt x="677" y="306" on="1"/>
        <pt x="677" y="0" on="1"/>
        <pt x="552" y="0" on="1"/>
        <pt x="504" y="54" on="0"/>
        <pt x="420" y="150" on="0"/>
        <pt x="384" y="193" on="1"/>
        <pt x="208" y="395" on="0"/>
        <pt x="177" y="445" on="1"/>
        <pt x="177" y="306" on="1"/>
        <pt x="177" y="127" on="1"/>
        <pt x="178" y="81" on="0"/>
        <pt x="183" y="18" on="0"/>
        <pt x="188" y="0" on="1"/>
        <pt x="41" y="0" on="1"/>
        <pt x="46" y="19" on="0"/>
        <pt x="51" y="81" on="0"/>
        <pt x="52" y="126" on="1"/>
        <pt x="52" y="308" on="1"/>
        <pt x="52" y="385" on="0"/>
        <pt x="52" y="479" on="0"/>
        <pt x="51" y="498" on="1"/>
        <pt x="46" y="595" on="0"/>
        <pt x="32" y="622" on="1"/>
        <pt x="199" y="622" on="0"/>
        <pt x="199" y="623" on="1"/>
        <pt x="348" y="448" on="0"/>
        <pt x="524" y="235" on="0"/>
        <pt x="552" y="193" on="1"/>
        <pt x="552" y="310" on="1"/>
        <pt x="552" y="421" on="0"/>
        <pt x="552" y="512" on="0"/>
        <pt x="553" y="494" on="1"/>
        <pt x="552" y="584" on="0"/>
        <pt x="541" y="622" on="1"/>
      </contour>
      <contour>
        <pt x="480" y="836" on="1"/>
        <pt x="417" y="669" on="1"/>
        <pt x="344" y="689" on="1"/>
        <pt x="393" y="866" on="1"/>
      </contour>
    </TTGlyph>
    <TTGlyph name="Ncaron" xMin="32" yMin="0" xMax="687" yMax="850">
      <contour>
        <pt x="687" y="622" on="1"/>
        <pt x="682" y="603" on="0"/>
        <pt x="677" y="539" on="0"/>
        <pt x="676" y="492" on="1"/>
        <pt x="677" y="520" on="0"/>
        <pt x="677" y="427" on="0"/>
        <pt x="677" y="306" on="1"/>
        <pt x="677" y="0" on="1"/>
        <pt x="552" y="0" on="1"/>
        <pt x="504" y="54" on="0"/>
        <pt x="420" y="150" on="0"/>
        <pt x="384" y="193" on="1"/>
        <pt x="208" y="395" on="0"/>
        <pt x="177" y="445" on="1"/>
        <pt x="177" y="306" on="1"/>
        <pt x="177" y="127" on="1"/>
        <pt x="178" y="81" on="0"/>
        <pt x="183" y="18" on="0"/>
        <pt x="188" y="0" on="1"/>
        <pt x="41" y="0" on="1"/>
        <pt x="46" y="19" on="0"/>
        <pt x="51" y="81" on="0"/>
        <pt x="52" y="126" on="1"/>
        <pt x="52" y="308" on="1"/>
        <pt x="52" y="385" on="0"/>
        <pt x="52" y="479" on="0"/>
        <pt x="51" y="498" on="1"/>
        <pt x="46" y="595" on="0"/>
        <pt x="32" y="622" on="1"/>
        <pt x="199" y="622" on="0"/>
        <pt x="199" y="623" on="1"/>
        <pt x="348" y="448" on="0"/>
        <pt x="524" y="235" on="0"/>
        <pt x="552" y="193" on="1"/>
        <pt x="552" y="310" on="1"/>
        <pt x="552" y="421" on="0"/>
        <pt x="552" y="512" on="0"/>
        <pt x="553" y="494" on="1"/>
        <pt x="552" y="584" on="0"/>
        <pt x="541" y="622" on="1"/>
      </contour>
      <contour>
        <pt x="556" y="789" on="1"/>
        <pt x="556" y="789" on="0"/>
        <pt x="501" y="744" on="1"/>
        <pt x="470" y="720" on="0"/>
        <pt x="421" y="682" on="0"/>
        <pt x="401" y="668" on="1"/>
        <pt x="355" y="668" on="1"/>
        <pt x="200" y="789" on="1"/>
        <pt x="249" y="850" on="1"/>
        <pt x="266" y="836" on="0"/>
        <pt x="331" y="787" on="0"/>
        <pt x="379" y="752" on="1"/>
        <pt x="400" y="769" on="0"/>
        <pt x="459" y="816" on="0"/>
        <pt x="497" y="847" on="1"/>
      </contour>
    </TTGlyph>
    <TTGlyph name="Ncommaaccent" xMin="32" yMin="-299" xMax="687" yMax="623">
      <contour>
        <pt x="687" y="622" on="1"/>
        <pt x="682" y="603" on="0"/>
        <pt x="677" y="539" on="0"/>
        <pt x="676" y="492" on="1"/>
        <pt x="677" y="520" on="0"/>
        <pt x="677" y="427" on="0"/>
        <pt x="677" y="306" on="1"/>
        <pt x="677" y="0" on="1"/>
        <pt x="552" y="0" on="1"/>
        <pt x="504" y="54" on="0"/>
        <pt x="420" y="150" on="0"/>
        <pt x="384" y="193" on="1"/>
        <pt x="208" y="395" on="0"/>
        <pt x="177" y="445" on="1"/>
        <pt x="177" y="306" on="1"/>
        <pt x="177" y="127" on="1"/>
        <pt x="178" y="81" on="0"/>
        <pt x="183" y="18" on="0"/>
        <pt x="188" y="0" on="1"/>
        <pt x="41" y="0" on="1"/>
        <pt x="46" y="19" on="0"/>
        <pt x="51" y="81" on="0"/>
        <pt x="52" y="126" on="1"/>
        <pt x="52" y="308" on="1"/>
        <pt x="52" y="385" on="0"/>
        <pt x="52" y="479" on="0"/>
        <pt x="51" y="498" on="1"/>
        <pt x="46" y="595" on="0"/>
        <pt x="32" y="622" on="1"/>
        <pt x="199" y="622" on="0"/>
        <pt x="199" y="623" on="1"/>
        <pt x="348" y="448" on="0"/>
        <pt x="524" y="235" on="0"/>
        <pt x="552" y="193" on="1"/>
        <pt x="552" y="310" on="1"/>
        <pt x="552" y="421" on="0"/>
        <pt x="552" y="512" on="0"/>
        <pt x="553" y="494" on="1"/>
        <pt x="552" y="584" on="0"/>
        <pt x="541" y="622" on="1"/>
      </contour>
      <contour>
        <pt x="429" y="-172" on="1"/>
        <pt x="429" y="-285" on="0"/>
        <pt x="313" y="-299" on="1"/>
        <pt x="310" y="-256" on="1"/>
        <pt x="351" y="-248" on="0"/>
        <pt x="351" y="-178" on="1"/>
        <pt x="323" y="-178" on="1"/>
        <pt x="323" y="-111" on="1"/>
        <pt x="429" y="-111" on="1"/>
      </contour>
    </TTGlyph>
    <TTGlyph name="Ntilde" xMin="32" yMin="0" xMax="687" yMax="811">
      <contour>
        <pt x="687" y="622" on="1"/>
        <pt x="682" y="603" on="0"/>
        <pt x="677" y="539" on="0"/>
        <pt x="676" y="492" on="1"/>
        <pt x="677" y="520" on="0"/>
        <pt x="677" y="427" on="0"/>
        <pt x="677" y="306" on="1"/>
        <pt x="677" y="0" on="1"/>
        <pt x="552" y="0" on="1"/>
        <pt x="504" y="54" on="0"/>
        <pt x="420" y="150" on="0"/>
        <pt x="384" y="193" on="1"/>
        <pt x="208" y="395" on="0"/>
        <pt x="177" y="445" on="1"/>
        <pt x="177" y="306" on="1"/>
        <pt x="177" y="127" on="1"/>
        <pt x="178" y="81" on="0"/>
        <pt x="183" y="18" on="0"/>
        <pt x="188" y="0" on="1"/>
        <pt x="41" y="0" on="1"/>
        <pt x="46" y="19" on="0"/>
        <pt x="51" y="81" on="0"/>
        <pt x="52" y="126" on="1"/>
        <pt x="52" y="308" on="1"/>
        <pt x="52" y="385" on="0"/>
        <pt x="52" y="479" on="0"/>
        <pt x="51" y="498" on="1"/>
        <pt x="46" y="595" on="0"/>
        <pt x="32" y="622" on="1"/>
        <pt x="199" y="622" on="0"/>
        <pt x="199" y="623" on="1"/>
        <pt x="348" y="448" on="0"/>
        <pt x="524" y="235" on="0"/>
        <pt x="552" y="193" on="1"/>
        <pt x="552" y="310" on="1"/>
        <pt x="552" y="421" on="0"/>
        <pt x="552" y="512" on="0"/>
        <pt x="553" y="494" on="1"/>
        <pt x="552" y="584" on="0"/>
        <pt x="541" y="622" on="1"/>
      </contour>
      <contour>
        <pt x="570" y="764" on="1"/>
        <pt x="552" y="668" on="0"/>
        <pt x="483" y="668" on="1"/>
        <pt x="430" y="668" on="0"/>
        <pt x="378" y="692" on="1"/>
        <pt x="327" y="717" on="0"/>
        <pt x="300" y="717" on="1"/>
        <pt x="272" y="718" on="0"/>
        <pt x="255" y="673" on="1"/>
        <pt x="189" y="696" on="1"/>
        <pt x="194" y="751" on="0"/>
        <pt x="225" y="782" on="1"/>
        <pt x="250" y="807" on="0"/>
        <pt x="279" y="809" on="1"/>
        <pt x="318" y="811" on="0"/>
        <pt x="374" y="786" on="1"/>
        <pt x="432" y="762" on="0"/>
        <pt x="467" y="762" on="1"/>
        <pt x="494" y="762" on="0"/>
        <pt x="496" y="806" on="1"/>
        <pt x="515" y="796" on="0"/>
        <pt x="551" y="775" on="0"/>
      </contour>
    </TTGlyph>
    <TTGlyph name="Nu" xMin="32" yMin="0" xMax="687" yMax="627">
      <contour>
        <pt x="687" y="626" on="1"/>
        <pt x="682" y="607" on="0"/>
        <pt x="677" y="543" on="0"/>
        <pt x="676" y="496" on="1"/>
        <pt x="677" y="524" on="0"/>
        <pt x="677" y="431" on="0"/>
        <pt x="677" y="310" on="1"/>
        <pt x="677" y="0" on="1"/>
        <pt x="552" y="0" on="1"/>
        <pt x="456" y="109" on="0"/>
        <pt x="384" y="195" on="1"/>
        <pt x="210" y="398" on="0"/>
        <pt x="177" y="449" on="1"/>
        <pt x="177" y="310" on="1"/>
        <pt x="177" y="129" on="1"/>
        <pt x="178" y="82" on="0"/>
        <pt x="183" y="18" on="0"/>
        <pt x="188" y="0" on="1"/>
        <pt x="41" y="0" on="1"/>
        <pt x="46" y="19" on="0"/>
        <pt x="51" y="82" on="0"/>
        <pt x="52" y="128" on="1"/>
        <pt x="52" y="312" on="1"/>
        <pt x="52" y="389" on="0"/>
        <pt x="52" y="483" on="0"/>
        <pt x="51" y="502" on="1"/>
        <pt x="46" y="599" on="0"/>
        <pt x="32" y="626" on="1"/>
        <pt x="199" y="626" on="0"/>
        <pt x="199" y="627" on="1"/>
        <pt x="348" y="450" on="0"/>
        <pt x="524" y="236" on="0"/>
        <pt x="552" y="194" on="1"/>
        <pt x="552" y="311" on="1"/>
        <pt x="552" y="423" on="0"/>
        <pt x="552" y="515" on="0"/>
        <pt x="553" y="496" on="1"/>
        <pt x="552" y="588" on="0"/>
        <pt x="541" y="626" on="1"/>
      </contour>
    </TTGlyph>
    <TTGlyph name="Numero sign" xMin="40" yMin="-6" xMax="1131" yMax="623">
      <contour>
        <pt x="947" y="400" on="1"/>
        <pt x="914" y="400" on="0"/>
        <pt x="864" y="351" on="0"/>
        <pt x="864" y="311" on="1"/>
        <pt x="864" y="289" on="0"/>
        <pt x="879" y="256" on="0"/>
        <pt x="902" y="233" on="0"/>
        <pt x="932" y="222" on="0"/>
        <pt x="947" y="222" on="1"/>
        <pt x="984" y="222" on="0"/>
        <pt x="1024" y="273" on="0"/>
        <pt x="1024" y="311" on="1"/>
        <pt x="1024" y="350" on="0"/>
        <pt x="981" y="400" on="0"/>
      </contour>
      <contour>
        <pt x="758" y="76" on="1"/>
        <pt x="1131" y="76" on="1"/>
        <pt x="1131" y="-6" on="1"/>
        <pt x="758" y="-6" on="1"/>
      </contour>
      <contour>
        <pt x="1130" y="311" on="1"/>
        <pt x="1130" y="272" on="0"/>
        <pt x="1103" y="206" on="0"/>
        <pt x="1054" y="158" on="0"/>
        <pt x="986" y="131" on="0"/>
        <pt x="946" y="131" on="1"/>
        <pt x="905" y="131" on="0"/>
        <pt x="836" y="158" on="0"/>
        <pt x="785" y="206" on="0"/>
        <pt x="757" y="272" on="0"/>
        <pt x="758" y="312" on="1"/>
        <pt x="758" y="351" on="0"/>
        <pt x="788" y="416" on="0"/>
        <pt x="839" y="463" on="0"/>
        <pt x="907" y="489" on="0"/>
        <pt x="946" y="489" on="1"/>
        <pt x="987" y="489" on="0"/>
        <pt x="1055" y="463" on="0"/>
        <pt x="1103" y="417" on="0"/>
        <pt x="1130" y="351" on="0"/>
      </contour>
      <contour>
        <pt x="695" y="622" on="1"/>
        <pt x="690" y="603" on="0"/>
        <pt x="685" y="539" on="0"/>
        <pt x="684" y="492" on="1"/>
        <pt x="685" y="520" on="0"/>
        <pt x="685" y="427" on="0"/>
        <pt x="685" y="306" on="1"/>
        <pt x="685" y="0" on="1"/>
        <pt x="560" y="0" on="1"/>
        <pt x="512" y="54" on="0"/>
        <pt x="428" y="150" on="0"/>
        <pt x="392" y="193" on="1"/>
        <pt x="216" y="395" on="0"/>
        <pt x="185" y="445" on="1"/>
        <pt x="185" y="306" on="1"/>
        <pt x="185" y="127" on="1"/>
        <pt x="186" y="81" on="0"/>
        <pt x="191" y="18" on="0"/>
        <pt x="196" y="0" on="1"/>
        <pt x="49" y="0" on="1"/>
        <pt x="54" y="19" on="0"/>
        <pt x="59" y="81" on="0"/>
        <pt x="60" y="126" on="1"/>
        <pt x="60" y="308" on="1"/>
        <pt x="60" y="385" on="0"/>
        <pt x="60" y="479" on="0"/>
        <pt x="59" y="498" on="1"/>
        <pt x="54" y="595" on="0"/>
        <pt x="40" y="622" on="1"/>
        <pt x="207" y="622" on="0"/>
        <pt x="207" y="623" on="1"/>
        <pt x="356" y="448" on="0"/>
        <pt x="532" y="235" on="0"/>
        <pt x="560" y="193" on="1"/>
        <pt x="560" y="310" on="1"/>
        <pt x="560" y="421" on="0"/>
        <pt x="560" y="512" on="0"/>
        <pt x="561" y="494" on="1"/>
        <pt x="560" y="584" on="0"/>
        <pt x="549" y="622" on="1"/>
      </contour>
    </TTGlyph>
    <TTGlyph name="O" xMin="24" yMin="-10" xMax="635" yMax="635">
      <contour>
        <pt x="633" y="305" on="1"/>
        <pt x="632" y="176" on="0"/>
        <pt x="546" y="84" on="1"/>
        <pt x="458" y="-10" on="0"/>
        <pt x="329" y="-10" on="1"/>
        <pt x="194" y="-10" on="0"/>
        <pt x="109" y="81" on="1"/>
        <pt x="24" y="172" on="0"/>
        <pt x="24" y="303" on="1"/>
        <pt x="24" y="443" on="0"/>
        <pt x="103" y="535" on="1"/>
        <pt x="188" y="635" on="0"/>
        <pt x="329" y="635" on="1"/>
        <pt x="474" y="635" on="0"/>
        <pt x="557" y="540" on="1"/>
        <pt x="635" y="451" on="0"/>
      </contour>
      <contour>
        <pt x="499" y="307" on="1"/>
        <pt x="499" y="399" on="0"/>
        <pt x="456" y="452" on="1"/>
        <pt x="409" y="509" on="0"/>
        <pt x="326" y="509" on="1"/>
        <pt x="247" y="509" on="0"/>
        <pt x="201" y="446" on="1"/>
        <pt x="159" y="389" on="0"/>
        <pt x="159" y="306" on="1"/>
        <pt x="159" y="229" on="0"/>
        <pt x="204" y="174" on="1"/>
        <pt x="253" y="116" on="0"/>
        <pt x="329" y="116" on="1"/>
        <pt x="405" y="116" on="0"/>
        <pt x="453" y="174" on="1"/>
        <pt x="499" y="227" on="0"/>
      </contour>
    </TTGlyph>
    <TTGlyph name="OE" xMin="24" yMin="-12" xMax="913" yMax="648">
      <contour>
        <pt x="913" y="1" on="1"/>
        <pt x="839" y="4" on="0"/>
        <pt x="727" y="7" on="0"/>
        <pt x="687" y="6" on="1"/>
        <pt x="595" y="6" on="0"/>
        <pt x="426" y="0" on="1"/>
        <pt x="391" y="-12" on="0"/>
        <pt x="335" y="-12" on="1"/>
        <pt x="199" y="-12" on="0"/>
        <pt x="110" y="83" on="1"/>
        <pt x="24" y="175" on="0"/>
        <pt x="24" y="310" on="1"/>
        <pt x="24" y="451" on="0"/>
        <pt x="105" y="546" on="1"/>
        <pt x="190" y="648" on="0"/>
        <pt x="335" y="648" on="1"/>
        <pt x="388" y="648" on="0"/>
        <pt x="429" y="636" on="1"/>
        <pt x="479" y="633" on="0"/>
        <pt x="662" y="630" on="1"/>
        <pt x="702" y="629" on="0"/>
        <pt x="814" y="632" on="0"/>
        <pt x="889" y="635" on="1"/>
        <pt x="883" y="584" on="0"/>
        <pt x="889" y="498" on="1"/>
        <pt x="809" y="498" on="1"/>
        <pt x="807" y="514" on="0"/>
        <pt x="807" y="514" on="1"/>
        <pt x="807" y="517" on="0"/>
        <pt x="801" y="523" on="1"/>
        <pt x="797" y="530" on="0"/>
        <pt x="737" y="530" on="1"/>
        <pt x="562" y="530" on="1"/>
        <pt x="560" y="492" on="0"/>
        <pt x="562" y="382" on="1"/>
        <pt x="779" y="382" on="0"/>
        <pt x="812" y="396" on="1"/>
        <pt x="812" y="270" on="1"/>
        <pt x="765" y="285" on="0"/>
        <pt x="562" y="282" on="1"/>
        <pt x="561" y="108" on="1"/>
        <pt x="762" y="108" on="1"/>
        <pt x="817" y="108" on="0"/>
        <pt x="825" y="120" on="1"/>
        <pt x="833" y="129" on="0"/>
        <pt x="834" y="151" on="1"/>
        <pt x="913" y="151" on="1"/>
        <pt x="908" y="49" on="0"/>
      </contour>
      <contour>
        <pt x="437" y="488" on="1"/>
        <pt x="394" y="520" on="0"/>
        <pt x="332" y="520" on="1"/>
        <pt x="252" y="520" on="0"/>
        <pt x="204" y="455" on="1"/>
        <pt x="161" y="397" on="0"/>
        <pt x="161" y="313" on="1"/>
        <pt x="161" y="235" on="0"/>
        <pt x="208" y="177" on="1"/>
        <pt x="257" y="117" on="0"/>
        <pt x="335" y="117" on="1"/>
        <pt x="393" y="117" on="0"/>
        <pt x="437" y="152" on="1"/>
        <pt x="438" y="300" on="0"/>
      </contour>
    </TTGlyph>
    <TTGlyph name="Oacute" xMin="24" yMin="-10" xMax="635" yMax="863">
      <contour>
        <pt x="633" y="305" on="1"/>
        <pt x="632" y="176" on="0"/>
        <pt x="546" y="84" on="1"/>
        <pt x="458" y="-10" on="0"/>
        <pt x="329" y="-10" on="1"/>
        <pt x="194" y="-10" on="0"/>
        <pt x="109" y="81" on="1"/>
        <pt x="24" y="172" on="0"/>
        <pt x="24" y="303" on="1"/>
        <pt x="24" y="443" on="0"/>
        <pt x="103" y="535" on="1"/>
        <pt x="188" y="635" on="0"/>
        <pt x="329" y="635" on="1"/>
        <pt x="474" y="635" on="0"/>
        <pt x="557" y="540" on="1"/>
        <pt x="635" y="451" on="0"/>
      </contour>
      <contour>
        <pt x="499" y="307" on="1"/>
        <pt x="499" y="399" on="0"/>
        <pt x="456" y="452" on="1"/>
        <pt x="409" y="509" on="0"/>
        <pt x="326" y="509" on="1"/>
        <pt x="247" y="509" on="0"/>
        <pt x="201" y="446" on="1"/>
        <pt x="159" y="389" on="0"/>
        <pt x="159" y="306" on="1"/>
        <pt x="159" y="229" on="0"/>
        <pt x="204" y="174" on="1"/>
        <pt x="253" y="116" on="0"/>
        <pt x="329" y="116" on="1"/>
        <pt x="405" y="116" on="0"/>
        <pt x="453" y="174" on="1"/>
        <pt x="499" y="227" on="0"/>
      </contour>
      <contour>
        <pt x="443" y="833" on="1"/>
        <pt x="380" y="666" on="1"/>
        <pt x="307" y="686" on="1"/>
        <pt x="356" y="863" on="1"/>
      </contour>
    </TTGlyph>
    <TTGlyph name="Obreve" xMin="32" yMin="-10" xMax="643" yMax="813">
      <contour>
        <pt x="641" y="305" on="1"/>
        <pt x="640" y="176" on="0"/>
        <pt x="554" y="84" on="1"/>
        <pt x="466" y="-10" on="0"/>
        <pt x="337" y="-10" on="1"/>
        <pt x="202" y="-10" on="0"/>
        <pt x="117" y="81" on="1"/>
        <pt x="32" y="172" on="0"/>
        <pt x="32" y="303" on="1"/>
        <pt x="32" y="443" on="0"/>
        <pt x="111" y="535" on="1"/>
        <pt x="196" y="635" on="0"/>
        <pt x="337" y="635" on="1"/>
        <pt x="482" y="635" on="0"/>
        <pt x="565" y="540" on="1"/>
        <pt x="643" y="451" on="0"/>
      </contour>
      <contour>
        <pt x="507" y="307" on="1"/>
        <pt x="507" y="399" on="0"/>
        <pt x="464" y="452" on="1"/>
        <pt x="417" y="509" on="0"/>
        <pt x="334" y="509" on="1"/>
        <pt x="255" y="509" on="0"/>
        <pt x="209" y="446" on="1"/>
        <pt x="167" y="389" on="0"/>
        <pt x="167" y="306" on="1"/>
        <pt x="167" y="229" on="0"/>
        <pt x="212" y="174" on="1"/>
        <pt x="261" y="116" on="0"/>
        <pt x="337" y="116" on="1"/>
        <pt x="413" y="116" on="0"/>
        <pt x="461" y="174" on="1"/>
        <pt x="507" y="227" on="0"/>
      </contour>
      <contour>
        <pt x="501" y="775" on="1"/>
        <pt x="463" y="721" on="0"/>
        <pt x="436" y="701" on="1"/>
        <pt x="398" y="672" on="0"/>
        <pt x="345" y="672" on="1"/>
        <pt x="292" y="672" on="0"/>
        <pt x="254" y="700" on="1"/>
        <pt x="225" y="721" on="0"/>
        <pt x="185" y="775" on="1"/>
        <pt x="227" y="813" on="1"/>
        <pt x="247" y="789" on="0"/>
        <pt x="275" y="759" on="0"/>
        <pt x="282" y="753" on="1"/>
        <pt x="310" y="728" on="0"/>
        <pt x="345" y="728" on="1"/>
        <pt x="383" y="728" on="0"/>
        <pt x="413" y="755" on="1"/>
        <pt x="421" y="762" on="0"/>
        <pt x="444" y="790" on="0"/>
        <pt x="460" y="812" on="1"/>
      </contour>
    </TTGlyph>
    <TTGlyph name="Ocircumflex" xMin="24" yMin="-10" xMax="635" yMax="850">
      <contour>
        <pt x="633" y="305" on="1"/>
        <pt x="632" y="176" on="0"/>
        <pt x="546" y="84" on="1"/>
        <pt x="458" y="-10" on="0"/>
        <pt x="329" y="-10" on="1"/>
        <pt x="194" y="-10" on="0"/>
        <pt x="109" y="81" on="1"/>
        <pt x="24" y="172" on="0"/>
        <pt x="24" y="303" on="1"/>
        <pt x="24" y="443" on="0"/>
        <pt x="103" y="535" on="1"/>
        <pt x="188" y="635" on="0"/>
        <pt x="329" y="635" on="1"/>
        <pt x="474" y="635" on="0"/>
        <pt x="557" y="540" on="1"/>
        <pt x="635" y="451" on="0"/>
      </contour>
      <contour>
        <pt x="499" y="307" on="1"/>
        <pt x="499" y="399" on="0"/>
        <pt x="456" y="452" on="1"/>
        <pt x="409" y="509" on="0"/>
        <pt x="326" y="509" on="1"/>
        <pt x="247" y="509" on="0"/>
        <pt x="201" y="446" on="1"/>
        <pt x="159" y="389" on="0"/>
        <pt x="159" y="306" on="1"/>
        <pt x="159" y="229" on="0"/>
        <pt x="204" y="174" on="1"/>
        <pt x="253" y="116" on="0"/>
        <pt x="329" y="116" on="1"/>
        <pt x="405" y="116" on="0"/>
        <pt x="453" y="174" on="1"/>
        <pt x="499" y="227" on="0"/>
      </contour>
      <contour>
        <pt x="506" y="726" on="1"/>
        <pt x="447" y="668" on="1"/>
        <pt x="425" y="684" on="0"/>
        <pt x="366" y="726" on="0"/>
        <pt x="328" y="753" on="1"/>
        <pt x="307" y="739" on="0"/>
        <pt x="243" y="695" on="0"/>
        <pt x="199" y="665" on="1"/>
        <pt x="150" y="726" on="1"/>
        <pt x="327" y="850" on="1"/>
        <pt x="372" y="819" on="0"/>
        <pt x="461" y="758" on="0"/>
      </contour>
    </TTGlyph>
    <TTGlyph name="Odieresis" xMin="24" yMin="-10" xMax="635" yMax="775">
      <contour>
        <pt x="633" y="305" on="1"/>
        <pt x="632" y="176" on="0"/>
        <pt x="546" y="84" on="1"/>
        <pt x="458" y="-10" on="0"/>
        <pt x="329" y="-10" on="1"/>
        <pt x="194" y="-10" on="0"/>
        <pt x="109" y="81" on="1"/>
        <pt x="24" y="172" on="0"/>
        <pt x="24" y="303" on="1"/>
        <pt x="24" y="443" on="0"/>
        <pt x="103" y="535" on="1"/>
        <pt x="188" y="635" on="0"/>
        <pt x="329" y="635" on="1"/>
        <pt x="474" y="635" on="0"/>
        <pt x="557" y="540" on="1"/>
        <pt x="635" y="451" on="0"/>
      </contour>
      <contour>
        <pt x="499" y="307" on="1"/>
        <pt x="499" y="399" on="0"/>
        <pt x="456" y="452" on="1"/>
        <pt x="409" y="509" on="0"/>
        <pt x="326" y="509" on="1"/>
        <pt x="247" y="509" on="0"/>
        <pt x="201" y="446" on="1"/>
        <pt x="159" y="389" on="0"/>
        <pt x="159" y="306" on="1"/>
        <pt x="159" y="229" on="0"/>
        <pt x="204" y="174" on="1"/>
        <pt x="253" y="116" on="0"/>
        <pt x="329" y="116" on="1"/>
        <pt x="405" y="116" on="0"/>
        <pt x="453" y="174" on="1"/>
        <pt x="499" y="227" on="0"/>
      </contour>
      <contour>
        <pt x="477" y="720" on="1"/>
        <pt x="477" y="700" on="0"/>
        <pt x="447" y="667" on="0"/>
        <pt x="425" y="667" on="1"/>
        <pt x="404" y="667" on="0"/>
        <pt x="374" y="699" on="0"/>
        <pt x="374" y="720" on="1"/>
        <pt x="374" y="741" on="0"/>
        <pt x="404" y="774" on="0"/>
        <pt x="425" y="774" on="1"/>
        <pt x="446" y="774" on="0"/>
        <pt x="477" y="741" on="0"/>
      </contour>
      <contour>
        <pt x="286" y="722" on="1"/>
        <pt x="286" y="702" on="0"/>
        <pt x="254" y="670" on="0"/>
        <pt x="233" y="670" on="1"/>
        <pt x="211" y="670" on="0"/>
        <pt x="179" y="701" on="0"/>
        <pt x="179" y="722" on="1"/>
        <pt x="179" y="743" on="0"/>
        <pt x="211" y="775" on="0"/>
        <pt x="233" y="775" on="1"/>
        <pt x="254" y="775" on="0"/>
        <pt x="286" y="742" on="0"/>
      </contour>
    </TTGlyph>
    <TTGlyph name="Ograve" xMin="24" yMin="-10" xMax="635" yMax="863">
      <contour>
        <pt x="633" y="305" on="1"/>
        <pt x="632" y="176" on="0"/>
        <pt x="546" y="84" on="1"/>
        <pt x="458" y="-10" on="0"/>
        <pt x="329" y="-10" on="1"/>
        <pt x="194" y="-10" on="0"/>
        <pt x="109" y="81" on="1"/>
        <pt x="24" y="172" on="0"/>
        <pt x="24" y="303" on="1"/>
        <pt x="24" y="443" on="0"/>
        <pt x="103" y="535" on="1"/>
        <pt x="188" y="635" on="0"/>
        <pt x="329" y="635" on="1"/>
        <pt x="474" y="635" on="0"/>
        <pt x="557" y="540" on="1"/>
        <pt x="635" y="451" on="0"/>
      </contour>
      <contour>
        <pt x="499" y="307" on="1"/>
        <pt x="499" y="399" on="0"/>
        <pt x="456" y="452" on="1"/>
        <pt x="409" y="509" on="0"/>
        <pt x="326" y="509" on="1"/>
        <pt x="247" y="509" on="0"/>
        <pt x="201" y="446" on="1"/>
        <pt x="159" y="389" on="0"/>
        <pt x="159" y="306" on="1"/>
        <pt x="159" y="229" on="0"/>
        <pt x="204" y="174" on="1"/>
        <pt x="253" y="116" on="0"/>
        <pt x="329" y="116" on="1"/>
        <pt x="405" y="116" on="0"/>
        <pt x="453" y="174" on="1"/>
        <pt x="499" y="227" on="0"/>
      </contour>
      <contour>
        <pt x="367" y="689" on="1"/>
        <pt x="302" y="667" on="1"/>
        <pt x="240" y="834" on="1"/>
        <pt x="323" y="863" on="1"/>
      </contour>
    </TTGlyph>
    <TTGlyph name="Ohm" xMin="24" yMin="-10" xMax="635" yMax="775">
      <contour>
        <pt x="633" y="305" on="1"/>
        <pt x="632" y="176" on="0"/>
        <pt x="546" y="84" on="1"/>
        <pt x="458" y="-10" on="0"/>
        <pt x="329" y="-10" on="1"/>
        <pt x="194" y="-10" on="0"/>
        <pt x="109" y="81" on="1"/>
        <pt x="24" y="172" on="0"/>
        <pt x="24" y="303" on="1"/>
        <pt x="24" y="443" on="0"/>
        <pt x="103" y="535" on="1"/>
        <pt x="188" y="635" on="0"/>
        <pt x="329" y="635" on="1"/>
        <pt x="474" y="635" on="0"/>
        <pt x="557" y="540" on="1"/>
        <pt x="635" y="451" on="0"/>
      </contour>
      <contour>
        <pt x="499" y="307" on="1"/>
        <pt x="499" y="399" on="0"/>
        <pt x="456" y="452" on="1"/>
        <pt x="409" y="509" on="0"/>
        <pt x="326" y="509" on="1"/>
        <pt x="247" y="509" on="0"/>
        <pt x="201" y="446" on="1"/>
        <pt x="159" y="389" on="0"/>
        <pt x="159" y="306" on="1"/>
        <pt x="159" y="229" on="0"/>
        <pt x="204" y="174" on="1"/>
        <pt x="253" y="116" on="0"/>
        <pt x="329" y="116" on="1"/>
        <pt x="405" y="116" on="0"/>
        <pt x="453" y="174" on="1"/>
        <pt x="499" y="227" on="0"/>
      </contour>
      <contour>
        <pt x="477" y="720" on="1"/>
        <pt x="477" y="700" on="0"/>
        <pt x="447" y="667" on="0"/>
        <pt x="425" y="667" on="1"/>
        <pt x="404" y="667" on="0"/>
        <pt x="374" y="699" on="0"/>
        <pt x="374" y="720" on="1"/>
        <pt x="374" y="741" on="0"/>
        <pt x="404" y="774" on="0"/>
        <pt x="425" y="774" on="1"/>
        <pt x="446" y="774" on="0"/>
        <pt x="477" y="741" on="0"/>
      </contour>
      <contour>
        <pt x="286" y="722" on="1"/>
        <pt x="286" y="702" on="0"/>
        <pt x="254" y="670" on="0"/>
        <pt x="233" y="670" on="1"/>
        <pt x="211" y="670" on="0"/>
        <pt x="179" y="701" on="0"/>
        <pt x="179" y="722" on="1"/>
        <pt x="179" y="743" on="0"/>
        <pt x="211" y="775" on="0"/>
        <pt x="233" y="775" on="1"/>
        <pt x="254" y="775" on="0"/>
        <pt x="286" y="742" on="0"/>
      </contour>
    </TTGlyph>
    <TTGlyph name="Ohungarumlaut" xMin="24" yMin="-10" xMax="635" yMax="862">
      <contour>
        <pt x="633" y="305" on="1"/>
        <pt x="632" y="176" on="0"/>
        <pt x="546" y="84" on="1"/>
        <pt x="458" y="-10" on="0"/>
        <pt x="329" y="-10" on="1"/>
        <pt x="194" y="-10" on="0"/>
        <pt x="109" y="81" on="1"/>
        <pt x="24" y="172" on="0"/>
        <pt x="24" y="303" on="1"/>
        <pt x="24" y="443" on="0"/>
        <pt x="103" y="535" on="1"/>
        <pt x="188" y="635" on="0"/>
        <pt x="329" y="635" on="1"/>
        <pt x="474" y="635" on="0"/>
        <pt x="557" y="540" on="1"/>
        <pt x="635" y="451" on="0"/>
      </contour>
      <contour>
        <pt x="499" y="307" on="1"/>
        <pt x="499" y="399" on="0"/>
        <pt x="456" y="452" on="1"/>
        <pt x="409" y="509" on="0"/>
        <pt x="326" y="509" on="1"/>
        <pt x="247" y="509" on="0"/>
        <pt x="201" y="446" on="1"/>
        <pt x="159" y="389" on="0"/>
        <pt x="159" y="306" on="1"/>
        <pt x="159" y="229" on="0"/>
        <pt x="204" y="174" on="1"/>
        <pt x="253" y="116" on="0"/>
        <pt x="329" y="116" on="1"/>
        <pt x="405" y="116" on="0"/>
        <pt x="453" y="174" on="1"/>
        <pt x="499" y="227" on="0"/>
      </contour>
      <contour>
        <pt x="514" y="832" on="1"/>
        <pt x="451" y="665" on="1"/>
        <pt x="378" y="685" on="1"/>
        <pt x="427" y="862" on="1"/>
      </contour>
      <contour>
        <pt x="374" y="832" on="1"/>
        <pt x="311" y="665" on="1"/>
        <pt x="238" y="685" on="1"/>
        <pt x="287" y="862" on="1"/>
      </contour>
    </TTGlyph>
    <TTGlyph name="Omacron" xMin="24" yMin="-10" xMax="635" yMax="727">
      <contour>
        <pt x="633" y="305" on="1"/>
        <pt x="632" y="176" on="0"/>
        <pt x="546" y="84" on="1"/>
        <pt x="458" y="-10" on="0"/>
        <pt x="329" y="-10" on="1"/>
        <pt x="194" y="-10" on="0"/>
        <pt x="109" y="81" on="1"/>
        <pt x="24" y="172" on="0"/>
        <pt x="24" y="303" on="1"/>
        <pt x="24" y="443" on="0"/>
        <pt x="103" y="535" on="1"/>
        <pt x="188" y="635" on="0"/>
        <pt x="329" y="635" on="1"/>
        <pt x="474" y="635" on="0"/>
        <pt x="557" y="540" on="1"/>
        <pt x="635" y="451" on="0"/>
      </contour>
      <contour>
        <pt x="499" y="307" on="1"/>
        <pt x="499" y="399" on="0"/>
        <pt x="456" y="452" on="1"/>
        <pt x="409" y="509" on="0"/>
        <pt x="326" y="509" on="1"/>
        <pt x="247" y="509" on="0"/>
        <pt x="201" y="446" on="1"/>
        <pt x="159" y="389" on="0"/>
        <pt x="159" y="306" on="1"/>
        <pt x="159" y="229" on="0"/>
        <pt x="204" y="174" on="1"/>
        <pt x="253" y="116" on="0"/>
        <pt x="329" y="116" on="1"/>
        <pt x="405" y="116" on="0"/>
        <pt x="453" y="174" on="1"/>
        <pt x="499" y="227" on="0"/>
      </contour>
      <contour>
        <pt x="482" y="666" on="1"/>
        <pt x="174" y="666" on="1"/>
        <pt x="174" y="727" on="1"/>
        <pt x="482" y="727" on="1"/>
      </contour>
    </TTGlyph>
    <TTGlyph name="Omega" xMin="39" yMin="0" xMax="645" yMax="643">
      <contour>
        <pt x="645" y="136" on="1"/>
        <pt x="644" y="129" on="0"/>
        <pt x="642" y="96" on="0"/>
        <pt x="641" y="70" on="1"/>
        <pt x="639" y="12" on="0"/>
        <pt x="642" y="0" on="1"/>
        <pt x="382" y="0" on="1"/>
        <pt x="382" y="49" on="1"/>
        <pt x="379" y="158" on="0"/>
        <pt x="431" y="222" on="1"/>
        <pt x="500" y="304" on="0"/>
        <pt x="498" y="379" on="1"/>
        <pt x="496" y="448" on="0"/>
        <pt x="414" y="525" on="0"/>
        <pt x="342" y="525" on="1"/>
        <pt x="270" y="525" on="0"/>
        <pt x="188" y="448" on="0"/>
        <pt x="186" y="379" on="1"/>
        <pt x="184" y="308" on="0"/>
        <pt x="252" y="222" on="1"/>
        <pt x="308" y="153" on="0"/>
        <pt x="303" y="49" on="1"/>
        <pt x="303" y="0" on="1"/>
        <pt x="42" y="0" on="1"/>
        <pt x="44" y="14" on="0"/>
        <pt x="42" y="70" on="1"/>
        <pt x="40" y="124" on="0"/>
        <pt x="39" y="136" on="1"/>
        <pt x="119" y="136" on="1"/>
        <pt x="121" y="125" on="0"/>
        <pt x="127" y="116" on="1"/>
        <pt x="137" y="102" on="0"/>
        <pt x="181" y="104" on="1"/>
        <pt x="187" y="104" on="1"/>
        <pt x="185" y="119" on="0"/>
        <pt x="166" y="138" on="1"/>
        <pt x="117" y="186" on="0"/>
        <pt x="55" y="310" on="0"/>
        <pt x="53" y="368" on="1"/>
        <pt x="50" y="479" on="0"/>
        <pt x="128" y="559" on="1"/>
        <pt x="210" y="643" on="0"/>
        <pt x="343" y="643" on="1"/>
        <pt x="477" y="643" on="0"/>
        <pt x="557" y="565" on="1"/>
        <pt x="632" y="491" on="0"/>
        <pt x="632" y="373" on="1"/>
        <pt x="632" y="313" on="0"/>
        <pt x="599" y="244" on="1"/>
        <pt x="567" y="175" on="0"/>
        <pt x="518" y="138" on="1"/>
        <pt x="498" y="122" on="0"/>
        <pt x="499" y="104" on="1"/>
        <pt x="505" y="104" on="1"/>
        <pt x="539" y="103" on="0"/>
        <pt x="557" y="116" on="1"/>
        <pt x="563" y="121" on="0"/>
        <pt x="565" y="136" on="1"/>
      </contour>
    </TTGlyph>
    <TTGlyph name="Omega.alt" xMin="11" yMin="-15" xMax="748" yMax="635">
      <contour>
        <pt x="748" y="244" on="1"/>
        <pt x="748" y="114" on="0"/>
        <pt x="679" y="44" on="1"/>
        <pt x="627" y="-9" on="0"/>
        <pt x="568" y="-11" on="1"/>
        <pt x="411" y="-15" on="0"/>
        <pt x="378" y="131" on="1"/>
        <pt x="338" y="-11" on="0"/>
        <pt x="169" y="-11" on="1"/>
        <pt x="121" y="-11" on="0"/>
        <pt x="77" y="33" on="1"/>
        <pt x="11" y="98" on="0"/>
        <pt x="15" y="231" on="1"/>
        <pt x="23" y="452" on="0"/>
        <pt x="176" y="635" on="1"/>
        <pt x="285" y="564" on="1"/>
        <pt x="240" y="525" on="0"/>
        <pt x="223" y="491" on="1"/>
        <pt x="149" y="349" on="0"/>
        <pt x="149" y="234" on="1"/>
        <pt x="149" y="114" on="0"/>
        <pt x="217" y="114" on="1"/>
        <pt x="231" y="114" on="0"/>
        <pt x="258" y="127" on="0"/>
        <pt x="281" y="149" on="0"/>
        <pt x="297" y="179" on="0"/>
        <pt x="300" y="197" on="1"/>
        <pt x="309" y="257" on="0"/>
        <pt x="309" y="300" on="1"/>
        <pt x="309" y="318" on="0"/>
        <pt x="303" y="359" on="0"/>
        <pt x="298" y="382" on="1"/>
        <pt x="465" y="382" on="1"/>
        <pt x="455" y="343" on="0"/>
        <pt x="455" y="285" on="1"/>
        <pt x="455" y="262" on="0"/>
        <pt x="458" y="217" on="0"/>
        <pt x="462" y="194" on="1"/>
        <pt x="468" y="159" on="0"/>
        <pt x="514" y="115" on="0"/>
        <pt x="542" y="115" on="1"/>
        <pt x="574" y="115" on="0"/>
        <pt x="594" y="144" on="1"/>
        <pt x="617" y="176" on="0"/>
        <pt x="619" y="240" on="1"/>
        <pt x="620" y="325" on="0"/>
        <pt x="589" y="400" on="1"/>
        <pt x="581" y="421" on="0"/>
        <pt x="546" y="482" on="1"/>
        <pt x="535" y="501" on="0"/>
        <pt x="521" y="525" on="0"/>
        <pt x="517" y="531" on="1"/>
        <pt x="500" y="556" on="0"/>
        <pt x="487" y="564" on="1"/>
        <pt x="592" y="635" on="1"/>
        <pt x="638" y="589" on="0"/>
        <pt x="670" y="535" on="1"/>
        <pt x="748" y="403" on="0"/>
      </contour>
    </TTGlyph>
    <TTGlyph name="Omegatonos" xMin="-125" yMin="0" xMax="650" yMax="650">
      <contour>
        <pt x="650" y="136" on="1"/>
        <pt x="649" y="129" on="0"/>
        <pt x="647" y="96" on="0"/>
        <pt x="646" y="70" on="1"/>
        <pt x="644" y="12" on="0"/>
        <pt x="647" y="0" on="1"/>
        <pt x="387" y="0" on="1"/>
        <pt x="387" y="49" on="1"/>
        <pt x="384" y="158" on="0"/>
        <pt x="436" y="222" on="1"/>
        <pt x="505" y="304" on="0"/>
        <pt x="503" y="379" on="1"/>
        <pt x="501" y="448" on="0"/>
        <pt x="419" y="525" on="0"/>
        <pt x="347" y="525" on="1"/>
        <pt x="275" y="525" on="0"/>
        <pt x="193" y="448" on="0"/>
        <pt x="191" y="379" on="1"/>
        <pt x="189" y="308" on="0"/>
        <pt x="257" y="222" on="1"/>
        <pt x="313" y="153" on="0"/>
        <pt x="308" y="49" on="1"/>
        <pt x="308" y="0" on="1"/>
        <pt x="47" y="0" on="1"/>
        <pt x="49" y="14" on="0"/>
        <pt x="47" y="70" on="1"/>
        <pt x="45" y="124" on="0"/>
        <pt x="44" y="136" on="1"/>
        <pt x="124" y="136" on="1"/>
        <pt x="126" y="125" on="0"/>
        <pt x="132" y="116" on="1"/>
        <pt x="142" y="102" on="0"/>
        <pt x="186" y="104" on="1"/>
        <pt x="192" y="104" on="1"/>
        <pt x="190" y="119" on="0"/>
        <pt x="171" y="138" on="1"/>
        <pt x="122" y="186" on="0"/>
        <pt x="60" y="310" on="0"/>
        <pt x="58" y="368" on="1"/>
        <pt x="55" y="479" on="0"/>
        <pt x="133" y="559" on="1"/>
        <pt x="215" y="643" on="0"/>
        <pt x="348" y="643" on="1"/>
        <pt x="482" y="643" on="0"/>
        <pt x="562" y="565" on="1"/>
        <pt x="637" y="491" on="0"/>
        <pt x="637" y="373" on="1"/>
        <pt x="637" y="313" on="0"/>
        <pt x="604" y="244" on="1"/>
        <pt x="572" y="175" on="0"/>
        <pt x="523" y="138" on="1"/>
        <pt x="503" y="122" on="0"/>
        <pt x="504" y="104" on="1"/>
        <pt x="510" y="104" on="1"/>
        <pt x="544" y="103" on="0"/>
        <pt x="562" y="116" on="1"/>
        <pt x="568" y="121" on="0"/>
        <pt x="570" y="136" on="1"/>
      </contour>
      <contour>
        <pt x="11" y="620" on="1"/>
        <pt x="-52" y="453" on="1"/>
        <pt x="-125" y="473" on="1"/>
        <pt x="-76" y="650" on="1"/>
      </contour>
    </TTGlyph>
    <TTGlyph name="Omicron" xMin="27" yMin="-14" xMax="651" yMax="646">
      <contour>
        <pt x="648" y="310" on="1"/>
        <pt x="647" y="178" on="0"/>
        <pt x="559" y="83" on="1"/>
        <pt x="471" y="-14" on="0"/>
        <pt x="338" y="-14" on="1"/>
        <pt x="201" y="-14" on="0"/>
        <pt x="113" y="82" on="1"/>
        <pt x="27" y="174" on="0"/>
        <pt x="27" y="308" on="1"/>
        <pt x="27" y="450" on="0"/>
        <pt x="108" y="545" on="1"/>
        <pt x="194" y="646" on="0"/>
        <pt x="338" y="646" on="1"/>
        <pt x="487" y="646" on="0"/>
        <pt x="571" y="550" on="1"/>
        <pt x="651" y="458" on="0"/>
      </contour>
      <contour>
        <pt x="511" y="312" on="1"/>
        <pt x="511" y="405" on="0"/>
        <pt x="468" y="460" on="1"/>
        <pt x="422" y="518" on="0"/>
        <pt x="335" y="518" on="1"/>
        <pt x="255" y="518" on="0"/>
        <pt x="207" y="454" on="1"/>
        <pt x="165" y="395" on="0"/>
        <pt x="165" y="311" on="1"/>
        <pt x="165" y="231" on="0"/>
        <pt x="211" y="176" on="1"/>
        <pt x="260" y="116" on="0"/>
        <pt x="338" y="116" on="1"/>
        <pt x="415" y="116" on="0"/>
        <pt x="465" y="175" on="1"/>
        <pt x="511" y="230" on="0"/>
      </contour>
    </TTGlyph>
    <TTGlyph name="Omicrontonos" xMin="-128" yMin="-9" xMax="657" yMax="651">
      <contour>
        <pt x="654" y="315" on="1"/>
        <pt x="653" y="183" on="0"/>
        <pt x="565" y="88" on="1"/>
        <pt x="477" y="-9" on="0"/>
        <pt x="344" y="-9" on="1"/>
        <pt x="207" y="-9" on="0"/>
        <pt x="119" y="87" on="1"/>
        <pt x="33" y="179" on="0"/>
        <pt x="33" y="313" on="1"/>
        <pt x="33" y="455" on="0"/>
        <pt x="114" y="550" on="1"/>
        <pt x="200" y="651" on="0"/>
        <pt x="344" y="651" on="1"/>
        <pt x="493" y="651" on="0"/>
        <pt x="577" y="555" on="1"/>
        <pt x="657" y="463" on="0"/>
      </contour>
      <contour>
        <pt x="517" y="317" on="1"/>
        <pt x="517" y="410" on="0"/>
        <pt x="474" y="465" on="1"/>
        <pt x="428" y="523" on="0"/>
        <pt x="341" y="523" on="1"/>
        <pt x="261" y="523" on="0"/>
        <pt x="213" y="459" on="1"/>
        <pt x="171" y="400" on="0"/>
        <pt x="171" y="316" on="1"/>
        <pt x="171" y="236" on="0"/>
        <pt x="217" y="181" on="1"/>
        <pt x="266" y="121" on="0"/>
        <pt x="344" y="121" on="1"/>
        <pt x="421" y="121" on="0"/>
        <pt x="471" y="180" on="1"/>
        <pt x="517" y="235" on="0"/>
      </contour>
      <contour>
        <pt x="8" y="619" on="1"/>
        <pt x="-55" y="452" on="1"/>
        <pt x="-128" y="472" on="1"/>
        <pt x="-79" y="649" on="1"/>
      </contour>
    </TTGlyph>
    <TTGlyph name="Oslash" xMin="25" yMin="-99" xMax="648" yMax="764">
      <contour>
        <pt x="646" y="312" on="1"/>
        <pt x="645" y="176" on="0"/>
        <pt x="554" y="81" on="1"/>
        <pt x="464" y="-12" on="0"/>
        <pt x="335" y="-12" on="1"/>
        <pt x="303" y="-12" on="0"/>
        <pt x="272" y="-6" on="1"/>
        <pt x="242" y="-99" on="1"/>
        <pt x="150" y="-99" on="1"/>
        <pt x="190" y="22" on="1"/>
        <pt x="112" y="64" on="0"/>
        <pt x="25" y="216" on="0"/>
        <pt x="25" y="310" on="1"/>
        <pt x="25" y="458" on="0"/>
        <pt x="111" y="553" on="1"/>
        <pt x="198" y="648" on="0"/>
        <pt x="336" y="648" on="1"/>
        <pt x="350" y="648" on="0"/>
        <pt x="378" y="646" on="0"/>
        <pt x="392" y="644" on="1"/>
        <pt x="431" y="764" on="1"/>
        <pt x="523" y="764" on="1"/>
        <pt x="476" y="620" on="1"/>
        <pt x="560" y="582" on="0"/>
        <pt x="648" y="419" on="0"/>
      </contour>
      <contour>
        <pt x="509" y="314" on="1"/>
        <pt x="509" y="438" on="0"/>
        <pt x="434" y="491" on="1"/>
        <pt x="313" y="118" on="1"/>
        <pt x="319" y="117" on="0"/>
        <pt x="331" y="117" on="0"/>
        <pt x="337" y="117" on="1"/>
        <pt x="413" y="117" on="0"/>
        <pt x="461" y="175" on="1"/>
        <pt x="509" y="233" on="0"/>
      </contour>
      <contour>
        <pt x="351" y="519" on="1"/>
        <pt x="262" y="526" on="0"/>
        <pt x="210" y="462" on="1"/>
        <pt x="162" y="403" on="0"/>
        <pt x="162" y="313" on="1"/>
        <pt x="162" y="211" on="0"/>
        <pt x="232" y="153" on="1"/>
      </contour>
    </TTGlyph>
    <TTGlyph name="Oslashacute" xMin="25" yMin="-99" xMax="648" yMax="866">
      <contour>
        <pt x="646" y="312" on="1"/>
        <pt x="645" y="176" on="0"/>
        <pt x="554" y="81" on="1"/>
        <pt x="464" y="-12" on="0"/>
        <pt x="335" y="-12" on="1"/>
        <pt x="303" y="-12" on="0"/>
        <pt x="272" y="-6" on="1"/>
        <pt x="242" y="-99" on="1"/>
        <pt x="150" y="-99" on="1"/>
        <pt x="190" y="22" on="1"/>
        <pt x="112" y="64" on="0"/>
        <pt x="25" y="216" on="0"/>
        <pt x="25" y="310" on="1"/>
        <pt x="25" y="458" on="0"/>
        <pt x="111" y="553" on="1"/>
        <pt x="198" y="648" on="0"/>
        <pt x="336" y="648" on="1"/>
        <pt x="350" y="648" on="0"/>
        <pt x="378" y="646" on="0"/>
        <pt x="392" y="644" on="1"/>
        <pt x="431" y="764" on="1"/>
        <pt x="523" y="764" on="1"/>
        <pt x="476" y="620" on="1"/>
        <pt x="560" y="582" on="0"/>
        <pt x="648" y="419" on="0"/>
      </contour>
      <contour>
        <pt x="509" y="314" on="1"/>
        <pt x="509" y="438" on="0"/>
        <pt x="434" y="491" on="1"/>
        <pt x="313" y="118" on="1"/>
        <pt x="319" y="117" on="0"/>
        <pt x="331" y="117" on="0"/>
        <pt x="337" y="117" on="1"/>
        <pt x="413" y="117" on="0"/>
        <pt x="461" y="175" on="1"/>
        <pt x="509" y="233" on="0"/>
      </contour>
      <contour>
        <pt x="351" y="519" on="1"/>
        <pt x="262" y="526" on="0"/>
        <pt x="210" y="462" on="1"/>
        <pt x="162" y="403" on="0"/>
        <pt x="162" y="313" on="1"/>
        <pt x="162" y="211" on="0"/>
        <pt x="232" y="153" on="1"/>
      </contour>
      <contour>
        <pt x="395" y="836" on="1"/>
        <pt x="332" y="669" on="1"/>
        <pt x="259" y="689" on="1"/>
        <pt x="308" y="866" on="1"/>
      </contour>
    </TTGlyph>
    <TTGlyph name="Otilde" xMin="24" yMin="-10" xMax="635" yMax="809">
      <contour>
        <pt x="633" y="305" on="1"/>
        <pt x="632" y="176" on="0"/>
        <pt x="546" y="84" on="1"/>
        <pt x="458" y="-10" on="0"/>
        <pt x="329" y="-10" on="1"/>
        <pt x="194" y="-10" on="0"/>
        <pt x="109" y="81" on="1"/>
        <pt x="24" y="172" on="0"/>
        <pt x="24" y="303" on="1"/>
        <pt x="24" y="443" on="0"/>
        <pt x="103" y="535" on="1"/>
        <pt x="188" y="635" on="0"/>
        <pt x="329" y="635" on="1"/>
        <pt x="474" y="635" on="0"/>
        <pt x="557" y="540" on="1"/>
        <pt x="635" y="451" on="0"/>
      </contour>
      <contour>
        <pt x="499" y="307" on="1"/>
        <pt x="499" y="399" on="0"/>
        <pt x="456" y="452" on="1"/>
        <pt x="409" y="509" on="0"/>
        <pt x="326" y="509" on="1"/>
        <pt x="247" y="509" on="0"/>
        <pt x="201" y="446" on="1"/>
        <pt x="159" y="389" on="0"/>
        <pt x="159" y="306" on="1"/>
        <pt x="159" y="229" on="0"/>
        <pt x="204" y="174" on="1"/>
        <pt x="253" y="116" on="0"/>
        <pt x="329" y="116" on="1"/>
        <pt x="405" y="116" on="0"/>
        <pt x="453" y="174" on="1"/>
        <pt x="499" y="227" on="0"/>
      </contour>
      <contour>
        <pt x="516" y="762" on="1"/>
        <pt x="498" y="666" on="0"/>
        <pt x="429" y="666" on="1"/>
        <pt x="376" y="666" on="0"/>
        <pt x="324" y="690" on="1"/>
        <pt x="273" y="715" on="0"/>
        <pt x="246" y="715" on="1"/>
        <pt x="218" y="716" on="0"/>
        <pt x="201" y="671" on="1"/>
        <pt x="135" y="694" on="1"/>
        <pt x="140" y="749" on="0"/>
        <pt x="171" y="780" on="1"/>
        <pt x="196" y="805" on="0"/>
        <pt x="225" y="807" on="1"/>
        <pt x="264" y="809" on="0"/>
        <pt x="320" y="784" on="1"/>
        <pt x="378" y="760" on="0"/>
        <pt x="413" y="760" on="1"/>
        <pt x="440" y="760" on="0"/>
        <pt x="442" y="804" on="1"/>
        <pt x="461" y="794" on="0"/>
        <pt x="497" y="773" on="0"/>
      </contour>
    </TTGlyph>
    <TTGlyph name="P" xMin="52" yMin="0" xMax="535" yMax="623">
      <contour>
        <pt x="535" y="428" on="1"/>
        <pt x="535" y="303" on="0"/>
        <pt x="453" y="255" on="1"/>
        <pt x="408" y="228" on="0"/>
        <pt x="329" y="224" on="1"/>
        <pt x="320" y="224" on="0"/>
        <pt x="285" y="223" on="0"/>
        <pt x="243" y="222" on="0"/>
        <pt x="202" y="222" on="0"/>
        <pt x="187" y="222" on="1"/>
        <pt x="187" y="216" on="0"/>
        <pt x="188" y="217" on="0"/>
        <pt x="188" y="206" on="0"/>
        <pt x="188" y="169" on="0"/>
        <pt x="188" y="125" on="1"/>
        <pt x="188" y="114" on="0"/>
        <pt x="189" y="79" on="0"/>
        <pt x="193" y="43" on="0"/>
        <pt x="197" y="9" on="0"/>
        <pt x="200" y="0" on="1"/>
        <pt x="52" y="0" on="1"/>
        <pt x="57" y="19" on="0"/>
        <pt x="62" y="80" on="0"/>
        <pt x="63" y="125" on="1"/>
        <pt x="63" y="309" on="1"/>
        <pt x="63" y="493" on="1"/>
        <pt x="62" y="540" on="0"/>
        <pt x="57" y="604" on="0"/>
        <pt x="52" y="623" on="1"/>
        <pt x="331" y="623" on="1"/>
        <pt x="402" y="623" on="0"/>
        <pt x="451" y="595" on="1"/>
        <pt x="535" y="548" on="0"/>
      </contour>
      <contour>
        <pt x="404" y="426" on="1"/>
        <pt x="404" y="481" on="0"/>
        <pt x="372" y="504" on="1"/>
        <pt x="347" y="523" on="0"/>
        <pt x="289" y="523" on="1"/>
        <pt x="191" y="523" on="1"/>
        <pt x="191" y="325" on="1"/>
        <pt x="289" y="325" on="1"/>
        <pt x="334" y="325" on="0"/>
        <pt x="355" y="333" on="1"/>
        <pt x="405" y="354" on="0"/>
      </contour>
    </TTGlyph>
    <TTGlyph name="Phi" xMin="36" yMin="0" xMax="704" yMax="625">
      <contour>
        <pt x="703" y="322" on="1"/>
        <pt x="704" y="186" on="0"/>
        <pt x="608" y="121" on="1"/>
        <pt x="537" y="73" on="0"/>
        <pt x="435" y="73" on="1"/>
        <pt x="436" y="59" on="0"/>
        <pt x="440" y="23" on="0"/>
        <pt x="442" y="0" on="1"/>
        <pt x="294" y="0" on="1"/>
        <pt x="299" y="13" on="0"/>
        <pt x="304" y="74" on="1"/>
        <pt x="201" y="74" on="0"/>
        <pt x="131" y="122" on="1"/>
        <pt x="36" y="187" on="0"/>
        <pt x="37" y="322" on="1"/>
        <pt x="39" y="444" on="0"/>
        <pt x="123" y="512" on="1"/>
        <pt x="197" y="573" on="0"/>
        <pt x="303" y="573" on="1"/>
        <pt x="302" y="599" on="0"/>
        <pt x="294" y="625" on="1"/>
        <pt x="441" y="625" on="1"/>
        <pt x="440" y="610" on="0"/>
        <pt x="435" y="573" on="1"/>
        <pt x="542" y="573" on="0"/>
        <pt x="616" y="512" on="1"/>
        <pt x="702" y="443" on="0"/>
      </contour>
      <contour>
        <pt x="570" y="323" on="1"/>
        <pt x="570" y="380" on="0"/>
        <pt x="529" y="424" on="1"/>
        <pt x="489" y="467" on="0"/>
        <pt x="432" y="467" on="1"/>
        <pt x="430" y="434" on="0"/>
        <pt x="432" y="396" on="1"/>
        <pt x="433" y="368" on="0"/>
        <pt x="433" y="326" on="0"/>
        <pt x="433" y="311" on="1"/>
        <pt x="433" y="178" on="0"/>
        <pt x="467" y="178" on="1"/>
        <pt x="503" y="178" on="0"/>
        <pt x="540" y="230" on="1"/>
        <pt x="570" y="270" on="0"/>
      </contour>
      <contour>
        <pt x="306" y="427" on="1"/>
        <pt x="306" y="435" on="0"/>
        <pt x="306" y="455" on="0"/>
        <pt x="305" y="468" on="1"/>
        <pt x="248" y="468" on="0"/>
        <pt x="208" y="425" on="1"/>
        <pt x="169" y="383" on="0"/>
        <pt x="169" y="324" on="1"/>
        <pt x="169" y="261" on="0"/>
        <pt x="206" y="220" on="1"/>
        <pt x="244" y="179" on="0"/>
        <pt x="304" y="179" on="1"/>
        <pt x="305" y="234" on="0"/>
        <pt x="306" y="301" on="0"/>
        <pt x="306" y="312" on="1"/>
      </contour>
    </TTGlyph>
    <TTGlyph name="Pi" xMin="41" yMin="-1" xMax="732" yMax="633">
      <contour>
        <pt x="383" y="626" on="1"/>
        <pt x="535" y="626" on="0"/>
        <pt x="709" y="629" on="0"/>
        <pt x="732" y="633" on="1"/>
        <pt x="732" y="515" on="1"/>
        <pt x="705" y="523" on="0"/>
        <pt x="665" y="524" on="1"/>
        <pt x="665" y="301" on="1"/>
        <pt x="665" y="211" on="0"/>
        <pt x="665" y="101" on="0"/>
        <pt x="666" y="79" on="1"/>
        <pt x="667" y="58" on="0"/>
        <pt x="672" y="18" on="0"/>
        <pt x="677" y="-1" on="1"/>
        <pt x="528" y="-1" on="1"/>
        <pt x="541" y="47" on="0"/>
        <pt x="541" y="301" on="1"/>
        <pt x="541" y="526" on="1"/>
        <pt x="383" y="526" on="1"/>
        <pt x="232" y="526" on="1"/>
        <pt x="232" y="301" on="1"/>
        <pt x="232" y="47" on="0"/>
        <pt x="245" y="-1" on="1"/>
        <pt x="96" y="-1" on="1"/>
        <pt x="101" y="18" on="0"/>
        <pt x="106" y="58" on="0"/>
        <pt x="107" y="79" on="1"/>
        <pt x="108" y="101" on="0"/>
        <pt x="108" y="211" on="0"/>
        <pt x="108" y="301" on="1"/>
        <pt x="108" y="524" on="1"/>
        <pt x="68" y="523" on="0"/>
        <pt x="41" y="515" on="1"/>
        <pt x="41" y="633" on="1"/>
        <pt x="64" y="629" on="0"/>
        <pt x="231" y="626" on="0"/>
      </contour>
    </TTGlyph>
    <TTGlyph name="Psi" xMin="23" yMin="0" xMax="746" yMax="624">
      <contour>
        <pt x="744" y="624" on="1"/>
        <pt x="746" y="456" on="0"/>
        <pt x="654" y="352" on="1"/>
        <pt x="573" y="260" on="0"/>
        <pt x="450" y="247" on="1"/>
        <pt x="449" y="148" on="0"/>
        <pt x="454" y="26" on="0"/>
        <pt x="461" y="0" on="1"/>
        <pt x="314" y="0" on="1"/>
        <pt x="319" y="19" on="0"/>
        <pt x="324" y="67" on="0"/>
        <pt x="325" y="97" on="1"/>
        <pt x="325" y="248" on="1"/>
        <pt x="189" y="265" on="0"/>
        <pt x="114" y="346" on="1"/>
        <pt x="23" y="443" on="0"/>
        <pt x="23" y="624" on="1"/>
        <pt x="161" y="624" on="1"/>
        <pt x="156" y="606" on="0"/>
        <pt x="156" y="585" on="1"/>
        <pt x="156" y="551" on="0"/>
        <pt x="165" y="515" on="1"/>
        <pt x="200" y="383" on="0"/>
        <pt x="324" y="370" on="1"/>
        <pt x="325" y="584" on="0"/>
        <pt x="315" y="624" on="1"/>
        <pt x="458" y="624" on="1"/>
        <pt x="447" y="580" on="0"/>
        <pt x="447" y="498" on="1"/>
        <pt x="447" y="521" on="0"/>
        <pt x="450" y="370" on="1"/>
        <pt x="527" y="381" on="0"/>
        <pt x="564" y="428" on="1"/>
        <pt x="582" y="454" on="0"/>
        <pt x="600" y="513" on="1"/>
        <pt x="618" y="574" on="0"/>
        <pt x="602" y="624" on="1"/>
      </contour>
    </TTGlyph>
    <TTGlyph name="Q" xMin="24" yMin="-134" xMax="635" yMax="635">
      <contour>
        <pt x="549" y="-134" on="1"/>
        <pt x="383" y="-134" on="1"/>
        <pt x="383" y="-121" on="0"/>
        <pt x="352" y="-52" on="1"/>
        <pt x="329" y="-10" on="1"/>
        <pt x="193" y="-10" on="0"/>
        <pt x="108" y="83" on="1"/>
        <pt x="24" y="171" on="0"/>
        <pt x="24" y="303" on="1"/>
        <pt x="24" y="443" on="0"/>
        <pt x="103" y="535" on="1"/>
        <pt x="188" y="635" on="0"/>
        <pt x="329" y="635" on="1"/>
        <pt x="474" y="635" on="0"/>
        <pt x="557" y="540" on="1"/>
        <pt x="635" y="451" on="0"/>
        <pt x="633" y="305" on="1"/>
        <pt x="631" y="206" on="0"/>
        <pt x="579" y="127" on="1"/>
        <pt x="527" y="46" on="0"/>
        <pt x="442" y="12" on="1"/>
        <pt x="459" y="-21" on="1"/>
        <pt x="478" y="-58" on="0"/>
        <pt x="511" y="-96" on="1"/>
        <pt x="524" y="-110" on="0"/>
        <pt x="542" y="-129" on="0"/>
      </contour>
      <contour>
        <pt x="499" y="307" on="1"/>
        <pt x="499" y="399" on="0"/>
        <pt x="456" y="452" on="1"/>
        <pt x="409" y="509" on="0"/>
        <pt x="326" y="509" on="1"/>
        <pt x="247" y="509" on="0"/>
        <pt x="201" y="446" on="1"/>
        <pt x="159" y="389" on="0"/>
        <pt x="159" y="306" on="1"/>
        <pt x="159" y="229" on="0"/>
        <pt x="204" y="174" on="1"/>
        <pt x="253" y="116" on="0"/>
        <pt x="329" y="116" on="1"/>
        <pt x="405" y="116" on="0"/>
        <pt x="453" y="174" on="1"/>
        <pt x="499" y="227" on="0"/>
      </contour>
    </TTGlyph>
    <TTGlyph name="R" xMin="46" yMin="0" xMax="570" yMax="623">
      <contour>
        <pt x="570" y="0" on="1"/>
        <pt x="422" y="0" on="1"/>
        <pt x="424" y="10" on="0"/>
        <pt x="424" y="15" on="1"/>
        <pt x="424" y="71" on="0"/>
        <pt x="385" y="137" on="1"/>
        <pt x="340" y="214" on="0"/>
        <pt x="272" y="237" on="1"/>
        <pt x="246" y="245" on="0"/>
        <pt x="211" y="246" on="1"/>
        <pt x="204" y="245" on="0"/>
        <pt x="190" y="245" on="0"/>
        <pt x="182" y="244" on="1"/>
        <pt x="182" y="94" on="1"/>
        <pt x="183" y="65" on="0"/>
        <pt x="188" y="19" on="0"/>
        <pt x="193" y="0" on="1"/>
        <pt x="46" y="0" on="1"/>
        <pt x="51" y="19" on="0"/>
        <pt x="56" y="80" on="0"/>
        <pt x="57" y="125" on="1"/>
        <pt x="57" y="309" on="1"/>
        <pt x="57" y="493" on="1"/>
        <pt x="56" y="540" on="0"/>
        <pt x="51" y="604" on="0"/>
        <pt x="46" y="623" on="1"/>
        <pt x="324" y="623" on="1"/>
        <pt x="387" y="623" on="0"/>
        <pt x="443" y="594" on="1"/>
        <pt x="526" y="550" on="0"/>
        <pt x="530" y="458" on="1"/>
        <pt x="533" y="372" on="0"/>
        <pt x="487" y="326" on="1"/>
        <pt x="446" y="285" on="0"/>
        <pt x="387" y="285" on="1"/>
        <pt x="519" y="253" on="0"/>
      </contour>
      <contour>
        <pt x="398" y="436" on="1"/>
        <pt x="398" y="489" on="0"/>
        <pt x="364" y="508" on="1"/>
        <pt x="341" y="521" on="0"/>
        <pt x="283" y="521" on="1"/>
        <pt x="184" y="521" on="1"/>
        <pt x="184" y="342" on="1"/>
        <pt x="282" y="343" on="1"/>
        <pt x="331" y="343" on="0"/>
        <pt x="348" y="350" on="1"/>
        <pt x="398" y="370" on="0"/>
      </contour>
    </TTGlyph>
</ttFont>
